<?xml version="1.0" standalone="no"?>
<!DOCTYPE svg PUBLIC "-//W3C//DTD SVG 1.1//EN" "http://www.w3.org/Graphics/SVG/1.1/DTD/svg11.dtd" >
<svg xmlns="http://www.w3.org/2000/svg" xmlns:xlink="http://www.w3.org/1999/xlink" version="1.1">
<metadata>
Created by FontForge 20161003 at Wed Feb 27 09:55:04 2019
 By www-data
Copyright (c) 1991 Adobe Systems Incorporated.  All Rights Reserved.Arial is a registered trademark of The Monotype Corporation plc.
</metadata>
<defs>
<font id="ArialRoundedMT" horiz-adv-x="1153" >
  <font-face 
    font-family="ArialRoundedMT"
    font-weight="400"
    font-stretch="normal"
    units-per-em="2048"
    panose-1="0 0 0 0 0 0 0 0 0 0"
    ascent="1536"
    descent="-512"
    x-height="1061"
    cap-height="1491"
    bbox="-367.622 -456 2128 1917.02"
    underline-thickness="102"
    underline-position="-204"
    unicode-range="U+0020-FB02"
  />
<missing-glyph horiz-adv-x="577" 
 />
    <glyph glyph-name=".notdef" horiz-adv-x="577" 
 />
    <glyph glyph-name=".null" horiz-adv-x="0" 
 />
    <glyph glyph-name="nonmarkingreturn" horiz-adv-x="681" 
 />
    <glyph glyph-name="space" unicode=" " horiz-adv-x="577" 
 />
    <glyph glyph-name="exclam" unicode="!" horiz-adv-x="681" 
d="M340 201q47 0 80 -33t33 -80t-34 -80t-80 -33t-79 33t-33 80t33 80t80 33zM340 1491q80 0 98 -84q12 -63 2 -279l-30 -596q-2 -45 -6 -64t-18 -41q-15 -21 -44 -21t-45 22t-19 40q-4 19 -6 64l-30 596q-10 221 2 279q16 84 96 84z" />
    <glyph glyph-name="quotedbl" unicode="&#x22;" horiz-adv-x="724" 
d="M94 1466h205v-239l-45 -281h-111l-49 281v239zM426 1466h205v-239l-47 -281h-109l-49 281v239z" />
    <glyph glyph-name="numbersign" unicode="#" horiz-adv-x="1130" 
d="M121 401q-35 0 -51 2q-16 3 -32 19t-18 61q-1 45 25 54q25 10 76 10h98l76 368h-174q-37 1 -52 3t-32 17t-17 50q-1 63 45 73q17 3 56 3h203l69 342q12 61 32 74q19 14 54 14t51 -17q16 -18 16 -34t-7 -60l-64 -319h313l70 342q15 76 47 85q14 3 45 3t49 -20t16 -37
q-3 -17 -6 -29t-5 -25l-64 -319h74q35 0 52 -2q16 -1 32 -17t16 -60t-22 -55t-78 -12h-105l-73 -368h178q37 0 52 -2q16 -3 32 -17t16 -50q0 -64 -44 -74q-17 -3 -56 -3h-209l-68 -340q-10 -53 -24 -69q-15 -16 -57 -16t-58 16q-16 18 -16 38t8 56l65 315h-315l-70 -340
q-10 -53 -23 -69t-55 -16t-59 16q-16 18 -16 38t8 56l65 315h-69zM444 915l-73 -368h313l76 368h-316z" />
    <glyph glyph-name="dollar" unicode="$" 
d="M1061 410q0 -76 -27 -151q-26 -75 -68 -126t-130 -97t-209 -59v-243q-1 -70 -13 -92t-44 -21q-32 0 -40 25t-8 92v237q-119 7 -211 55t-140 114q-95 130 -93 235q0 37 26 61t60 25q63 0 86 -76q37 -121 95 -189t177 -83v569q-164 43 -250 92q-164 94 -163 314
q-1 212 169 325q80 53 244 72v106q0 78 52 78t53 -76v-108q195 -23 290 -132t95 -204q0 -27 -24 -53t-68 -27q-44 0 -64 39q-6 12 -22 52t-37 74t-65 67t-105 41v-515q244 -78 313 -139q121 -104 121 -282zM893 414q0 140 -171 210q-32 13 -95 33v-544q76 12 130 44
q54 33 79 65q57 74 57 192zM276 1110q0 -128 82 -180q62 -41 162 -70l2 490q-64 0 -145 -45q-43 -25 -72 -77t-29 -118z" />
    <glyph glyph-name="percent" unicode="%" horiz-adv-x="1705" 
d="M1200 369q0 -143 37 -214t130 -71t128 73t35 218t-38 212t-128 67t-127 -72q-37 -70 -37 -213zM1069 369q0 381 295 381q162 0 230 -104t67 -261q0 -201 -64 -291q-29 -41 -89 -74t-144 -32q-295 0 -295 381zM176 1090q0 -143 37 -214t130 -71t128 73t35 218t-38 212
q-38 66 -128 66t-127 -70t-37 -214zM45 1090q0 381 295 380q162 0 230 -104t67 -260q0 -201 -64 -291q-29 -41 -89 -74t-144 -32q-295 0 -295 381zM1348 1489q16 0 31 -16t15 -38t-38 -75l-926 -1368q-32 -45 -58 -45t-42 16q-34 34 6 84l930 1374q41 57 57 66q9 2 25 2z
" />
    <glyph glyph-name="ampersand" unicode="&#x26;" horiz-adv-x="1429" 
d="M301 414q0 -106 86 -200q86 -93 211 -93q168 0 307 182q-72 74 -184 205q-113 131 -170 209q-121 -69 -185 -133t-65 -170zM850 1170q0 78 -51 130t-131 52t-133 -54q-107 -108 -3 -266q29 -34 86 -114q115 63 174 119q58 55 58 133zM1294 -25q-61 0 -268 207
q-49 -57 -94 -96t-134 -75t-198 -36q-231 1 -358 135t-127 298t118 270q59 53 105 83t121 73q-156 200 -156 326t95 228q96 102 270 103q174 -1 263 -105t89 -219q0 -199 -307 -362q195 -240 299 -350q34 78 96 211q29 53 68 53q40 0 64 -24t24 -58q0 -82 -129 -307
q86 -88 192 -180q53 -47 53 -86t-28 -64t-58 -25z" />
    <glyph glyph-name="quotesingle" unicode="'" horiz-adv-x="385" 
d="M90 1466h205v-245l-47 -275h-113l-45 275v245z" />
    <glyph glyph-name="parenleft" unicode="(" horiz-adv-x="704" 
d="M150 530q0 438 280 859q70 102 129 102q41 0 41 -18q0 -8 -20 -48q-128 -245 -190 -455t-62 -440q0 -115 12 -214t68 -280t161 -384q3 -2 9 -14t14 -26t8 -24q0 -18 -31 -18t-46 5t-50 43t-80 114q-119 199 -181 385t-62 413z" />
    <glyph glyph-name="parenright" unicode=")" horiz-adv-x="704" 
d="M555 530q0 -438 -281 -858q-70 -102 -129 -102q-41 0 -41 18q0 8 21 47q129 246 191 456t61 439q0 115 -12 214q-13 98 -69 280t-161 385q-2 2 -8 14q-6 11 -14 25t-8 28q-1 14 30 15q31 0 46 -5t50 -43t80 -114q119 -199 181 -385t63 -414z" />
    <glyph glyph-name="asterisk" unicode="*" horiz-adv-x="831" 
d="M706 1323q28 0 48 -16t20 -51t-49 -58t-236 -59q127 -141 154 -175t27 -58t-20 -42t-50 -18q-31 0 -68 53q-68 96 -116 188q-124 -209 -140 -225t-44 -16t-46 20t-18 41q0 47 178 232q-206 34 -248 62q-41 27 -41 57q1 30 21 48q20 17 44 17t251 -102q-23 203 -23 239
t18 54q18 20 46 20q27 0 46 -18t19 -54l-18 -241q12 3 82 37q71 34 103 50t60 15z" />
    <glyph glyph-name="plus" unicode="+" horiz-adv-x="1193" 
d="M514 238v401h-401v168h401v401h168v-401h401v-168h-401v-401h-168z" />
    <glyph glyph-name="comma" unicode="," horiz-adv-x="491" 
d="M127 89q0 48 35 82t89 34t87 -45q33 -46 33 -144q1 -98 -55 -190t-117 -92q-18 0 -33 16q-14 16 -14 37t46 65t48 123q-53 2 -86 34t-33 80z" />
    <glyph glyph-name="hyphen" unicode="-" horiz-adv-x="681" 
d="M184 596h314q107 0 129 -35q12 -18 12 -46q0 -70 -66 -81q-34 -6 -75 -6h-314q-107 0 -129 35q-12 18 -12 46q0 70 66 81q34 6 75 6z" />
    <glyph glyph-name="period" unicode="." horiz-adv-x="491" 
d="M246 201q47 0 80 -33q32 -33 32 -80t-34 -80t-79 -33q-46 0 -79 33t-33 80t33 80t80 33z" />
    <glyph glyph-name="slash" unicode="/" horiz-adv-x="575" 
d="M482 1491q36 0 53 -16q18 -17 18 -31t-12 -68l-371 -1319q-14 -53 -28 -67t-48 -14q-35 0 -53 14q-18 16 -18 32t12 68l371 1319q14 53 27 67t49 15z" />
    <glyph glyph-name="zero" unicode="0" 
d="M427 1283q-151 -111 -151 -562t150 -561q62 -45 152 -45q178 0 242 175q55 150 57 431q0 449 -149 561q-60 45 -150 45t-151 -44zM94 721q0 246 38 376t106 214q123 155 342 155t335 -155q143 -193 144 -557q0 -272 -37 -404t-107 -219q-121 -156 -340 -156
q-331 0 -443 373q-38 127 -38 373z" />
    <glyph glyph-name="one" unicode="1" 
d="M768 1331v-1218q0 -100 -39 -124q-20 -13 -51 -14q-88 0 -88 123v1065q-252 -211 -348 -211q-22 0 -44 20t-22 49q0 30 18 49q18 20 57 38q80 37 163 95q125 88 194 200q38 63 80 63q80 0 80 -135z" />
    <glyph glyph-name="two" unicode="2" 
d="M926 162q114 0 137 -34q12 -17 12 -46q0 -59 -47 -71q-47 -11 -100 -11h-711q-123 0 -123 90q0 147 271 379q61 53 223 183t221 216t59 200t-85 186t-191 73q-106 0 -188 -53t-111 -158q-17 -66 -35 -94t-53 -29q-35 1 -61 19t-25 61q0 137 123 265t340 128
q119 0 209 -34t138 -80q48 -47 84 -123t37 -166t-26 -162q-26 -73 -94 -147t-125 -124t-230 -189t-219 -208q-19 -26 -39 -71h609z" />
    <glyph glyph-name="three" unicode="3" 
d="M602 713q-20 0 -119 -11q-39 0 -58 20t-19 50q0 76 97 76q202 0 272 117q38 61 38 141t-65 154q-66 74 -172 74t-172 -53q-64 -52 -100 -133t-54 -93q-14 -8 -47 -8q-33 -1 -50 25t-17 56q-1 70 90 194q46 60 138 102t209 42q193 0 308 -108t115 -253q0 -146 -82 -221
q-56 -54 -132 -96q193 -49 251 -187q30 -71 30 -167q0 -188 -124 -323q-125 -135 -357 -135t-351 122q-57 60 -93 138t-36 119t24 63t58 22t52 -20t30 -62q23 -78 92 -161q69 -84 209 -83q139 1 227 96q87 95 87 213t-72 204t-207 86z" />
    <glyph glyph-name="four" unicode="4" 
d="M711 498v692l-510 -692h510zM711 346h-531q-106 0 -135 29t-29 60t10 47t50 73l614 829q58 82 96 82t57 -11q38 -22 38 -132v-825h100q35 0 54 -2t43 -20t24 -54q0 -76 -115 -76h-106v-231q0 -94 -25 -117q-26 -23 -58 -23q-61 0 -74 44t-13 96v231z" />
    <glyph glyph-name="five" unicode="5" 
d="M616 952q193 0 324 -135t131 -326t-124 -348q-59 -75 -161 -121t-227 -47q-293 0 -424 265q-29 53 -29 94t25 61t55 21q55 0 86 -74q27 -61 55 -104q27 -43 93 -83t153 -40q154 -1 235 109t81 258t-89 240q-89 91 -218 91q-72 1 -131 -23t-89 -47t-70 -61
q-38 -38 -73 -37q-35 0 -59 24t-25 44q0 20 8 69l99 541q14 84 43 104t110 21h510q35 0 57 -2t46 -22t22 -55q0 -36 -24 -55q-24 -20 -43 -22q-20 -2 -56 -2h-510l-80 -436q158 98 299 98z" />
    <glyph glyph-name="six" unicode="6" 
d="M293 471q0 -143 85 -249t217 -107q132 0 211 102t79 251t-82 237t-192 88t-205 -68q-49 -35 -81 -101t-32 -153zM624 932q206 0 326 -134t119 -330q0 -196 -129 -344t-348 -149q-274 0 -410 238q-96 168 -96 471q0 406 160 610q135 172 372 172q96 0 174 -30t118 -69
q40 -40 75 -102t35 -103q0 -40 -23 -64t-57 -23q-61 0 -88 76q-66 180 -236 180q-49 0 -97 -16q-48 -15 -103 -69q-54 -54 -94 -150t-56 -357q152 193 358 193z" />
    <glyph glyph-name="seven" unicode="7" 
d="M188 1292q-111 0 -110 82q0 35 19 52q19 18 37 20t54 2h693q126 0 148 -36q11 -17 11 -45t-12 -47t-104 -136q-291 -368 -388 -835q-24 -112 -47 -271q-14 -102 -92 -103q-92 0 -92 109q1 216 123 534t401 674h-641z" />
    <glyph glyph-name="eight" unicode="8" 
d="M576 713q-136 0 -223 -77t-87 -221q0 -145 91 -225t218 -80t220 79q92 79 92 223t-87 222q-88 79 -224 79zM580 1335q-118 1 -192 -73t-73 -178q0 -104 74 -171q73 -65 185 -65t186 66t74 164q0 99 -68 178t-186 79zM1065 422q0 -184 -130 -316t-363 -131
q-232 1 -358 133t-126 316q0 268 262 364q-209 96 -209 297q0 152 116 267q115 114 323 114t318 -118t110 -263q0 -207 -205 -297q262 -100 262 -366z" />
    <glyph glyph-name="nine" unicode="9" 
d="M78 974q0 196 129 344t348 148q274 0 410 -237q96 -168 96 -471q0 -406 -160 -611q-135 -172 -373 -172q-96 0 -173 30t-117 70t-76 102q-35 62 -35 103q0 40 23 64t57 23q61 0 88 -76q66 -180 235 -180q50 0 98 16q48 15 103 69t95 150t55 356q-152 -193 -371 -192
q-192 0 -312 134t-120 330zM854 971q0 143 -85 249t-217 107q-132 0 -211 -102t-79 -251t82 -237t192 -88t205 68q49 35 81 101t32 153z" />
    <glyph glyph-name="colon" unicode=":" horiz-adv-x="491" 
d="M246 201q47 0 80 -33q32 -33 32 -80t-34 -80t-79 -33q-46 0 -79 33t-33 80t33 80t80 33zM246 1085q47 -1 80 -33q32 -32 32 -79t-34 -80t-79 -33q-46 0 -79 33t-33 80t33 79t80 33z" />
    <glyph glyph-name="semicolon" unicode=";" horiz-adv-x="491" 
d="M127 89q0 48 35 82t89 34t87 -45q33 -46 33 -144q1 -98 -55 -190t-117 -92q-18 0 -33 16q-14 16 -14 37t46 65t48 123q-53 2 -86 34t-33 80zM244 1085q47 -1 80 -33q32 -32 32 -79t-32 -80t-80 -33q-47 0 -80 33t-33 80t33 79t80 33z" />
    <glyph glyph-name="less" unicode="&#x3c;" horiz-adv-x="1193" 
d="M113 805l970 414v-179l-768 -319l768 -315v-179l-970 410v168z" />
    <glyph glyph-name="equal" unicode="=" horiz-adv-x="1193" 
d="M1083 418h-970v168h970v-168zM1083 862h-970v168h970v-168z" />
    <glyph glyph-name="greater" unicode="&#x3e;" horiz-adv-x="1193" 
d="M1083 641l-970 -414v179l768 319l-768 315v179l970 -410v-168z" />
    <glyph glyph-name="question" unicode="?" horiz-adv-x="1087" 
d="M545 201q47 0 80 -33t33 -80t-34 -80t-80 -33t-79 33t-33 80t33 80t80 33zM188 1018q-34 0 -62 24t-28 65q0 40 25 97t74 125t146 115t222 47q209 0 322 -118t112 -273q0 -98 -47 -177q-46 -79 -162 -190t-142 -155t-38 -148q-8 -82 -84 -82q-86 0 -86 114t44 190
t134 158q90 81 118 112q78 82 78 178q-1 96 -75 168t-186 71q-203 0 -268 -233q-11 -27 -17 -40q-6 -12 -26 -30t-54 -18z" />
    <glyph glyph-name="at" unicode="@" horiz-adv-x="2068" 
d="M676 412q0 -116 66 -193q66 -76 149 -76q137 0 251 153t113 351q0 137 -66 212q-67 75 -169 75t-186 -91t-121 -203t-37 -228zM1430 162q34 0 98 39q159 98 235 283q45 110 45 231q0 276 -206 452q-207 176 -510 176q-375 0 -605 -250q-229 -251 -229 -610
q0 -170 50 -305t133 -220t197 -141q208 -102 482 -102q399 0 624 211q48 45 81 92h180q-55 -111 -158 -198q-291 -252 -725 -252q-262 0 -460 73t-317 199q-234 251 -234 627q0 279 133 531q74 140 182 248q109 108 284 176t386 69q211 0 378 -68q305 -124 428 -430
q54 -137 54 -282q0 -225 -110 -391q-215 -326 -492 -326q-128 0 -161 61q-25 46 -32 107q-141 -166 -302 -166t-264 130t-103 318q0 233 156 436q156 202 354 202t311 -183l35 156h178l-144 -672q-30 -133 -30 -160t22 -44t56 -17z" />
    <glyph glyph-name="A" unicode="A" horiz-adv-x="1409" 
d="M428 582h539l-275 686zM39 60q0 30 29 104l464 1153q39 100 68 137t93 37q63 0 93 -33t72 -139l481 -1147q31 -76 31 -108t-29 -60q-29 -29 -65 -29q-63 0 -89 54q-9 18 -30 71l-131 324h-653l-127 -328q-42 -104 -72 -114q-64 -24 -108 20q-28 28 -27 58z" />
    <glyph glyph-name="B" unicode="B" horiz-adv-x="1409" 
d="M778 680h-409v-522h409q158 0 239 70t81 188q0 119 -72 184q-90 80 -248 80zM369 1309v-471h374q154 0 224 70q69 70 69 163q0 94 -50 156q-28 37 -99 59q-71 23 -116 23h-402zM336 0q-112 0 -138 28t-26 136v1139q0 111 27 137t137 26h422q197 0 288 -54
q183 -109 183 -323t-213 -315q38 -14 62 -23t71 -39t75 -65t52 -96t22 -153q0 -92 -51 -187q-114 -211 -454 -211h-457z" />
    <glyph glyph-name="C" unicode="C" horiz-adv-x="1492" 
d="M1386 455q0 -39 -19 -97q-46 -139 -174 -249q-65 -57 -166 -95t-220 -39q-317 0 -485 175q-100 104 -155 260q-54 156 -54 323q0 340 191 549t493 209q149 0 269 -54t182 -130q126 -154 126 -236q0 -33 -20 -59t-50 -27q-30 0 -51 12t-43 46t-39 63q-55 106 -152 166
t-197 61q-100 -1 -181 -29q-80 -28 -157 -93t-124 -189t-47 -296q0 -171 46 -295t121 -184q142 -114 308 -114q313 0 426 322q10 27 18 41q21 42 62 42q42 0 67 -22t25 -61z" />
    <glyph glyph-name="D" unicode="D" horiz-adv-x="1492" 
d="M371 1309v-1151h301q147 0 233 30t158 115q119 141 119 422t-119 434q-66 84 -153 117t-248 33h-291zM698 0h-358q-118 0 -142 31t-24 157v1115q0 111 28 137t138 26h356q270 0 401 -86q67 -43 124 -110q162 -195 161 -535q0 -444 -258 -629q-150 -106 -426 -106z" />
    <glyph glyph-name="E" unicode="E" horiz-adv-x="1300" 
d="M375 1309v-471h626q41 0 63 -2t46 -20t23 -52q0 -60 -44 -75q-31 -9 -88 -9h-626v-522h710q106 0 124 -32q11 -17 11 -51t-24 -52q-24 -19 -46 -21t-65 -2h-743q-70 0 -92 4t-42 24q-21 20 -26 44q-4 25 -4 92v1153q0 84 19 110q4 3 19 21t126 18h715q104 0 124 -31
q11 -17 11 -51t-25 -52t-47 -21q-22 -2 -63 -2h-682z" />
    <glyph glyph-name="F" unicode="F" horiz-adv-x="1173" 
d="M369 1309v-480h505q41 0 63 -2q21 -2 45 -20t24 -51q0 -59 -45 -75q-30 -9 -87 -9h-505v-535q0 -104 -29 -133t-70 -29t-73 29q-25 27 -25 133v1166q0 111 27 137t137 26h641q102 0 122 -31q11 -17 11 -51t-24 -52t-46 -21q-22 -2 -63 -2h-608z" />
    <glyph glyph-name="G" unicode="G" horiz-adv-x="1599" 
d="M1286 588h-321q-107 0 -126 33q-11 16 -11 49t22 52q23 19 42 21t52 2h369q98 -3 129 -27t31 -114v-321q-1 -53 -9 -79t-41 -50q-14 -14 -75 -50q-62 -36 -204 -82t-288 -47q-369 0 -558 213t-189 534t175 536q87 108 232 170t307 62t272 -35q110 -36 170 -86t113 -126
t56 -149q0 -37 -24 -62q-24 -24 -72 -24t-97 88q-25 45 -50 78q-127 162 -367 160q-240 -1 -378 -167t-137 -428q0 -305 162 -467q139 -139 375 -139t440 137v318z" />
    <glyph glyph-name="H" unicode="H" horiz-adv-x="1492" 
d="M362 848h768v483q0 100 30 130t71 30t69 -28t27 -132v-1196q1 -104 -27 -132t-68 -28t-73 29q-29 31 -29 131v555h-768v-553q0 -104 -28 -131q-27 -31 -69 -31t-75 29q-25 27 -24 133v1192q0 106 28 134t70 28q43 0 70 -31q29 -27 28 -131v-481z" />
    <glyph glyph-name="I" unicode="I" horiz-adv-x="598" 
d="M397 1329v-1192q-1 -106 -29 -134t-70 -28t-70 28t-27 134v1192q1 106 29 134t71 28t70 -31q26 -25 26 -131z" />
    <glyph glyph-name="J" unicode="J" horiz-adv-x="1087" 
d="M713 446v883q1 106 29 134t69 28t70 -27t28 -135v-868q0 -169 -33 -253q-16 -38 -48 -86q-98 -145 -378 -146t-367 253q-30 87 -30 145q1 58 21 83t38 29t42 3q24 0 42 -17t26 -40q6 -23 16 -67q27 -124 67 -162q70 -68 162 -69t146 41t77 102t23 169z" />
    <glyph glyph-name="K" unicode="K" horiz-adv-x="1429" 
d="M1207 1491q34 0 60 -27q25 -28 25 -64t-57 -91l-471 -435l524 -686q62 -76 62 -118t-30 -69q-30 -26 -69 -26q-39 -1 -61 19t-72 86l-487 670l-256 -238v-418q0 -66 -30 -92q-31 -26 -71 -27q-40 0 -68 28t-28 134v1192q0 109 29 133q29 29 69 29t70 -27q29 -27 29 -135
v-594l725 695q41 41 57 51t50 10z" />
    <glyph glyph-name="L" unicode="L" horiz-adv-x="1173" 
d="M369 158h620q45 0 67 -2t46 -20t24 -53q0 -34 -10 -51q-19 -32 -127 -32h-653q-112 0 -138 27t-26 137v1165q0 106 28 134t72 28t70 -31q27 -25 27 -131v-1171z" />
    <glyph glyph-name="M" unicode="M" horiz-adv-x="1622" 
d="M111 119v1184q0 118 56 144q41 19 115 19t103 -17t59 -110l306 -911q41 -121 71 -217q18 59 78 235l303 887q35 98 56 116q22 17 115 17t116 -30t22 -133v-1203q0 -125 -94 -125t-94 117v1135l-381 -1096q-32 -96 -54 -126t-75 -30t-78 27t-59 129l-377 1116v-1126
q0 -106 -40 -131q-23 -14 -59 -14t-59 24q-23 26 -27 52t-3 67z" />
    <glyph glyph-name="N" unicode="N" horiz-adv-x="1492" 
d="M1222 1491q50 0 78 -27t27 -131v-1159q0 -84 -6 -115t-38 -57t-77 -27q-46 0 -70 23t-73 96l-715 1067l8 -1028q0 -84 -10 -106q-10 -23 -34 -37t-58 -14t-60 26q-28 27 -28 131v1167q0 82 6 110t34 54t73 27q45 0 69 -23t70 -92l727 -1085l-6 1042q-2 82 12 111
q21 47 71 47z" />
    <glyph glyph-name="O" unicode="O" horiz-adv-x="1599" 
d="M1294 733q0 172 -52 298q-52 125 -134 187q-155 117 -309 115q-195 0 -342 -147q-152 -147 -152 -477q0 -260 142 -418t352 -158q154 0 309 115q82 61 134 187t52 298zM1495 714q0 -124 -39 -254q-91 -305 -332 -419q-137 -66 -309 -66q-172 -1 -300 51t-203 131
q-204 215 -208 576q0 222 90 404q50 102 125 179q76 77 201 126t280 49q156 0 276 -47t197 -122t128 -176t73 -204q22 -104 21 -228z" />
    <glyph glyph-name="P" unicode="P" horiz-adv-x="1300" 
d="M657 1309h-282v-549h282q350 0 351 276q0 123 -72 198t-279 75zM375 602v-465q1 -80 -11 -105q-25 -55 -78 -56q-52 -1 -80 27t-28 134v1166q0 115 30 139t150 24h351q229 0 344 -86q156 -117 155 -340q0 -113 -50 -216q-50 -102 -164 -162t-285 -60h-334z" />
    <glyph glyph-name="Q" unicode="Q" horiz-adv-x="1599" 
d="M1055 1257q-120 76 -248 76t-220 -51q-92 -52 -148 -114t-95 -176t-39 -272t50 -281q50 -124 129 -186q153 -120 313 -120q117 0 221 53q-41 33 -174 101q-59 27 -60 65q0 24 18 46t51 22q34 0 122 -48t158 -106q162 168 161 469q0 135 -34 241q-60 190 -205 281z
M1550 -38q0 -26 -22 -48t-45 -20q-68 0 -316 169q-170 -88 -362 -88q-191 0 -331 68q-140 69 -217 181q-153 224 -153 509q0 218 89 403q49 103 124 180q76 77 201 126t285 49t287 -52q128 -52 202 -132q74 -81 122 -187q81 -180 81 -391q0 -346 -205 -569q66 -48 144 -92
t98 -62q18 -18 18 -44z" />
    <glyph glyph-name="R" unicode="R" horiz-adv-x="1409" 
d="M721 1315h-348v-500h342q369 0 368 254q0 119 -94 191q-69 55 -268 55zM373 657v-518q0 -75 -8 -103t-36 -44t-57 -17q-70 0 -90 64q-6 18 -6 100v1164q0 111 27 137t137 26h469q187 0 281 -56t144 -145t50 -193t-40 -180q-40 -75 -93 -116q-96 -72 -258 -100
q102 -59 156 -129q12 -15 47 -61q34 -47 39 -56l133 -223q68 -113 68 -150t-28 -61t-66 -23q-38 0 -64 25t-76 108l-139 222q-74 118 -128 186q-55 68 -105 98t-86 38q-36 7 -99 7h-172z" />
    <glyph glyph-name="S" unicode="S" horiz-adv-x="1300" 
d="M1200 424q0 -193 -142 -322t-408 -129q-373 0 -504 286q-66 149 -11 207q25 26 63 26t55 -25t39 -85t36 -88q61 -108 159 -146q68 -26 160 -25q147 0 256 74t109 200q0 148 -149 213q-52 23 -206 57q-153 35 -229 61t-141 75q-137 111 -137 295t144 288t355 105
q326 0 447 -209q47 -84 47 -136t-25 -82q-24 -30 -64 -30t-60 26q-19 26 -36 73q-34 102 -108 155t-209 53q-135 -1 -219 -69t-84 -162q0 -137 151 -198q53 -22 84 -30t91 -22q301 -72 403 -149q63 -47 98 -130t35 -157z" />
    <glyph glyph-name="T" unicode="T" horiz-adv-x="1193" 
d="M694 1309v-1172q0 -109 -28 -135t-69 -27q-42 0 -71 27t-28 135v1172h-332q-94 1 -118 25q-48 49 1 108q23 25 117 24h862q94 0 118 -26q52 -55 -3 -109q-23 -23 -115 -22h-334z" />
    <glyph glyph-name="U" unicode="U" horiz-adv-x="1492" 
d="M362 1327v-778q0 -141 22 -195q46 -116 129 -168q83 -51 209 -52q220 -2 312 95q96 101 96 318v780q0 106 29 135t72 29t69 -31q27 -27 27 -133v-762q0 -590 -563 -590q-302 1 -450 137t-148 451v764q0 106 29 135t71 29t68 -29q28 -29 28 -135z" />
    <glyph glyph-name="V" unicode="V" horiz-adv-x="1300" 
d="M1165 1491q41 0 69 -27q28 -28 28 -56t-27 -99l-430 -1162q-49 -143 -99 -162q-24 -9 -74 -9t-80 35q-28 36 -65 136l-419 1151q-29 78 -29 107t28 57q29 28 65 29q36 0 58 -17t32 -39q9 -22 28 -71l399 -1155l412 1161q23 68 43 94t61 27z" />
    <glyph glyph-name="W" unicode="W" horiz-adv-x="1855" 
d="M1793 1463q26 -29 26 -59q-1 -30 -9 -60t-8 -31l-305 -1172q-17 -63 -27 -91t-36 -52t-65 -23q-72 0 -96 42t-46 120l-299 1102l-299 -1102q-39 -135 -82 -152q-23 -9 -61 -9t-64 23q-27 23 -37 51t-27 91l-305 1172q-16 83 -16 103q-1 20 25 48t72 27q46 0 66 -32
t36 -103l262 -1075l280 1036q21 77 39 108t42 39q25 8 83 8t84 -30q26 -31 51 -125l281 -1036l262 1075q10 46 18 70t30 44t60 20t65 -27z" />
    <glyph glyph-name="X" unicode="X" horiz-adv-x="1236" 
d="M132 1466q26 24 69 25q43 0 72 -41t44 -68l308 -473l342 486q31 45 51 71t56 25q36 0 62 -18q62 -43 -26 -166l-371 -529l400 -598q51 -80 51 -116t-27 -62t-65 -27q-38 1 -60 21q-20 20 -71 98l-342 524l-381 -546q-31 -46 -42 -60q-27 -36 -70 -36q-42 -1 -66 23
q-24 23 -23 61q0 38 53 114l420 592l-358 526q-52 76 -52 113t26 61z" />
    <glyph glyph-name="Y" unicode="Y" horiz-adv-x="1259" 
d="M49 1403q0 33 26 61q25 28 65 27q40 1 60 -19t62 -90l367 -579l377 586q43 68 61 85t54 17t63 -25q26 -26 26 -60t-51 -112l-438 -665v-492q0 -109 -29 -133q-28 -29 -68 -29t-70 27t-30 135v492l-422 655q-53 86 -53 119z" />
    <glyph glyph-name="Z" unicode="Z" horiz-adv-x="1280" 
d="M1141 158q104 0 104 -80q0 -57 -40 -67q-40 -11 -93 -11h-907q-109 0 -137 20q-43 33 -43 72t13 62t58 77l858 1078h-721q-41 0 -63 2t-44 20q-24 18 -24 51q0 62 44 75q31 9 87 9h822q105 0 131 -44q14 -24 14 -64t-55 -109l-871 -1091h867z" />
    <glyph glyph-name="bracketleft" unicode="[" horiz-adv-x="704" 
d="M330 1327v-1597h227q39 0 57 -2t40 -18t22 -48q0 -33 -22 -50q-22 -18 -41 -20t-56 -2h-244q-61 0 -83 4t-43 24t-25 44q-4 25 -4 92v1549q0 69 4 91t24 43t44 25t83 4h244q37 0 56 -2t41 -19t22 -46q0 -54 -38 -63t-81 -9h-227z" />
    <glyph glyph-name="backslash" unicode="\" horiz-adv-x="575" 
d="M23 1440q0 19 18 35t53 16t48 -15t28 -67l371 -1319q12 -46 12 -64t-18 -35t-53 -17q-34 0 -48 14q-14 16 -28 69l-371 1319q-12 45 -12 64z" />
    <glyph glyph-name="bracketright" unicode="]" horiz-adv-x="704" 
d="M375 -270v1597h-228q-39 0 -57 2q-18 1 -40 17t-21 49q0 33 21 50q22 17 41 19t56 2h244q61 0 83 -4t43 -23t25 -44t5 -92v-1549q0 -70 -4 -92q-5 -22 -25 -42q-20 -22 -44 -26t-83 -4h-244q-37 0 -56 2t-41 20t-22 46q0 29 10 44q17 28 109 28h228z" />
    <glyph glyph-name="asciicircum" unicode="^" horiz-adv-x="960" 
d="M238 690h-185l355 801h145l354 -801h-182l-246 598z" />
    <glyph glyph-name="underscore" unicode="_" horiz-adv-x="1024" 
d="M-12 -408v132h1048v-132h-1048z" />
    <glyph glyph-name="grave" unicode="`" horiz-adv-x="681" 
d="M408 1186q-26 0 -73 40q-46 40 -126 126t-80 102t61 16h50q72 0 92 -12t55 -82l51 -100q20 -39 20 -52q0 -14 -12 -26t-38 -12z" />
    <glyph glyph-name="a" unicode="a" 
d="M268 280q0 -56 51 -110q51 -55 149 -55t188 40q92 41 136 115t44 283q-62 -25 -118 -37t-162 -32t-150 -33q-138 -41 -138 -171zM1055 47q0 -29 -26 -51q-25 -22 -59 -21q-34 0 -59 31t-36 62t-25 82q-180 -174 -420 -175q-166 1 -255 91t-89 213q0 183 174 262
q55 25 120 39t217 43q151 28 237 57q-6 176 -61 225t-181 49q-240 0 -299 -147q-21 -54 -41 -70t-50 -16t-60 27t-8 103q9 32 40 74q31 43 78 77t133 59t200 25q215 -1 322 -82q45 -36 69 -98t30 -118t6 -141l-6 -334q0 -100 28 -176q0 -2 10 -32q10 -29 11 -58z" />
    <glyph glyph-name="b" unicode="b" horiz-adv-x="1259" 
d="M657 115q132 0 232 103t100 301q0 199 -87 313t-232 114q-108 0 -212 -77q-58 -42 -96 -132t-36 -217q0 -209 100 -307t231 -98zM322 96q0 -121 -86 -121q-37 0 -62 25q-25 20 -24 117v1226q0 113 37 136q19 12 51 12t52 -11q38 -22 38 -139v-440q27 40 89 89
q125 97 285 95q104 1 188 -35t136 -92q145 -158 145 -417q0 -157 -45 -262t-95 -164t-136 -99q-85 -40 -181 -41q-96 1 -160 19q-123 35 -232 166v-64z" />
    <glyph glyph-name="c" unicode="c" 
d="M975 393q31 -1 57 -23t25 -55q0 -33 -25 -83t-74 -110t-144 -104t-214 -43q-309 0 -438 228q-76 135 -76 333t101 361q53 86 157 137t248 51q274 0 407 -202q37 -53 37 -93t-24 -62t-62 -22q-37 0 -80 72q-98 168 -276 168q-150 0 -240 -110t-90 -304q0 -192 87 -305
t239 -112q186 0 272 151q29 58 53 94q29 33 60 33z" />
    <glyph glyph-name="d" unicode="d" horiz-adv-x="1259" 
d="M270 519q0 -197 100 -301t233 -103q132 0 232 98q99 98 99 307q0 127 -37 217t-95 132q-106 77 -212 77q-144 0 -232 -115t-88 -312zM88 543q0 157 60 286q34 74 85 129q51 56 135 92t177 36q178 -1 281 -84q81 -63 106 -101v440q0 118 38 139q19 11 51 11q63 0 76 -45
t13 -103v-1226q0 -96 -25 -119t-61 -23q-86 0 -86 121v64q-109 -131 -232 -166q-64 -18 -160 -18t-182 39t-136 99t-84 140q-56 132 -56 289z" />
    <glyph glyph-name="e" unicode="e" 
d="M582 954q-172 0 -258 -159q-36 -64 -50 -177h611q-8 123 -54 201q-77 135 -249 135zM909 496h-637q4 -199 98 -294t234 -96q82 0 144 32t88 64t64 90t73 58t54 -20q43 -46 -15 -142q-129 -213 -416 -213q-250 0 -378 155q-128 154 -128 400t128 401t374 154
q119 0 210 -41t139 -98t87 -148t39 -179q0 -89 -54 -109q-39 -14 -104 -14z" />
    <glyph glyph-name="f" unicode="f" horiz-adv-x="618" 
d="M377 1145v-84h110q109 0 109 -66t-109 -65h-110v-809q0 -96 -26 -121q-27 -25 -65 -25t-63 25t-24 121v809h-97q-98 0 -98 65t102 66h93v100q0 160 45 225q72 104 245 105q90 0 150 -23q47 -16 47 -54t-17 -57t-39 -19t-100 10q-96 0 -124 -48t-29 -155z" />
    <glyph glyph-name="g" unicode="g" horiz-adv-x="1259" 
d="M936 975q0 111 86 110q41 1 60 -25q18 -26 22 -52t4 -82v-811q0 -203 -39 -301q-100 -250 -481 -250q-130 0 -226 35t-141 85q-83 93 -86 158q0 29 23 53q22 23 56 23t49 -14t59 -82q76 -119 266 -119q231 0 299 127q29 54 35 112t8 208q-166 -166 -363 -166
q-123 0 -217 48t-141 112t-83 171q-36 106 -36 232q0 125 45 247t155 206t272 85q162 0 242 -65t132 -127v82zM272 530q0 -207 94 -307t230 -100q135 0 234 97q100 97 100 301t-91 315t-239 110q-103 0 -203 -73q-55 -40 -90 -129t-35 -214z" />
    <glyph glyph-name="h" unicode="h" horiz-adv-x="1173" 
d="M1030 682v-559q0 -90 -22 -119t-74 -29q-53 0 -74 50q-8 20 -8 98v516q0 145 -33 201q-59 100 -188 100q-78 0 -148 -40q-93 -53 -131 -164q-22 -72 -22 -261v-354q0 -94 -25 -119q-33 -27 -65 -27q-63 0 -76 46q-12 46 -12 102v1220q0 47 3 72t22 51t61 25q42 0 64 -25
q22 -26 25 -50t3 -73v-434q68 84 142 130t192 46q182 0 292 -129q74 -84 74 -274z" />
    <glyph glyph-name="i" unicode="i" horiz-adv-x="491" 
d="M336 940v-819q0 -70 -8 -88q-18 -57 -82 -58q-41 0 -63 26q-23 25 -25 51t-2 69v819q0 92 24 119q27 27 74 27t70 -42q12 -22 12 -104zM344 1362q0 -41 -29 -71q-29 -29 -69 -29t-70 30q-29 30 -29 70q0 41 29 70q29 28 70 28q42 0 70 -28t28 -70z" />
    <glyph glyph-name="j" unicode="j" horiz-adv-x="491" 
d="M158 -61v1001q0 80 14 107q25 39 66 39q72 -1 85 -47q13 -45 13 -99v-997q0 -195 -37 -258q-69 -117 -235 -117t-166 96q0 72 79 72l74 -6q59 0 83 44t24 165zM147 1362q0 41 30 70q30 28 71 28q42 0 70 -28t28 -70q0 -41 -29 -71q-29 -29 -69 -29t-71 30q-30 30 -30 70z
" />
    <glyph glyph-name="k" unicode="k" horiz-adv-x="1087" 
d="M344 125q0 -94 -14 -112q-27 -36 -68 -37q-41 0 -59 10q-37 22 -37 145v1188q0 131 38 158q19 14 52 14q61 0 82 -55q6 -18 6 -101v-725l426 410q48 49 64 59q16 11 44 11t54 -25q24 -25 24 -55t-57 -84l-276 -260l342 -494q55 -80 55 -115t-29 -59t-59 -23t-52 19
t-53 67l-327 490l-156 -143v-283z" />
    <glyph glyph-name="l" unicode="l" horiz-adv-x="491" 
d="M336 1343v-1222q0 -92 -26 -119t-60 -27q-65 0 -79 45q-13 45 -13 101v1222q0 96 26 122t61 26q36 0 66 -27q25 -27 25 -121z" />
    <glyph glyph-name="m" unicode="m" horiz-adv-x="1705" 
d="M1573 729v-606q0 -96 -23 -121q-30 -27 -64 -27q-64 0 -78 47q-13 47 -13 103v545q0 141 -43 200q-43 58 -148 60q-62 0 -122 -29q-138 -66 -138 -285v-493q0 -96 -22 -121q-31 -27 -67 -27t-67 27q-23 25 -22 121v567q0 240 -188 240q-72 0 -134 -35t-86 -88
q-45 -88 -45 -256v-428q0 -96 -22 -121q-31 -27 -67 -27t-66 27q-23 25 -23 121v817q0 113 34 134q17 11 46 11t48 -16t25 -38t7 -118q113 172 321 172q160 0 246 -90q33 -35 56 -96q119 186 327 186q86 1 168 -35q160 -70 160 -321z" />
    <glyph glyph-name="n" unicode="n" horiz-adv-x="1173" 
d="M1030 678v-557q0 -98 -26 -122t-63 -24t-63 24t-26 122v506q0 143 -33 200q-59 102 -186 103q-78 0 -148 -40q-69 -40 -101 -98t-43 -119q-11 -60 -11 -214v-338q0 -96 -28 -121t-62 -25t-62 24q-27 24 -26 122v823q0 94 22 117q29 25 73 25t60 -39q18 -33 19 -144
q39 51 70 83q32 32 105 66t161 33q184 0 299 -131q69 -79 69 -276z" />
    <glyph glyph-name="o" unicode="o" horiz-adv-x="1173" 
d="M268 529q0 -191 85 -303t235 -112t232 114q82 112 83 306q0 194 -85 303q-84 109 -232 109t-233 -112t-85 -305zM1085 530q0 -276 -141 -415q-142 -139 -370 -139t-358 152q-130 153 -130 382q0 276 132 426t358 150t368 -140q141 -140 141 -416z" />
    <glyph glyph-name="p" unicode="p" horiz-adv-x="1259" 
d="M714 1085q95 1 181 -39t136 -100t95 -165q45 -106 45 -263t-60 -287q-34 -74 -85 -129t-135 -91q-85 -36 -177 -36q-213 0 -350 143q-24 24 -36 42v-441q0 -116 -38 -138q-19 -11 -51 -11q-65 0 -77 45t-12 102v1227q0 96 24 119t62 22q86 0 86 -120v-64q49 59 132 121
q83 63 260 63zM989 542q0 198 -100 300q-100 104 -232 104q-131 0 -231 -98t-100 -307q0 -127 36 -217t96 -132q105 -77 212 -77q145 1 232 115t87 312z" />
    <glyph glyph-name="q" unicode="q" horiz-adv-x="1259" 
d="M601 946q-132 0 -232 -103q-101 -103 -101 -301t87 -313t233 -114q105 0 212 76q58 43 95 133t37 217q0 209 -99 307q-100 98 -232 98zM936 965q0 121 86 120q37 0 61 -24q25 -20 25 -117v-1227q0 -112 -38 -135q-19 -12 -51 -12q-63 0 -76 46t-13 103v441
q-27 -40 -89 -89q-123 -96 -286 -96q-104 0 -188 36t-136 91q-145 156 -145 418q0 155 45 261t95 165q50 60 136 100t182 40t160 -19q124 -34 232 -166v64z" />
    <glyph glyph-name="r" unicode="r" horiz-adv-x="768" 
d="M158 121v852q0 35 2 53t20 38t54 21q36 0 55 -20q18 -21 20 -39t2 -53v-82q61 92 100 130q65 64 148 64q84 1 153 -33t68 -87q0 -35 -24 -59t-45 -24q-19 0 -63 16q-44 15 -100 15q-56 -1 -103 -35q-109 -82 -109 -415v-385q0 -59 -29 -81t-63 -22t-60 24t-26 122z" />
    <glyph glyph-name="s" unicode="s" horiz-adv-x="1044" 
d="M956 323q0 -49 -7 -85t-36 -85q-29 -50 -73 -87t-131 -64q-86 -27 -199 -27q-219 0 -336 113q-90 90 -90 180q0 30 22 52t56 22q51 0 82 -70q74 -170 278 -170q117 0 183 50q65 50 65 122q0 71 -46 109t-99 53q-55 14 -157 41t-165 51t-110 64q-92 76 -93 190
q0 74 42 143q97 160 356 160q98 1 175 -23q127 -39 185 -126q43 -62 43 -101q-1 -39 -23 -59t-55 -20t-48 16t-38 64q-57 123 -235 122q-102 0 -167 -40t-65 -107q0 -68 65 -109t255 -81q190 -39 280 -117q34 -30 60 -82q26 -50 26 -99z" />
    <glyph glyph-name="t" unicode="t" horiz-adv-x="618" 
d="M635 70q0 -88 -199 -88t-235 143q-17 69 -17 162v645h-67q-35 0 -57 19t-23 46q0 63 96 64h51v180q0 100 19 134t61 34t60 -12q38 -23 38 -146v-190h95q111 0 110 -64q0 -66 -104 -65h-101v-631q0 -94 18 -137t89 -43l104 12q27 0 44 -16t18 -47z" />
    <glyph glyph-name="u" unicode="u" horiz-adv-x="1173" 
d="M141 373v565q0 98 26 123q27 25 63 25t65 -25q25 -25 24 -123v-496q0 -147 35 -204q66 -106 189 -107q78 0 159 47t119 155q23 69 23 273v332q0 98 28 123t61 25q34 0 64 -25q25 -25 25 -123v-821q0 -94 -25 -118t-71 -24t-60 36q-16 36 -16 149q-106 -135 -216 -167
q-157 -46 -312 21q-181 78 -181 359z" />
    <glyph glyph-name="v" unicode="v" horiz-adv-x="1067" 
d="M1010 1010q0 -24 -27 -97l-324 -807q-20 -50 -31 -72q-29 -57 -93 -59q-35 1 -60 19t-36 40t-31 72l-324 807q-27 70 -27 97q0 28 25 52q26 24 58 24q56 -1 80 -51q9 -19 24 -60l291 -772l288 772q14 41 24 60q24 50 81 50q34 1 58 -25t24 -50z" />
    <glyph glyph-name="w" unicode="w" horiz-adv-x="1536" 
d="M31 1014q-1 22 23 48q24 24 57 24q59 -1 78 -51q7 -17 22 -62l235 -764l207 741q14 49 24 73q23 62 99 62q44 -1 65 -31q22 -30 42 -104l207 -741l235 764q23 74 45 93t54 19q32 1 57 -23t25 -52t-21 -88l-273 -805q-24 -80 -48 -111t-66 -31q-42 1 -62 11
q-44 23 -73 137l-195 698l-195 -698q-30 -119 -73 -137q-20 -10 -62 -10t-66 30q-24 31 -48 111l-273 805q-20 70 -20 92z" />
    <glyph glyph-name="x" unicode="x" horiz-adv-x="1044" 
d="M150 -25q-44 0 -68 24q-24 25 -23 53q0 28 37 79l318 424l-281 365q-43 57 -43 87q0 31 22 55t58 24t54 -17q19 -16 50 -59l248 -328l244 328q55 76 97 76t67 -24q24 -22 24 -52t-47 -90l-276 -357l309 -422q45 -59 45 -90t-26 -53t-56 -23q-51 0 -106 76l-275 381
l-278 -385q-50 -72 -94 -72z" />
    <glyph glyph-name="y" unicode="y" horiz-adv-x="1044" 
d="M45 1008q0 26 26 52q27 26 65 26t57 -25q18 -25 38 -80l291 -793l301 783q29 74 45 94t54 20q38 -1 58 -25q22 -24 22 -48t-25 -88l-426 -1092q-57 -146 -123 -204t-188 -58q-172 0 -172 92q0 28 18 50t51 22l90 -6q57 0 89 34t59 97l55 141l-362 920q-23 61 -23 88z" />
    <glyph glyph-name="z" unicode="z" horiz-adv-x="1044" 
d="M128 0q-103 0 -103 78q0 41 51 98l526 588q94 104 121 158h-490q-141 0 -162 29q-11 15 -11 44t20 45t40 18t56 3h621q129 0 151 -35q12 -18 12 -44t-12 -44t-55 -70l-623 -729h629q85 0 103 -17t18 -50t-22 -50q-22 -18 -42 -20t-231 -2h-597z" />
    <glyph glyph-name="braceleft" unicode="{" horiz-adv-x="681" 
d="M432 94v-162q0 -122 31 -162t115 -42q59 -4 59 -64q-1 -60 -19 -76q-18 -18 -72 -18q-106 0 -176 51q-96 64 -105 277q-1 25 -3 196t-15 209q-32 93 -74 114q-27 13 -63 22t-44 29q-17 41 -7 104q6 37 50 49q103 31 125 103t26 149t4 171q0 243 47 325t114 102
q66 20 139 20t73 -70q-1 -53 -19 -70t-62 -17q-86 -1 -106 -66q-18 -54 -18 -138v-116q0 -251 -35 -315q-10 -19 -25 -49t-37 -47q-69 -53 -112 -73q109 -47 149 -119q24 -44 42 -98t18 -219z" />
    <glyph glyph-name="bar" unicode="|" horiz-adv-x="532" 
d="M188 -330v1721q0 37 2 53t18 32t63 15q47 0 61 -22t14 -78v-1721q0 -35 -3 -53q-8 -47 -68 -47q-59 0 -73 20t-14 80z" />
    <glyph glyph-name="braceright" unicode="}" horiz-adv-x="681" 
d="M252 967v161q0 123 -31 163t-115 42q-59 3 -59 63q1 60 19 78t72 17q106 0 176 -51q48 -32 77 -115t30 -211q2 -315 16 -354q13 -40 31 -72t43 -44q27 -13 63 -22q36 -8 44 -28t8 -56t-1 -50q-5 -36 -50 -48q-103 -31 -125 -103t-26 -149t-4 -171t-7 -182t-31 -127
q-23 -40 -54 -74q-58 -64 -205 -64q-76 0 -76 70q1 53 19 70q18 18 62 18q86 1 106 65q18 53 18 137v117q0 144 12 220q12 75 23 94q10 19 25 49t37 48q66 51 112 72q-108 47 -149 120q-24 44 -42 98t-18 219z" />
    <glyph glyph-name="asciitilde" unicode="~" horiz-adv-x="1193" 
d="M365 883q104 1 236 -55t169 -68t87 -12q49 0 113 32t91 58q27 25 47 47v-211q-123 -115 -277 -115q-105 0 -253 67q-148 66 -218 66q-119 -1 -203 -70q-28 -24 -71 -65v205q104 121 279 121z" />
    <glyph glyph-name="exclamdown" unicode="&#xa1;" horiz-adv-x="681" 
d="M342 -430q-80 0 -98 84q-12 63 -2 278l30 596q2 44 6 64t18 42q15 22 44 22t45 -22q15 -22 19 -42t6 -64l30 -596q10 -221 -2 -278q-16 -84 -96 -84zM342 860q-47 0 -80 33t-33 80t33 80t80 33t80 -34q33 -32 33 -79t-33 -80t-80 -33z" />
    <glyph glyph-name="cent" unicode="&#xa2;" 
d="M596 115q168 0 268 155q8 12 30 52t41 55q19 16 47 16q28 -1 52 -25t23 -53q0 -94 -123 -217t-352 -123q-61 0 -107 11l-84 -273q-25 -76 -39 -85t-32 -9t-29 15q-12 15 -12 38t16 76l80 264q-289 125 -289 514q0 291 179 457q40 37 129 70q142 53 304 24l88 285
q29 90 68 90q18 0 32 -13t15 -25q0 -12 -16 -79l-86 -282q123 -55 180 -139t57 -123q0 -37 -24 -61t-62 -24q-40 0 -84 80q-44 78 -112 119l-238 -784q33 -6 80 -6zM598 946q-135 0 -234 -99t-100 -317q0 -264 158 -368l233 778q-20 6 -57 6z" />
    <glyph glyph-name="sterling" unicode="&#xa3;" 
d="M637 799q37 0 56 -2q19 -3 41 -19t22 -47t-20 -47t-40 -18t-55 -2h-213q8 -51 8 -134q0 -178 -98 -348q86 14 163 14t193 -26t160 -26q42 0 112 24t95 24t47 -23q22 -24 20 -56q0 -63 -88 -101t-184 -37q-96 0 -249 45q-153 46 -227 46t-158 -39t-110 -39t-54 24t-28 57
q0 32 12 48q11 16 64 65q160 160 160 334q0 70 -20 148h-113q-35 0 -53 2t-38 18q-19 16 -19 47q0 68 102 68h84q-55 190 -55 270q0 180 124 301t330 121t326 -118q119 -118 119 -238q0 -37 -27 -62t-61 -24q-68 0 -91 84q-70 219 -264 219q-120 0 -196 -77t-76 -179
t59 -297h240z" />
    <glyph glyph-name="currency" unicode="&#xa4;" horiz-adv-x="1130" 
d="M564 985q-108 1 -183 -75q-76 -76 -76 -184t76 -183q75 -76 183 -76t185 76t76 182q0 106 -76 183q-77 77 -185 77zM801 373q-127 -70 -239 -70t-232 70l-70 -66q-49 -47 -74 -47q-24 0 -56 34t-32 56t47 74l66 70q-70 119 -70 232t70 232l-66 70q-45 57 -47 72
q0 31 62 82q8 8 30 8t70 -45l70 -66q126 70 232 70t172 -35q22 -10 67 -35l69 66q47 45 73 45q25 0 57 -34t32 -55t-47 -73l-65 -70q136 -231 0 -464l65 -70q45 -57 47 -72q0 -31 -61 -82q-15 -10 -33 -10t-68 47z" />
    <glyph glyph-name="yen" unicode="&#xa5;" horiz-adv-x="1130" 
d="M477 326h-313q-35 0 -51 2t-33 17q-16 15 -16 55t24 54q25 14 76 15h313v143h-260q-99 0 -113 2q-40 6 -41 67t43 72q16 3 58 3h239l-335 585q-31 53 -31 82t21 48q22 19 64 19t64 -18q22 -20 50 -71l251 -451q49 -86 76 -153q10 25 84 161l236 441q18 35 28 49t35 28
t59 15q33 0 61 -15q28 -16 28 -46t-33 -89l-334 -585h242q35 0 52 -2t33 -18t15 -59q0 -41 -19 -53t-81 -12h-314v-143h314q49 0 75 -13q26 -12 25 -60t-23 -59t-77 -11h-314v-201q-1 -100 -25 -125t-63 -25t-65 26t-25 124v201z" />
    <glyph glyph-name="brokenbar" unicode="&#xa6;" horiz-adv-x="532" 
d="M346 258v-588q0 -35 -3 -53q-8 -47 -68 -47t-73 20t-14 80v588q0 37 2 54q2 16 18 32t63 16q46 0 61 -21q14 -22 14 -81zM346 1391v-590q0 -35 -3 -53q-8 -46 -68 -47t-73 19t-14 81v590q0 37 2 53t18 32t63 15q47 1 61 -21t14 -79z" />
    <glyph glyph-name="section" unicode="&#xa7;" 
d="M997 -98q1 -150 -117 -242t-266 -92t-243 44q-94 44 -138 106q-79 114 -79 188q0 32 24 58t64 26q61 0 94 -88q23 -59 43 -93q19 -34 73 -65t158 -31q104 -1 159 59q56 60 56 124t-49 109q-49 46 -192 138q-334 211 -385 258q-113 106 -113 238q0 184 229 287
q-139 100 -139 250q0 119 96 217t297 98q101 0 183 -33q132 -53 196 -181q25 -48 25 -84q0 -35 -26 -59t-66 -24t-62 40q-8 15 -20 40q-70 156 -232 156q-111 0 -163 -54t-52 -116t45 -105t239 -161t298 -191q133 -94 133 -250q0 -195 -231 -297q120 -89 146 -169
q15 -46 15 -101zM680 281q213 31 213 155q0 76 -90 158q-59 51 -381 250q-129 -52 -163 -115q-17 -33 -17 -74q0 -76 76 -138t362 -236z" />
    <glyph glyph-name="dieresis" unicode="&#xa8;" horiz-adv-x="681" 
d="M268 1311q0 -41 -28 -69t-68 -28q-41 0 -69 28t-27 69q0 41 28 69t68 27q40 1 68 -27t28 -69zM606 1311q0 -41 -28 -69t-68 -28q-39 0 -68 28t-28 69q0 41 28 69t68 27q40 1 68 -27t28 -69z" />
    <glyph glyph-name="copyright" unicode="&#xa9;" horiz-adv-x="1515" 
d="M570 500q70 -78 190 -78q119 0 191 91q34 42 48 101l123 -36q-33 -135 -133 -205t-229 -70q-176 0 -287 116q-111 117 -111 315t108 312t296 113q123 0 215 -58t127 -177l-119 -29q-65 152 -227 154q-133 -1 -198 -95q-64 -94 -64 -234q0 -142 70 -220zM758 1364
q-260 0 -444 -182t-185 -444q0 -262 183 -446q184 -183 446 -183t445 183t183 445q0 263 -184 445t-444 182zM759 1491q312 0 533 -220q221 -221 221 -533t-221 -534t-534 -222t-535 221q-221 221 -221 534t222 534q223 220 535 220z" />
    <glyph glyph-name="ordfeminine" unicode="&#xaa;" horiz-adv-x="747" 
d="M188 1014q0 -41 31 -69t88 -27q102 0 168 55q51 43 51 172q-68 -21 -162 -35t-134 -34q-42 -20 -42 -62zM662 1217v-199q0 -47 15 -93t15 -66t-20 -36t-47 -16q-55 0 -82 96q-117 -94 -246 -94t-189 56q-60 57 -60 121q-1 101 69 157q62 46 208 66t201 44q-4 62 -19 89
q-15 28 -45 36t-77 8q-152 0 -178 -77q-27 -49 -51 -58l-21 -2q-27 1 -44 17t-17 54t42 83q82 88 268 88t237 -83q27 -44 34 -84t7 -107z" />
    <glyph glyph-name="guillemotleft" unicode="&#xab;" 
d="M981 114q0 -22 -19 -40t-52 -18t-76 67l-203 319q-37 58 -37 76t37 76l205 324q42 63 74 63t52 -18q20 -17 19 -39q0 -22 -29 -72l-200 -334l204 -338q25 -44 25 -66zM543 114q1 -22 -19 -40t-53 -18t-76 67l-202 319q-37 58 -37 76t37 76l204 324q41 63 74 63t52 -18
q19 -17 19 -39t-28 -72l-201 -334l205 -338q25 -44 25 -66z" />
    <glyph glyph-name="logicalnot" unicode="&#xac;" horiz-adv-x="1193" 
d="M915 424v438h-802v168h970v-606h-168z" />
    <glyph glyph-name="registered" unicode="&#xae;" horiz-adv-x="1515" 
d="M426 319v811h281q201 0 273 -60t73 -150q-1 -90 -59 -160t-173 -78q43 -16 82 -55t107 -150l98 -158h-160l-71 127q-76 134 -120 176t-122 42h-78v-345h-131zM557 1020v-244h160q197 0 196 123q0 112 -152 120q-19 1 -54 1h-150zM758 1364q-260 0 -444 -182t-185 -444
q0 -262 183 -446q184 -183 446 -183t445 183t183 445q0 263 -184 445t-444 182zM759 1491q312 0 533 -220q221 -221 221 -533t-221 -534t-534 -222t-535 221q-221 221 -221 534t222 534q223 220 535 220z" />
    <glyph glyph-name="macron" unicode="&#xaf;" horiz-adv-x="681" 
d="M129 1376h424q35 0 52 -2t33 -18t15 -52q0 -66 -43 -74q-16 -3 -57 -3h-424q-35 0 -52 2t-33 18q-15 16 -15 52q0 66 43 74q16 3 57 3z" />
    <glyph glyph-name="degree" unicode="&#xb0;" horiz-adv-x="811" 
d="M238 1214q0 -70 49 -120t119 -50t118 50t49 120q0 70 -49 119q-48 49 -118 49t-119 -49t-49 -119zM406 1491q116 0 196 -81t80 -197q0 -117 -81 -197t-195 -80t-196 80q-81 80 -81 197q0 116 81 197t196 81z" />
    <glyph glyph-name="plusminus" unicode="&#xb1;" horiz-adv-x="1193" 
d="M1083 0h-970v168h970v-168zM514 260v402h-401v167h401v402h168v-402h401v-167h-401v-402h-168z" />
    <glyph glyph-name="twosuperior" unicode="&#xb2;" horiz-adv-x="681" 
d="M274 829h273q100 0 100 -54t-76 -54h-442q-84 0 -84 57q0 86 211 230q158 106 202 148t44 96t-47 87t-109 33q-117 0 -153 -82q-23 -53 -35 -67t-41 -15q-57 0 -58 54q0 72 75 140t210 66q225 0 279 -156q10 -30 10 -67q0 -104 -148 -212q-33 -24 -135 -93t-135 -109
q34 -2 59 -2z" />
    <glyph glyph-name="threesuperior" unicode="&#xb3;" horiz-adv-x="681" 
d="M299 1165q170 0 170 118q0 30 -36 62q-36 31 -90 31t-88 -19t-47 -39q-14 -20 -30 -51q-16 -32 -49 -32t-46 17t-13 34q0 57 69 120q70 62 195 62q126 0 196 -57t70 -143t-98 -142q139 -45 139 -178q0 -96 -76 -168t-217 -71q-184 0 -264 114q-35 49 -35 81q-1 32 17 46
t44 14t36 -10q10 -12 24 -39q43 -111 166 -110q76 0 123 43t47 96t-40 90t-108 37l-77 -4q-20 0 -37 12q-16 12 -17 35q0 51 72 51z" />
    <glyph glyph-name="acute" unicode="&#xb4;" horiz-adv-x="681" 
d="M446 1470h50q61 0 61 -15t-49 -69q-119 -124 -161 -162q-43 -38 -69 -38t-38 12t-12 26t20 52l51 100q35 70 55 82t92 12z" />
    <glyph glyph-name="paragraph" unicode="&#xb6;" horiz-adv-x="1110" 
d="M406 -408v1045q-197 12 -301 128q-103 116 -103 279q0 124 56 226q107 196 417 196h633v-172h-143v-1702h-172v1702h-215v-1702h-172z" />
    <glyph glyph-name="periodcentered" unicode="&#xb7;" horiz-adv-x="491" 
d="M245 834q45 0 79 -34t34 -80t-32 -79t-80 -33q-47 0 -80 33t-33 80t33 80t79 33z" />
    <glyph glyph-name="cedilla" unicode="&#xb8;" horiz-adv-x="681" 
d="M197 -94q0 61 32 92q31 31 65 31q34 -1 45 -15t13 -31t2 -67q158 -18 158 -139q0 -72 -73 -121t-213 -49t-140 53q0 43 72 43q149 0 185 34q19 17 19 48t-29 50q-30 19 -63 20q-73 1 -73 51z" />
    <glyph glyph-name="onesuperior" unicode="&#xb9;" horiz-adv-x="681" 
d="M465 1386v-595q0 -82 -66 -82t-65 92v479q-129 -92 -193 -92q-18 0 -33 13t-16 36q0 33 60 55q121 43 198 138q27 37 56 36q59 0 59 -80z" />
    <glyph glyph-name="ordmasculine" unicode="&#xba;" horiz-adv-x="747" 
d="M565 1149q0 107 -50 169t-141 62q-90 0 -142 -62t-52 -168t51 -168t143 -62t141 62q50 62 50 167zM366 1491q150 0 244 -85t95 -256q-1 -171 -95 -256t-244 -85t-238 93q-87 93 -87 247t88 248q87 94 237 94z" />
    <glyph glyph-name="guillemotright" unicode="&#xbb;" 
d="M172 923q0 22 19 40t53 18t73 -63l205 -324q37 -56 37 -74t-37 -78l-203 -319q-43 -68 -75 -68q-32 1 -52 19t-20 40t25 66l204 338l-200 334q-29 49 -29 71zM610 923q0 22 20 40t52 18q33 0 74 -63l205 -324q37 -56 37 -74t-37 -78l-203 -319q-43 -68 -84 -68
q-25 1 -44 19q-20 18 -20 40t25 66l205 338l-201 334q-29 49 -29 71z" />
    <glyph glyph-name="onequarter" unicode="&#xbc;" horiz-adv-x="1705" 
d="M1434 272v301l-263 -301h263zM1434 170h-301q-84 0 -102 27q-9 14 -9 34t37 64l362 416q41 45 71 45t45 -16t17 -29q2 -14 2 -39v-400h48q84 0 84 -51t-80 -51h-52v-100q0 -82 -61 -82t-61 82v100zM465 1386v-595q0 -82 -66 -82t-65 92v479q-129 -92 -193 -92
q-18 0 -33 13t-16 36q0 33 60 55q121 43 198 138q27 37 56 36q59 0 59 -80zM1348 1489q16 0 31 -16t15 -38t-38 -75l-926 -1368q-32 -45 -58 -45t-42 16q-34 34 6 84l930 1374q41 57 57 66q9 2 25 2z" />
    <glyph glyph-name="onehalf" unicode="&#xbd;" horiz-adv-x="1705" 
d="M1298 109h273q100 -1 100 -55t-76 -54h-442q-84 0 -84 57q0 86 211 230q158 106 202 148t44 96t-47 87t-109 33q-117 0 -153 -82q-23 -53 -35 -67t-41 -15q-57 0 -58 54q0 71 75 139t210 68q225 0 279 -157q10 -30 10 -67q0 -79 -65 -140t-192 -148q-128 -86 -161 -125
q34 -2 59 -2zM465 1386v-595q0 -82 -66 -82t-65 92v479q-129 -92 -193 -92q-18 0 -33 13t-16 36q0 33 60 55q121 43 198 138q27 37 56 36q59 0 59 -80zM1348 1489q16 0 31 -16t15 -38t-38 -75l-926 -1368q-32 -45 -58 -45t-42 16q-34 34 6 84l930 1374q41 57 57 66q9 2 25 2
z" />
    <glyph glyph-name="threequarters" unicode="&#xbe;" horiz-adv-x="1705" 
d="M1434 272v301l-263 -301h263zM1434 170h-301q-84 0 -102 27q-9 14 -9 34t37 64l362 416q41 45 71 45t45 -16t17 -29q2 -14 2 -39v-400h48q84 0 84 -51t-80 -51h-52v-100q0 -82 -61 -82t-61 82v100zM299 1165q170 0 170 118q0 30 -36 62q-36 31 -90 31t-88 -19t-47 -39
q-14 -20 -30 -51q-16 -32 -49 -32t-46 17t-13 34q0 57 69 120q70 62 195 62q126 0 196 -57t70 -143t-98 -142q139 -45 139 -178q0 -96 -76 -168t-217 -71q-184 0 -264 114q-35 49 -35 81q-1 32 17 46t44 14t36 -10q10 -12 24 -39q43 -111 166 -110q76 0 123 43t47 96t-40 90
t-108 37l-77 -4q-20 0 -37 12q-16 12 -17 35q0 51 72 51zM1364 1489q25 0 40 -16t15 -38t-39 -75l-927 -1368q-29 -45 -57 -45t-44 16q-16 17 -16 33t22 51l932 1374q18 27 34 47q15 20 40 21z" />
    <glyph glyph-name="questiondown" unicode="&#xbf;" horiz-adv-x="1087" 
d="M899 43q33 -1 61 -25t29 -64q-1 -40 -25 -97t-73 -125t-147 -115t-222 -47q-210 0 -322 118t-112 273q0 98 47 177t163 190q116 110 142 154t37 149q8 82 84 82q86 0 86 -114q0 -115 -44 -191t-133 -157t-119 -112q-77 -80 -77 -177t74 -169t187 -72q203 0 268 234
q10 27 16 40q7 13 27 31t53 17zM543 860q-47 0 -80 33t-33 80t33 80t80 33t80 -34q33 -32 33 -79t-34 -80q-32 -33 -79 -33z" />
    <glyph glyph-name="Agrave" unicode="&#xc0;" horiz-adv-x="1409" 
d="M428 582h539l-275 686zM39 60q0 30 29 104l464 1153q39 100 68 137t93 37q63 0 93 -33t72 -139l481 -1147q31 -76 31 -108t-29 -60q-29 -29 -65 -29q-63 0 -89 54q-9 18 -30 71l-131 324h-653l-127 -328q-42 -104 -72 -114q-64 -24 -108 20q-28 28 -27 58zM854 1607
q0 -13 -12 -25t-39 -13q-27 0 -73 40q-46 41 -126 127t-80 102t62 15h49q72 0 92 -12t55 -82l52 -100q20 -39 20 -52z" />
    <glyph glyph-name="Aacute" unicode="&#xc1;" horiz-adv-x="1409" 
d="M428 582h539l-275 686zM39 60q0 30 29 104l464 1153q39 100 68 137t93 37q63 0 93 -33t72 -139l481 -1147q31 -76 31 -108t-29 -60q-29 -29 -65 -29q-63 0 -89 54q-9 18 -30 71l-131 324h-653l-127 -328q-42 -104 -72 -114q-64 -24 -108 20q-28 28 -27 58zM811 1853h49
q62 0 62 -15q0 -14 -84 -104t-126 -128t-68 -37q-26 0 -40 12q-12 11 -12 25t20 53l52 100q35 70 55 82t92 12z" />
    <glyph glyph-name="Acircumflex" unicode="&#xc2;" horiz-adv-x="1409" 
d="M428 582h539l-275 686zM39 60q0 30 29 104l464 1153q39 100 68 137t93 37q63 0 93 -33t72 -139l481 -1147q31 -76 31 -108t-29 -60q-29 -29 -65 -29q-63 0 -89 54q-9 18 -30 71l-131 324h-653l-127 -328q-42 -104 -72 -114q-64 -24 -108 20q-28 28 -27 58zM492 1583
q-58 0 -66 4t-8 14t35 52l82 104q59 78 86 95q27 18 86 18t86 -20t84 -93l86 -108q31 -37 31 -51t-54 -15q-52 0 -68 3t-26 12t-45 53l-94 118l-93 -118q-35 -45 -50 -57q-14 -12 -72 -11z" />
    <glyph glyph-name="Atilde" unicode="&#xc3;" horiz-adv-x="1409" 
d="M428 582h539l-275 686zM39 60q0 30 29 104l464 1153q39 100 68 137t93 37q63 0 93 -33t72 -139l481 -1147q31 -76 31 -108t-29 -60q-29 -29 -65 -29q-63 0 -89 54q-9 18 -30 71l-131 324h-653l-127 -328q-42 -104 -72 -114q-64 -24 -108 20q-28 28 -27 58zM456 1602
q-19 0 -37 17q-17 17 -17 61t38 90q78 93 262 6q113 -45 153 -45t58 46t45 46q18 -1 34 -19t18 -56q0 -38 -36 -88t-112 -50q-41 0 -160 43q-102 43 -142 43t-53 -29q-5 -10 -15 -33q-17 -32 -36 -32z" />
    <glyph glyph-name="Adieresis" unicode="&#xc4;" horiz-adv-x="1409" 
d="M428 582h539l-275 686zM39 60q0 30 29 104l464 1153q39 100 68 137t93 37q63 0 93 -33t72 -139l481 -1147q31 -76 31 -108t-29 -60q-29 -29 -65 -29q-63 0 -89 54q-9 18 -30 71l-131 324h-653l-127 -328q-42 -104 -72 -114q-64 -24 -108 20q-28 28 -27 58zM633 1694
q0 -39 -28 -68q-29 -29 -69 -29t-68 29t-28 68q0 40 28 68t69 28t69 -28t27 -68zM971 1694q0 -39 -29 -68t-68 -29q-40 0 -68 29t-28 68q0 40 29 68t67 28t68 -28q29 -28 29 -68z" />
    <glyph glyph-name="Aring" unicode="&#xc5;" horiz-adv-x="1409" 
d="M428 582h539l-275 686zM39 60q0 30 29 104l464 1153q39 100 68 137t93 37q63 0 93 -33t72 -139l481 -1147q31 -76 31 -108t-29 -60q-29 -29 -65 -29q-63 0 -89 54q-9 18 -30 71l-131 324h-653l-127 -328q-42 -104 -72 -114q-64 -24 -108 20q-28 28 -27 58zM813 1726
q0 45 -32 77q-33 32 -77 32t-75 -32t-31 -77q0 -46 32 -76t76 -30t76 30t31 76zM895 1726q0 -78 -55 -133t-134 -55t-135 55q-55 55 -55 134t56 135t134 55t134 -57q55 -56 55 -134z" />
    <glyph glyph-name="AE" unicode="&#xc6;" horiz-adv-x="2048" 
d="M1880 758q0 -78 -95 -78h-609v-522h645q104 0 124 -32q11 -17 11 -46q0 -74 -86 -79q-16 -1 -49 -1h-676q-111 0 -139 27t-27 137v250h-594l-141 -308q-38 -86 -58 -108t-68 -23q-48 0 -70 31q-22 30 -22 56t35 102l562 1186q41 88 63 102q23 14 119 14h993
q101 0 122 -33q11 -17 11 -52t-19 -49q-29 -23 -76 -23h-660v-471h571q100 0 122 -34q11 -17 11 -46zM979 571v742h-182l-340 -742h522z" />
    <glyph glyph-name="Ccedilla" unicode="&#xc7;" horiz-adv-x="1492" 
d="M113 733q0 340 191 549t493 209q149 0 269 -54t182 -130q126 -154 126 -236q0 -33 -20 -59t-50 -27q-30 0 -51 12t-43 46t-39 63q-55 106 -152 166t-197 61q-100 -1 -181 -29q-80 -28 -157 -93t-124 -189t-47 -296q0 -171 46 -295t121 -184q142 -114 308 -114
q313 0 426 322q18 50 40 66q22 17 52 17t56 -22t24 -60q-1 -99 -81 -222q-97 -149 -276 -220q-101 -39 -222 -39l-14 -51q180 -33 180 -157q0 -53 -32 -91t-70 -56q-89 -40 -220 -40t-131 55q0 27 27 36q32 11 171 17q57 3 81 27q25 25 25 55t-30 54t-57 24l-35 -6
q-18 0 -37 18t-19 40q0 20 12 33q13 13 59 47q-258 31 -395 172q-100 100 -155 257q-54 157 -54 324z" />
    <glyph glyph-name="Egrave" unicode="&#xc8;" horiz-adv-x="1300" 
d="M375 1309v-471h626q41 0 63 -2t46 -20t23 -52q0 -60 -44 -75q-31 -9 -88 -9h-626v-522h710q106 0 124 -32q11 -17 11 -51t-24 -52q-24 -19 -46 -21t-65 -2h-743q-70 0 -92 4t-42 24q-21 20 -26 44q-4 25 -4 92v1153q0 84 19 110q4 3 19 21t126 18h715q104 0 124 -31
q11 -17 11 -51t-25 -52t-47 -21q-22 -2 -63 -2h-682zM768 1607q0 -13 -12 -25t-39 -13q-27 0 -73 40q-46 41 -126 127t-80 102t62 15h49q72 0 92 -12t55 -82l52 -100q20 -39 20 -52z" />
    <glyph glyph-name="Eacute" unicode="&#xc9;" horiz-adv-x="1300" 
d="M375 1309v-471h626q41 0 63 -2t46 -20t23 -52q0 -60 -44 -75q-31 -9 -88 -9h-626v-522h710q106 0 124 -32q11 -17 11 -51t-24 -52q-24 -19 -46 -21t-65 -2h-743q-70 0 -92 4t-42 24q-21 20 -26 44q-4 25 -4 92v1153q0 84 19 110q4 3 19 21t126 18h715q104 0 124 -31
q11 -17 11 -51t-25 -52t-47 -21q-22 -2 -63 -2h-682zM756 1853h49q61 0 61 -15t-49 -69q-119 -125 -161 -163t-68 -37q-26 0 -39 12q-12 11 -12 25t20 53l51 100q36 70 56 82t92 12z" />
    <glyph glyph-name="Ecircumflex" unicode="&#xca;" horiz-adv-x="1300" 
d="M375 1309v-471h626q41 0 63 -2t46 -20t23 -52q0 -60 -44 -75q-31 -9 -88 -9h-626v-522h710q106 0 124 -32q11 -17 11 -51t-24 -52q-24 -19 -46 -21t-65 -2h-743q-70 0 -92 4t-42 24q-21 20 -26 44q-4 25 -4 92v1153q0 84 19 110q4 3 19 21t126 18h715q104 0 124 -31
q11 -17 11 -51t-25 -52t-47 -21q-22 -2 -63 -2h-682zM436 1583q-58 0 -65 4q-9 4 -9 14t35 52l82 104q59 78 86 95q27 18 86 18t86 -20t84 -93l86 -108q31 -37 31 -51t-54 -15q-54 0 -68 3q-15 3 -25 12t-46 53l-94 118l-92 -118q-35 -45 -50 -57t-73 -11z" />
    <glyph glyph-name="Edieresis" unicode="&#xcb;" horiz-adv-x="1300" 
d="M375 1309v-471h626q41 0 63 -2t46 -20t23 -52q0 -60 -44 -75q-31 -9 -88 -9h-626v-522h710q106 0 124 -32q11 -17 11 -51t-24 -52q-24 -19 -46 -21t-65 -2h-743q-70 0 -92 4t-42 24q-21 20 -26 44q-4 25 -4 92v1153q0 84 19 110q4 3 19 21t126 18h715q104 0 124 -31
q11 -17 11 -51t-25 -52t-47 -21q-22 -2 -63 -2h-682zM578 1694q0 -39 -29 -68t-68 -29t-67 29t-29 68q0 40 29 68q30 28 68 28t67 -28t29 -68zM915 1694q1 -39 -27 -68t-69 -29t-69 29t-27 68q0 40 28 68q29 28 69 28t68 -28t27 -68z" />
    <glyph glyph-name="Igrave" unicode="&#xcc;" horiz-adv-x="598" 
d="M397 1329v-1192q-1 -106 -29 -134t-70 -28t-70 28t-27 134v1192q1 106 29 134t71 28t70 -31q26 -25 26 -131zM397 1569q-27 0 -73 40q-46 41 -125 127q-80 86 -80 102t61 15h49q73 0 93 -12t55 -82l51 -100q20 -39 20 -52t-12 -25t-39 -13z" />
    <glyph glyph-name="Iacute" unicode="&#xcd;" horiz-adv-x="598" 
d="M397 1329v-1192q-1 -106 -29 -134t-70 -28t-70 28t-27 134v1192q1 106 29 134t71 28t70 -31q26 -25 26 -131zM406 1853h49q61 0 61 -15t-49 -69q-119 -125 -161 -163t-68 -37q-26 0 -39 12q-12 11 -12 25t20 53l51 100q35 70 55 82t93 12z" />
    <glyph glyph-name="Icircumflex" unicode="&#xce;" horiz-adv-x="598" 
d="M397 1329v-1192q-1 -106 -29 -134t-70 -28t-70 28t-27 134v1192q1 106 29 134t71 28t70 -31q26 -25 26 -131zM86 1583q-58 0 -66 4t-8 14t35 52l82 104q59 78 86 95q27 18 86 18t86 -20t84 -93l86 -108q31 -37 31 -51t-54 -15q-76 0 -90 12t-49 56l-94 118l-92 -118
q-35 -45 -50 -57t-73 -11z" />
    <glyph glyph-name="Idieresis" unicode="&#xcf;" horiz-adv-x="598" 
d="M397 1329v-1192q-1 -106 -29 -134t-70 -28t-70 28t-27 134v1192q1 106 29 134t71 28t70 -31q26 -25 26 -131zM227 1694q1 -39 -27 -68t-69 -29t-69 29t-27 68q-1 40 27 68t69 28t69 -28t27 -68zM565 1694q-1 -39 -29 -68t-67 -29t-68 29t-28 68q1 40 29 68t67 28t67 -28
t29 -68z" />
    <glyph glyph-name="Eth" unicode="&#xd0;" horiz-adv-x="1492" 
d="M676 668h-305v-510h303q145 0 231 30t158 115q119 141 119 422t-119 434q-66 84 -153 117t-248 33h-291v-510h305q35 0 51 -2q17 -1 33 -17t16 -47t-16 -46t-32 -17t-52 -2zM174 668h-63q-35 0 -51 2t-33 17q-16 15 -17 46q0 31 16 46t33 17q16 2 52 3h63v504
q0 111 28 137t138 26h356q270 0 401 -86q67 -43 124 -110q162 -195 161 -535q0 -186 -63 -370q-37 -109 -121 -196t-186 -123t-193 -41q-90 -5 -504 -5q-97 0 -119 35t-22 153v480z" />
    <glyph glyph-name="Ntilde" unicode="&#xd1;" horiz-adv-x="1492" 
d="M1222 1491q50 0 78 -27t27 -131v-1159q0 -84 -6 -115t-38 -57t-77 -27q-46 0 -70 23t-73 96l-715 1067l8 -1028q0 -84 -10 -106q-10 -23 -34 -37t-58 -14t-60 26q-28 27 -28 131v1167q0 82 6 110t34 54t73 27q45 0 69 -23t70 -92l727 -1085l-6 1042q-2 82 12 111
q21 47 71 47zM601 1696q-40 0 -53 -28q-4 -10 -18 -38t-33 -28t-37 17t-18 61t39 90q78 93 262 6q113 -45 153 -45t58 46t45 46q19 -1 35 -19t16 -56t-35 -88q-36 -50 -112 -50q-41 0 -160 43q-102 43 -142 43z" />
    <glyph glyph-name="Ograve" unicode="&#xd2;" horiz-adv-x="1599" 
d="M1294 733q0 172 -52 298q-52 125 -134 187q-155 117 -309 115q-195 0 -342 -147q-152 -147 -152 -477q0 -260 142 -418t352 -158q154 0 309 115q82 61 134 187t52 298zM1495 714q0 -124 -39 -254q-91 -305 -332 -419q-137 -66 -309 -66q-172 -1 -300 51t-203 131
q-204 215 -208 576q0 222 90 404q50 102 125 179q76 77 201 126t280 49q156 0 276 -47t197 -122t128 -176t73 -204q22 -104 21 -228zM866 1569q-26 0 -72 40q-46 41 -126 127t-80 102t61 15h49q72 0 92 -12t56 -82l51 -100q21 -39 21 -52t-12 -25t-40 -13z" />
    <glyph glyph-name="Oacute" unicode="&#xd3;" horiz-adv-x="1599" 
d="M1294 733q0 172 -52 298q-52 125 -134 187q-155 117 -309 115q-195 0 -342 -147q-152 -147 -152 -477q0 -260 142 -418t352 -158q154 0 309 115q82 61 134 187t52 298zM1495 714q0 -124 -39 -254q-91 -305 -332 -419q-137 -66 -309 -66q-172 -1 -300 51t-203 131
q-204 215 -208 576q0 222 90 404q50 102 125 179q76 77 201 126t280 49q156 0 276 -47t197 -122t128 -176t73 -204q22 -104 21 -228zM905 1853h49q62 0 62 -15t-49 -69q-119 -125 -161 -163t-68 -37q-26 0 -40 12q-12 11 -12 25t21 53l51 100q35 70 55 82t92 12z" />
    <glyph glyph-name="Ocircumflex" unicode="&#xd4;" horiz-adv-x="1599" 
d="M1294 733q0 172 -52 298q-52 125 -134 187q-155 117 -309 115q-195 0 -342 -147q-152 -147 -152 -477q0 -260 142 -418t352 -158q154 0 309 115q82 61 134 187t52 298zM1495 714q0 -124 -39 -254q-91 -305 -332 -419q-137 -66 -309 -66q-172 -1 -300 51t-203 131
q-204 215 -208 576q0 222 90 404q50 102 125 179q76 77 201 126t280 49q156 0 276 -47t197 -122t128 -176t73 -204q22 -104 21 -228zM586 1583q-58 0 -66 4t-8 14t35 52l82 104q59 78 86 95q27 18 86 18t86 -20t84 -93l86 -108q31 -37 31 -51t-54 -15q-76 0 -90 12t-49 56
l-94 118l-92 -118q-35 -45 -51 -57q-14 -12 -72 -11z" />
    <glyph glyph-name="Otilde" unicode="&#xd5;" horiz-adv-x="1599" 
d="M1294 733q0 172 -52 298q-52 125 -134 187q-155 117 -309 115q-195 0 -342 -147q-152 -147 -152 -477q0 -260 142 -418t352 -158q154 0 309 115q82 61 134 187t52 298zM1495 714q0 -124 -39 -254q-91 -305 -332 -419q-137 -66 -309 -66q-172 -1 -300 51t-203 131
q-204 215 -208 576q0 222 90 404q50 102 125 179q76 77 201 126t280 49q156 0 276 -47t197 -122t128 -176t73 -204q22 -104 21 -228zM550 1602q-19 0 -37 17q-17 17 -17 61t39 90q78 92 262 6q113 -45 153 -45t58 45q18 47 45 47q18 -1 34 -19q17 -18 17 -56t-36 -88
t-112 -50q-41 0 -159 43q-102 43 -142 43t-54 -29q-5 -10 -15 -33q-17 -32 -36 -32z" />
    <glyph glyph-name="Odieresis" unicode="&#xd6;" horiz-adv-x="1599" 
d="M1294 733q0 172 -52 298q-52 125 -134 187q-155 117 -309 115q-195 0 -342 -147q-152 -147 -152 -477q0 -260 142 -418t352 -158q154 0 309 115q82 61 134 187t52 298zM1495 714q0 -124 -39 -254q-91 -305 -332 -419q-137 -66 -309 -66q-172 -1 -300 51t-203 131
q-204 215 -208 576q0 222 90 404q50 102 125 179q76 77 201 126t280 49q156 0 276 -47t197 -122t128 -176t73 -204q22 -104 21 -228zM727 1694q0 -39 -28 -68q-29 -29 -69 -29t-68 29t-27 68q-1 40 27 68t69 28t69 -28t27 -68zM1065 1694q0 -39 -29 -68q-30 -29 -68 -29
t-67 29t-29 68q0 40 29 68t68 28t67 -28t29 -68z" />
    <glyph glyph-name="multiply" unicode="&#xd7;" horiz-adv-x="1193" 
d="M162 410l315 313l-315 315l123 123l313 -315l313 313l121 -121l-313 -313l313 -313l-121 -123l-315 315l-315 -315z" />
    <glyph glyph-name="Oslash" unicode="&#xd8;" horiz-adv-x="1599" 
d="M799 133q128 0 245 70q70 41 124 104t90 174t36 252q0 216 -82 359l-749 -820q141 -139 336 -139zM797 1333q-131 0 -249 -72q-243 -149 -243 -563q0 -168 82 -325l748 819q-141 141 -338 141zM104 733q0 221 90 405q50 103 125 179q76 76 201 125t283 49q289 0 459 -160
l96 107q36 36 51 45q14 8 33 8t36 -17t17 -41t-29 -63l-120 -131q59 -80 104 -213t45 -263q0 -131 -19 -231q-20 -100 -70 -202t-126 -179t-199 -126t-276 -50q-297 0 -469 158l-96 -106q-29 -33 -42 -42t-39 -9t-40 18q-36 51 14 100l121 133q-150 215 -150 506z" />
    <glyph glyph-name="Ugrave" unicode="&#xd9;" horiz-adv-x="1492" 
d="M362 1327v-778q0 -141 22 -195q46 -116 129 -168q83 -51 209 -52q220 -2 312 95q96 101 96 318v780q0 106 29 135t72 29t69 -31q27 -27 27 -133v-762q0 -590 -563 -590q-302 1 -450 137t-148 451v764q0 106 29 135t71 29t68 -29q28 -29 28 -135zM864 1607q0 -13 -12 -25
t-39 -13q-27 0 -73 40q-46 41 -126 127t-79 102q0 16 61 15h49q72 0 92 -12t56 -82l51 -100q20 -39 20 -52z" />
    <glyph glyph-name="Uacute" unicode="&#xda;" horiz-adv-x="1492" 
d="M362 1327v-778q0 -141 22 -195q46 -116 129 -168q83 -51 209 -52q220 -2 312 95q96 101 96 318v780q0 106 29 135t72 29t69 -31q27 -27 27 -133v-762q0 -590 -563 -590q-302 1 -450 137t-148 451v764q0 106 29 135t71 29t68 -29q28 -29 28 -135zM852 1853h49q61 0 61 -15
q0 -14 -84 -104t-126 -128t-68 -37q-26 0 -39 12q-12 11 -12 25t20 53l52 100q35 70 55 82t92 12z" />
    <glyph glyph-name="Ucircumflex" unicode="&#xdb;" horiz-adv-x="1492" 
d="M362 1327v-778q0 -141 22 -195q46 -116 129 -168q83 -51 209 -52q220 -2 312 95q96 101 96 318v780q0 106 29 135t72 29t69 -31q27 -27 27 -133v-762q0 -590 -563 -590q-302 1 -450 137t-148 451v764q0 106 29 135t71 29t68 -29q28 -29 28 -135zM532 1583q-58 0 -65 4
q-8 4 -8 14t35 52l81 104q59 78 87 95q28 18 86 18q59 0 86 -20t84 -93l86 -108q30 -37 30 -51t-54 -15q-54 0 -68 3q-15 3 -25 12t-45 53l-94 118l-93 -118q-35 -45 -50 -57t-73 -11z" />
    <glyph glyph-name="Udieresis" unicode="&#xdc;" horiz-adv-x="1492" 
d="M362 1327v-778q0 -141 22 -195q46 -116 129 -168q83 -51 209 -52q220 -2 312 95q96 101 96 318v780q0 106 29 135t72 29t69 -31q27 -27 27 -133v-762q0 -590 -563 -590q-302 1 -450 137t-148 451v764q0 106 29 135t71 29t68 -29q28 -29 28 -135zM674 1694q0 -39 -28 -68
t-68 -29t-69 29q-28 29 -28 68q0 40 28 68t69 28q40 0 68 -28t28 -68zM1012 1694q0 -39 -29 -68t-68 -29t-67 29t-29 68q0 40 29 68q30 28 68 28t67 -28t29 -68z" />
    <glyph glyph-name="Yacute" unicode="&#xdd;" horiz-adv-x="1259" 
d="M49 1403q0 33 26 61q25 28 65 27q40 1 60 -19t62 -90l367 -579l377 586q43 68 61 85t54 17t63 -25q26 -26 26 -60t-51 -112l-438 -665v-492q0 -109 -29 -133q-28 -29 -68 -29t-70 27t-30 135v492l-422 655q-53 86 -53 119zM735 1853h49q62 0 62 -15t-49 -69
q-119 -125 -161 -163t-68 -37q-26 0 -40 12q-12 11 -12 25t21 53l51 100q35 70 55 82t92 12z" />
    <glyph glyph-name="Thorn" unicode="&#xde;" horiz-adv-x="1300" 
d="M657 1008h-282v-549h282q350 0 351 276q0 121 -73 197t-278 76zM375 301v-164q0 -124 -39 -148q-20 -13 -61 -13t-69 27q-28 28 -28 134v1190q0 109 28 137t70 27q42 0 71 -28q28 -28 28 -134v-164h336q229 0 342 -86q156 -117 155 -340q0 -113 -50 -216t-164 -163
t-285 -59h-334z" />
    <glyph glyph-name="germandbls" unicode="&#xdf;" horiz-adv-x="1087" 
d="M287 1044v-923q0 -94 -26 -120q-27 -26 -65 -26t-63 25t-24 121v938q0 190 77 289q113 143 328 143q176 0 264 -84q88 -85 88 -185t-84 -234t-84 -179q0 -74 123 -169t166 -177t43 -162q0 -135 -93 -230t-227 -95t-220 69q-87 70 -87 129q1 22 21 48t56 26t73 -45
q65 -84 137 -84t120 51t48 118t-47 124q-47 56 -137 126t-127 121t-37 117t89 212t89 218t-55 107t-117 35t-106 -20q-75 -34 -99 -107q-24 -74 -24 -177z" />
    <glyph glyph-name="agrave" unicode="&#xe0;" 
d="M268 280q0 -56 51 -110q51 -55 149 -55t188 40q92 41 136 115t44 283q-62 -25 -118 -37t-162 -32t-150 -33q-138 -41 -138 -171zM1055 47q0 -29 -26 -51q-25 -22 -59 -21q-34 0 -59 31t-36 62t-25 82q-180 -174 -420 -175q-166 1 -255 91t-89 213q0 183 174 262
q55 25 120 39t217 43q151 28 237 57q-6 176 -61 225t-181 49q-240 0 -299 -147q-21 -54 -41 -70t-50 -16t-60 27t-8 103q9 32 40 74q31 43 78 77t133 59t200 25q215 -1 322 -82q45 -36 69 -98t30 -118t6 -141l-6 -334q0 -100 28 -176q0 -2 10 -32q10 -29 11 -58zM694 1224
q0 -14 -12 -26t-39 -12t-73 40t-126 126t-79 102q0 16 61 16h49q72 0 92 -12t56 -82l51 -100q20 -39 20 -52z" />
    <glyph glyph-name="aacute" unicode="&#xe1;" 
d="M268 280q0 -56 51 -110q51 -55 149 -55t188 40q92 41 136 115t44 283q-62 -25 -118 -37t-162 -32t-150 -33q-138 -41 -138 -171zM1055 47q0 -29 -26 -51q-25 -22 -59 -21q-34 0 -59 31t-36 62t-25 82q-180 -174 -420 -175q-166 1 -255 91t-89 213q0 183 174 262
q55 25 120 39t217 43q151 28 237 57q-6 176 -61 225t-181 49q-240 0 -299 -147q-21 -54 -41 -70t-50 -16t-60 27t-8 103q9 32 40 74q31 43 78 77t133 59t200 25q215 -1 322 -82q45 -36 69 -98t30 -118t6 -141l-6 -334q0 -100 28 -176q0 -2 10 -32q10 -29 11 -58zM682 1470
h49q61 0 61 -15t-84 -105t-126 -126q-42 -38 -68 -38t-39 12q-12 12 -12 26t20 52l52 100q35 70 55 82t92 12z" />
    <glyph glyph-name="acircumflex" unicode="&#xe2;" 
d="M268 280q0 -56 51 -110q51 -55 149 -55t188 40q92 41 136 115t44 283q-62 -25 -118 -37t-162 -32t-150 -33q-138 -41 -138 -171zM1055 47q0 -29 -26 -51q-25 -22 -59 -21q-34 0 -59 31t-36 62t-25 82q-180 -174 -420 -175q-166 1 -255 91t-89 213q0 183 174 262
q55 25 120 39t217 43q151 28 237 57q-6 176 -61 225t-181 49q-240 0 -299 -147q-21 -54 -41 -70t-50 -16t-60 27t-8 103q9 32 40 74q31 43 78 77t133 59t200 25q215 -1 322 -82q45 -36 69 -98t30 -118t6 -141l-6 -334q0 -100 28 -176q0 -2 10 -32q10 -29 11 -58zM362 1200
q-58 0 -65 4q-8 4 -8 14t35 52l82 104q59 78 86 95t86 17t86 -18q27 -20 84 -94l86 -108q31 -37 30 -49q0 -16 -33 -17q-74 0 -89 3t-25 12t-45 53l-94 118l-93 -118q-35 -44 -50 -56t-73 -12z" />
    <glyph glyph-name="atilde" unicode="&#xe3;" 
d="M268 280q0 -56 51 -110q51 -55 149 -55t188 40q92 41 136 115t44 283q-62 -25 -118 -37t-162 -32t-150 -33q-138 -41 -138 -171zM1055 47q0 -29 -26 -51q-25 -22 -59 -21q-34 0 -59 31t-36 62t-25 82q-180 -174 -420 -175q-166 1 -255 91t-89 213q0 183 174 262
q55 25 120 39t217 43q151 28 237 57q-6 176 -61 225t-181 49q-240 0 -299 -147q-21 -54 -41 -70t-50 -16t-60 27t-8 103q9 32 40 74q31 43 78 77t133 59t200 25q215 -1 322 -82q45 -36 69 -98t30 -118t6 -141l-6 -334q0 -100 28 -176q0 -2 10 -32q10 -29 11 -58zM431 1313
q-40 -1 -53 -29q-4 -10 -18 -38t-33 -27q-19 0 -37 17t-18 61q0 45 39 91t107 46t155 -41q113 -45 153 -45t58 46t45 46q19 0 35 -18t16 -57q0 -38 -35 -88q-36 -50 -112 -50q-41 0 -160 43q-102 43 -142 43z" />
    <glyph glyph-name="adieresis" unicode="&#xe4;" 
d="M268 280q0 -56 51 -110q51 -55 149 -55t188 40q92 41 136 115t44 283q-62 -25 -118 -37t-162 -32t-150 -33q-138 -41 -138 -171zM1055 47q0 -29 -26 -51q-25 -22 -59 -21q-34 0 -59 31t-36 62t-25 82q-180 -174 -420 -175q-166 1 -255 91t-89 213q0 183 174 262
q55 25 120 39t217 43q151 28 237 57q-6 176 -61 225t-181 49q-240 0 -299 -147q-21 -54 -41 -70t-50 -16t-60 27t-8 103q9 32 40 74q31 43 78 77t133 59t200 25q215 -1 322 -82q45 -36 69 -98t30 -118t6 -141l-6 -334q0 -100 28 -176q0 -2 10 -32q10 -29 11 -58zM504 1311
q0 -41 -29 -69t-67 -28t-68 28q-29 28 -29 69t29 69t68 27q40 1 68 -27t28 -69zM842 1311q0 -41 -28 -69t-69 -28t-69 28t-27 69q0 41 28 69q29 28 69 27q40 1 68 -27t28 -69z" />
    <glyph glyph-name="aring" unicode="&#xe5;" 
d="M268 280q0 -56 51 -110q51 -55 149 -55t188 40q92 41 136 115t44 283q-62 -25 -118 -37t-162 -32t-150 -33q-138 -41 -138 -171zM1055 47q0 -29 -26 -51q-25 -22 -59 -21q-34 0 -59 31t-36 62t-25 82q-180 -174 -420 -175q-166 1 -255 91t-89 213q0 183 174 262
q55 25 120 39t217 43q151 28 237 57q-6 176 -61 225t-181 49q-240 0 -299 -147q-21 -54 -41 -70t-50 -16t-60 27t-8 103q9 32 40 74q31 43 78 77t133 59t200 25q215 -1 322 -82q45 -36 69 -98t30 -118t6 -141l-6 -334q0 -100 28 -176q0 -2 10 -32q10 -29 11 -58zM684 1343
q0 45 -32 77t-77 32t-75 -32t-31 -77q0 -45 32 -75q31 -30 75 -31q44 1 76 31t32 75zM766 1343q0 -78 -55 -133t-135 -55t-134 55q-55 55 -55 134q0 78 56 134q57 56 135 56t133 -56t55 -135z" />
    <glyph glyph-name="ae" unicode="&#xe6;" horiz-adv-x="1835" 
d="M803 416v127q-131 -35 -301 -66q-238 -37 -238 -192q0 -66 54 -123q54 -58 186 -58t229 103q70 70 70 209zM1276 950q-129 0 -211 -89t-90 -245h596q-2 104 -37 178t-86 104q-88 52 -172 52zM578 950q-225 0 -283 -155q-30 -86 -92 -86q-37 1 -59 25t-21 54q0 100 84 183
q123 115 360 114q192 0 267 -54q39 -28 54 -44t36 -47q139 145 342 145q123 0 218 -46q95 -45 150 -117q111 -144 111 -312q0 -94 -67 -107q-36 -7 -97 -7h-606q4 -172 79 -281t230 -109t224 80q34 39 50 66q15 27 31 67q23 47 59 47q80 1 78 -71q0 -104 -118 -212
t-316 -108q-251 0 -371 148q-13 16 -34 45q-217 -193 -455 -193q-176 -1 -261 91t-85 195t47 172t119 99t230 59q158 28 321 75v28q-2 90 -5 117t-18 49q-53 90 -202 90z" />
    <glyph glyph-name="ccedilla" unicode="&#xe7;" 
d="M494 -401q-120 0 -121 53q0 18 16 32t43 13q118 0 150 9q77 22 75 77q0 20 -20 42t-45 28l-66 -3q-12 0 -29 16t-17 38t9 36q10 14 48 40q-160 18 -243 76t-132 147q-76 135 -76 333t101 361q53 86 157 137t248 51q274 0 407 -202q37 -53 37 -93t-24 -62t-62 -22
q-37 0 -80 72q-98 168 -276 168q-150 0 -240 -110t-90 -304q0 -192 87 -305t239 -112q186 0 272 151q29 58 53 94q29 33 60 33q31 1 57 -23t25 -53t-13 -65q-32 -91 -125 -172q-49 -41 -129 -71t-178 -34l-8 -47q84 -6 125 -30q63 -39 63 -125t-88 -130q-90 -44 -210 -44z
" />
    <glyph glyph-name="egrave" unicode="&#xe8;" 
d="M582 954q-172 0 -258 -159q-36 -64 -50 -177h611q-8 123 -54 201q-77 135 -249 135zM909 496h-637q4 -199 98 -294t234 -96q82 0 144 32t88 64t64 90t73 58t54 -20q43 -46 -15 -142q-129 -213 -416 -213q-250 0 -378 155q-128 154 -128 400t128 401t374 154
q119 0 210 -41t139 -98t87 -148t39 -179q0 -89 -54 -109q-39 -14 -104 -14zM694 1224q0 -14 -12 -26t-39 -12t-73 40t-126 126t-79 102q0 16 61 16h49q72 0 92 -12t56 -82l51 -100q20 -39 20 -52z" />
    <glyph glyph-name="eacute" unicode="&#xe9;" 
d="M582 954q-172 0 -258 -159q-36 -64 -50 -177h611q-8 123 -54 201q-77 135 -249 135zM909 496h-637q4 -199 98 -294t234 -96q82 0 144 32t88 64t64 90t73 58t54 -20q43 -46 -15 -142q-129 -213 -416 -213q-250 0 -378 155q-128 154 -128 400t128 401t374 154
q119 0 210 -41t139 -98t87 -148t39 -179q0 -89 -54 -109q-39 -14 -104 -14zM682 1470h49q61 0 61 -15t-84 -105t-126 -126q-42 -38 -68 -38t-39 12q-12 12 -12 26t20 52l52 100q35 70 55 82t92 12z" />
    <glyph glyph-name="ecircumflex" unicode="&#xea;" 
d="M582 954q-172 0 -258 -159q-36 -64 -50 -177h611q-8 123 -54 201q-77 135 -249 135zM909 496h-637q4 -199 98 -294t234 -96q82 0 144 32t88 64t64 90t73 58t54 -20q43 -46 -15 -142q-129 -213 -416 -213q-250 0 -378 155q-128 154 -128 400t128 401t374 154
q119 0 210 -41t139 -98t87 -148t39 -179q0 -89 -54 -109q-39 -14 -104 -14zM362 1200q-58 0 -65 4q-8 4 -8 14t35 52l82 104q59 78 86 95t86 17t86 -18q27 -20 84 -94l86 -108q31 -37 30 -49q0 -16 -33 -17q-74 0 -89 3t-25 12t-45 53l-94 118l-93 -118q-35 -44 -50 -56
t-73 -12z" />
    <glyph glyph-name="edieresis" unicode="&#xeb;" 
d="M582 954q-172 0 -258 -159q-36 -64 -50 -177h611q-8 123 -54 201q-77 135 -249 135zM909 496h-637q4 -199 98 -294t234 -96q82 0 144 32t88 64t64 90t73 58t54 -20q43 -46 -15 -142q-129 -213 -416 -213q-250 0 -378 155q-128 154 -128 400t128 401t374 154
q119 0 210 -41t139 -98t87 -148t39 -179q0 -89 -54 -109q-39 -14 -104 -14zM504 1311q0 -41 -29 -69t-67 -28t-68 28q-29 28 -29 69t29 69t68 27q40 1 68 -27t28 -69zM842 1311q0 -41 -28 -69t-69 -28t-69 28t-27 69q0 41 28 69q29 28 69 27q40 1 68 -27t28 -69z" />
    <glyph glyph-name="igrave" unicode="&#xec;" horiz-adv-x="491" 
d="M336 940v-819q0 -70 -8 -88q-18 -57 -82 -58q-41 0 -63 26q-23 25 -25 51t-2 69v819q0 92 24 119q27 27 74 27t70 -42q12 -22 12 -104zM313 1186q-27 0 -73 40t-125 126q-80 86 -80 102t61 16h49q73 0 93 -12t55 -82l51 -100q20 -39 20 -52q0 -14 -12 -26t-39 -12z" />
    <glyph glyph-name="iacute" unicode="&#xed;" horiz-adv-x="491" 
d="M336 940v-819q0 -70 -8 -88q-18 -57 -82 -58q-41 0 -63 26q-23 25 -25 51t-2 69v819q0 92 24 119q27 27 74 27t70 -42q12 -22 12 -104zM352 1470h49q61 0 61 -15t-48 -69q-119 -124 -161 -162q-43 -38 -69 -38t-39 12q-11 12 -11 26t20 52l51 100q35 70 55 82t92 12z" />
    <glyph glyph-name="icircumflex" unicode="&#xee;" horiz-adv-x="491" 
d="M336 940v-819q0 -70 -8 -88q-18 -57 -82 -58q-41 0 -63 26q-23 25 -25 51t-2 69v819q0 92 24 119q27 27 74 27t70 -42q12 -22 12 -104zM32 1200q-58 0 -65 4q-8 4 -8 14t35 52l82 104q59 78 86 95t86 17t86 -18q27 -20 84 -94l86 -108q31 -37 31 -51q1 -15 -53 -15
q-76 -1 -91 12q-14 12 -49 56l-94 118l-92 -118q-34 -44 -50 -56t-74 -12z" />
    <glyph glyph-name="idieresis" unicode="&#xef;" horiz-adv-x="491" 
d="M336 940v-819q0 -70 -8 -88q-18 -57 -82 -58q-41 0 -63 26q-23 25 -25 51t-2 69v819q0 92 24 119q27 27 74 27t70 -42q12 -22 12 -104zM174 1311q0 -41 -28 -69t-68 -28t-69 28q-28 28 -27 69q0 41 28 69t68 27q40 1 68 -27t28 -69zM512 1311q0 -41 -29 -69t-67 -28
t-68 28q-29 28 -29 69t29 69t68 27q40 1 68 -27t28 -69z" />
    <glyph glyph-name="eth" unicode="&#xf0;" horiz-adv-x="1130" 
d="M874 522q0 117 -31 200q-32 83 -83 123q-95 75 -203 77q-143 0 -222 -110t-79 -304q0 -106 28 -185t64 -117t92 -64q55 -27 114 -27q112 0 206 76q51 42 83 128q31 86 31 203zM401 1431q0 60 70 60q31 0 84 -41l94 -86l123 57q50 25 66 25t34 -14t19 -44t-30 -47
q-11 -6 -42 -20l-82 -39q319 -369 320 -762q0 -246 -135 -396q-136 -150 -352 -149q-216 0 -356 136t-140 405q0 341 213 475q109 70 226 70t224 -57q-72 131 -141 213l-184 -87q-42 -20 -62 -20t-39 14q-18 14 -18 34t4 28q9 22 70 47l147 67q-20 20 -82 72q-31 29 -31 59z
" />
    <glyph glyph-name="ntilde" unicode="&#xf1;" horiz-adv-x="1173" 
d="M1030 678v-557q0 -98 -26 -122t-63 -24t-63 24t-26 122v506q0 143 -33 200q-59 102 -186 103q-78 0 -148 -40q-69 -40 -101 -98t-43 -119q-11 -60 -11 -214v-338q0 -96 -28 -121t-62 -25t-62 24q-27 24 -26 122v823q0 94 22 117q29 25 73 25t60 -39q18 -33 19 -144
q39 51 70 83q32 32 105 66t161 33q184 0 299 -131q69 -79 69 -276zM337 1219q-19 0 -37 17q-17 17 -17 61q0 45 39 91q38 46 106 46t156 -41q112 -45 152 -45t59 45q18 47 45 47q18 0 34 -18t16 -57q0 -38 -35 -88q-36 -50 -112 -50q-41 0 -159 43q-102 43 -141 43t-55 -29
q-5 -10 -15 -33q-17 -32 -36 -32z" />
    <glyph glyph-name="ograve" unicode="&#xf2;" horiz-adv-x="1173" 
d="M268 529q0 -191 85 -303t235 -112t232 114q82 112 83 306q0 194 -85 303q-84 109 -232 109t-233 -112t-85 -305zM1085 530q0 -276 -141 -415q-142 -139 -370 -139t-358 152q-130 153 -130 382q0 276 132 426t358 150t368 -140q141 -140 141 -416zM653 1186q-27 0 -73 40
t-125 126q-80 86 -80 102t61 16h49q73 0 93 -12t55 -82l51 -100q20 -39 20 -52q0 -14 -12 -26t-39 -12z" />
    <glyph glyph-name="oacute" unicode="&#xf3;" horiz-adv-x="1173" 
d="M268 529q0 -191 85 -303t235 -112t232 114q82 112 83 306q0 194 -85 303q-84 109 -232 109t-233 -112t-85 -305zM1085 530q0 -276 -141 -415q-142 -139 -370 -139t-358 152q-130 153 -130 382q0 276 132 426t358 150t368 -140q141 -140 141 -416zM692 1470h49
q61 0 61 -15t-48 -69q-119 -124 -161 -162q-43 -38 -69 -38t-39 12q-11 12 -11 26t20 52l51 100q35 70 55 82t92 12z" />
    <glyph glyph-name="ocircumflex" unicode="&#xf4;" horiz-adv-x="1173" 
d="M268 529q0 -191 85 -303t235 -112t232 114q82 112 83 306q0 194 -85 303q-84 109 -232 109t-233 -112t-85 -305zM1085 530q0 -276 -141 -415q-142 -139 -370 -139t-358 152q-130 153 -130 382q0 276 132 426t358 150t368 -140q141 -140 141 -416zM372 1200q-58 0 -65 4
q-8 4 -8 14t35 52l82 104q59 78 86 95t86 17t86 -18q27 -20 84 -94l86 -108q31 -37 30 -49q0 -16 -32 -17q-74 0 -89 3t-26 12q-10 9 -45 53l-94 118l-92 -118q-34 -44 -50 -56t-74 -12z" />
    <glyph glyph-name="otilde" unicode="&#xf5;" horiz-adv-x="1173" 
d="M268 529q0 -191 85 -303t235 -112t232 114q82 112 83 306q0 194 -85 303q-84 109 -232 109t-233 -112t-85 -305zM1085 530q0 -276 -141 -415q-142 -139 -370 -139t-358 152q-130 153 -130 382q0 276 132 426t358 150t368 -140q141 -140 141 -416zM337 1219q-19 0 -37 17
q-17 17 -17 61q0 45 39 91q38 46 106 46t156 -41q112 -45 152 -45t59 45q18 47 45 47q18 0 34 -18t16 -57q0 -38 -35 -88q-36 -50 -112 -50q-41 0 -159 43q-102 43 -141 43t-55 -29q-5 -10 -15 -33q-17 -32 -36 -32z" />
    <glyph glyph-name="odieresis" unicode="&#xf6;" horiz-adv-x="1173" 
d="M268 529q0 -191 85 -303t235 -112t232 114q82 112 83 306q0 194 -85 303q-84 109 -232 109t-233 -112t-85 -305zM1085 530q0 -276 -141 -415q-142 -139 -370 -139t-358 152q-130 153 -130 382q0 276 132 426t358 150t368 -140q141 -140 141 -416zM514 1311q0 -41 -28 -69
t-68 -28t-69 28q-28 28 -27 69q0 41 28 69t68 27q40 1 68 -27t28 -69zM852 1311q0 -41 -29 -69t-67 -28t-68 28q-29 28 -29 69t29 69t68 27q40 1 68 -27t28 -69z" />
    <glyph glyph-name="divide" unicode="&#xf7;" horiz-adv-x="1193" 
d="M494 319v205h206v-205h-206zM1083 639h-970v168h970v-168zM494 922v204h206v-204h-206z" />
    <glyph glyph-name="oslash" unicode="&#xf8;" horiz-adv-x="1173" 
d="M594 115q141 -1 225 111t84 304q0 122 -39 226l-489 -555q78 -86 219 -86zM576 946q-137 0 -222 -112q-84 -113 -84 -304q0 -125 39 -223l490 553q-86 86 -223 86zM148 -25q-26 -1 -44 19t-18 42t35 60l63 72q-96 137 -96 352q0 301 160 447q128 119 328 119t331 -105
l56 66q31 39 59 39t46 -19q17 -18 17 -41t-32 -59l-64 -72q35 -49 66 -147t31 -229t-43 -243q-41 -112 -113 -176q-142 -125 -338 -125q-195 1 -326 105l-57 -64q-35 -41 -61 -41z" />
    <glyph glyph-name="ugrave" unicode="&#xf9;" horiz-adv-x="1173" 
d="M141 373v565q0 98 26 123q27 25 63 25t65 -25q25 -25 24 -123v-496q0 -147 35 -204q66 -106 189 -107q78 0 159 47t119 155q23 69 23 273v332q0 98 28 123t61 25q34 0 64 -25q25 -25 25 -123v-821q0 -94 -25 -118t-71 -24t-60 36q-16 36 -16 149q-106 -135 -216 -167
q-157 -46 -312 21q-181 78 -181 359zM653 1186q-27 0 -73 40t-125 126q-80 86 -80 102t61 16h49q73 0 93 -12t55 -82l51 -100q20 -39 20 -52q0 -14 -12 -26t-39 -12z" />
    <glyph glyph-name="uacute" unicode="&#xfa;" horiz-adv-x="1173" 
d="M141 373v565q0 98 26 123q27 25 63 25t65 -25q25 -25 24 -123v-496q0 -147 35 -204q66 -106 189 -107q78 0 159 47t119 155q23 69 23 273v332q0 98 28 123t61 25q34 0 64 -25q25 -25 25 -123v-821q0 -94 -25 -118t-71 -24t-60 36q-16 36 -16 149q-106 -135 -216 -167
q-157 -46 -312 21q-181 78 -181 359zM692 1470h49q61 0 61 -15t-48 -69q-119 -124 -161 -162q-43 -38 -69 -38t-39 12q-11 12 -11 26t20 52l51 100q35 70 55 82t92 12z" />
    <glyph glyph-name="ucircumflex" unicode="&#xfb;" horiz-adv-x="1173" 
d="M141 373v565q0 98 26 123q27 25 63 25t65 -25q25 -25 24 -123v-496q0 -147 35 -204q66 -106 189 -107q78 0 159 47t119 155q23 69 23 273v332q0 98 28 123t61 25q34 0 64 -25q25 -25 25 -123v-821q0 -94 -25 -118t-71 -24t-60 36q-16 36 -16 149q-106 -135 -216 -167
q-157 -46 -312 21q-181 78 -181 359zM372 1200q-58 0 -65 4q-8 4 -8 14t35 52l82 104q59 78 86 95t86 17t86 -18q27 -20 84 -94l86 -108q31 -37 30 -49q0 -16 -32 -17q-74 0 -89 3t-26 12q-10 9 -45 53l-94 118l-92 -118q-34 -44 -50 -56t-74 -12z" />
    <glyph glyph-name="udieresis" unicode="&#xfc;" horiz-adv-x="1173" 
d="M141 373v565q0 98 26 123q27 25 63 25t65 -25q25 -25 24 -123v-496q0 -147 35 -204q66 -106 189 -107q78 0 159 47t119 155q23 69 23 273v332q0 98 28 123t61 25q34 0 64 -25q25 -25 25 -123v-821q0 -94 -25 -118t-71 -24t-60 36q-16 36 -16 149q-106 -135 -216 -167
q-157 -46 -312 21q-181 78 -181 359zM514 1311q0 -41 -28 -69t-68 -28t-69 28q-28 28 -27 69q0 41 28 69t68 27q40 1 68 -27t28 -69zM852 1311q0 -41 -29 -69t-67 -28t-68 28q-29 28 -29 69t29 69t68 27q40 1 68 -27t28 -69z" />
    <glyph glyph-name="yacute" unicode="&#xfd;" horiz-adv-x="1044" 
d="M45 1008q0 26 26 52q27 26 65 26t57 -25q18 -25 38 -80l291 -793l301 783q29 74 45 94t54 20q38 -1 58 -25q22 -24 22 -48t-25 -88l-426 -1092q-57 -146 -123 -204t-188 -58q-172 0 -172 92q0 28 18 50t51 22l90 -6q57 0 89 34t59 97l55 141l-362 920q-23 61 -23 88z
M629 1470h49q61 0 61 -15t-49 -69q-119 -124 -161 -162t-68 -38t-39 12q-12 12 -12 26t20 52l51 100q35 70 55 82t93 12z" />
    <glyph glyph-name="thorn" unicode="&#xfe;" horiz-adv-x="1259" 
d="M330 -281q0 -97 -26 -123t-64 -26t-64 29q-25 23 -24 120v1622q0 98 26 124t63 26t63 -26t26 -124v-391q38 41 66 64q28 24 89 48t138 23q217 1 333 -155t117 -408q0 -252 -138 -398q-138 -148 -323 -149q-72 0 -131 25q-59 26 -85 48t-66 63v-392zM311 526
q0 -186 66 -286q84 -125 215 -125t215 104q84 105 84 317t-85 311t-206 99t-205 -117t-84 -303z" />
    <glyph glyph-name="ydieresis" unicode="&#xff;" horiz-adv-x="1044" 
d="M45 1008q0 26 26 52q27 26 65 26t57 -25q18 -25 38 -80l291 -793l301 783q29 74 45 94t54 20q38 -1 58 -25q22 -24 22 -48t-25 -88l-426 -1092q-57 -146 -123 -204t-188 -58q-172 0 -172 92q0 28 18 50t51 22l90 -6q57 0 89 34t59 97l55 141l-362 920q-23 61 -23 88z
M451 1311q0 -41 -29 -69t-68 -28q-40 0 -68 28t-28 69t29 69t67 27q38 1 68 -27q29 -28 29 -69zM788 1311q0 -41 -28 -69t-68 -28t-68 28t-28 69t28 69t68 27q40 1 68 -27t28 -69z" />
    <glyph glyph-name="dotlessi" unicode="&#x131;" horiz-adv-x="491" 
d="M336 940v-819q0 -70 -8 -88q-18 -57 -82 -58q-41 0 -63 26q-23 25 -25 51t-2 69v819q0 92 24 119q27 27 74 27t70 -42q12 -22 12 -104z" />
    <glyph glyph-name="Lslash" unicode="&#x141;" horiz-adv-x="1173" 
d="M632 1038q24 0 43 -22t19 -42q0 -18 -9 -30t-44 -43l-272 -231v-512h620q45 0 67 -2t46 -20t24 -53q0 -34 -10 -51q-19 -32 -127 -32h-653q-112 0 -138 26t-26 138v342q-45 -37 -56 -45t-33 -8q-22 1 -41 23t-19 41t9 31t44 42l96 82v657q0 106 28 134t72 28t70 -31
q27 -25 27 -131v-493l190 161q49 41 73 41z" />
    <glyph glyph-name="lslash" unicode="&#x142;" horiz-adv-x="491" 
d="M131 1341q0 98 25 121q26 29 66 29t65 -29q23 -20 22 -121v-456q49 41 63 49t34 8t37 -18t17 -45t-50 -70l-101 -82v-602q0 -93 -9 -105q-33 -45 -73 -45q-41 0 -69 26t-27 124v453q-59 -54 -84 -54t-42 18t-17 40t9 33t42 40l92 78v608z" />
    <glyph glyph-name="OE" unicode="&#x152;" horiz-adv-x="2068" 
d="M1286 676v-518h604q43 0 65 -2q23 -2 47 -20t24 -57q0 -38 -24 -56q-24 -19 -46 -21t-66 -2h-698q-65 0 -75 48q-3 19 -3 69v69q-32 -40 -54 -64q-135 -147 -366 -147q-274 0 -434 203t-160 556t159 555t431 202q234 0 371 -148q25 -27 53 -63v37q0 106 15 128t100 21
h629q46 0 68 -2t46 -20t25 -56q0 -38 -22 -57q-21 -18 -43 -20t-46 -2h-600v-475h522q57 0 85 -8q49 -13 50 -61q1 -49 -23 -67t-46 -20t-66 -2h-522zM1096 641v211q0 172 -63 308q-36 79 -115 126q-80 47 -182 47q-254 0 -356 -205q-79 -156 -79 -400q0 -245 80 -390
q113 -205 342 -205q102 0 189 49q88 50 136 154t48 305z" />
    <glyph glyph-name="oe" unicode="&#x153;" horiz-adv-x="1941" 
d="M274 531q0 -183 84 -299t228 -117q144 0 233 106q88 106 88 307q0 118 -49 246q-29 76 -96 124q-68 48 -168 48q-152 0 -236 -116t-84 -299zM1378 950q-119 0 -207 -86t-94 -250h598q-10 142 -50 204q-85 132 -247 132zM1394 -25q-118 0 -207 36t-125 72t-73 87
q-164 -195 -397 -195t-365 158q-131 158 -131 393q0 136 42 245q42 108 93 168t145 103t214 43q246 0 399 -198q139 199 387 198q130 0 228 -49t149 -126q102 -154 100 -310q0 -76 -46 -91t-117 -15h-611q20 -389 310 -390q197 0 290 183q33 63 69 63t52 -20
q51 -64 -64 -218q-42 -56 -133 -96t-209 -41z" />
    <glyph glyph-name="Scaron" unicode="&#x160;" horiz-adv-x="1300" 
d="M1200 424q0 -193 -142 -322t-408 -129q-373 0 -504 286q-66 149 -11 207q25 26 63 26t55 -25t39 -85t36 -88q61 -108 159 -146q68 -26 160 -25q147 0 256 74t109 200q0 148 -149 213q-52 23 -206 57q-153 35 -229 61t-141 75q-137 111 -137 295t144 288t355 105
q326 0 447 -209q47 -84 47 -136t-25 -82q-24 -30 -64 -30t-60 26q-19 26 -36 73q-34 102 -108 155t-209 53q-135 -1 -219 -69t-84 -162q0 -137 151 -198q53 -22 84 -30t91 -22q301 -72 403 -149q63 -47 98 -130t35 -157zM870 1855q52 0 60 -4t8 -14t-35 -51l-82 -105
q-59 -78 -86 -95t-86 -17t-86 19t-84 93l-86 109q-31 43 -31 49q0 16 54 16t68 -3q16 -3 26 -12t45 -52l94 -119l92 119q29 35 38 45t25 16q14 6 66 6z" />
    <glyph glyph-name="scaron" unicode="&#x161;" horiz-adv-x="1044" 
d="M956 323q0 -49 -7 -85t-36 -85q-29 -50 -73 -87t-131 -64q-86 -27 -199 -27q-219 0 -336 113q-90 90 -90 180q0 30 22 52t56 22q51 0 82 -70q74 -170 278 -170q117 0 183 50q65 50 65 122q0 71 -46 109t-99 53q-55 14 -157 41t-165 51t-110 64q-92 76 -93 190
q0 74 42 143q97 160 356 160q98 1 175 -23q127 -39 185 -126q43 -62 43 -101q-1 -39 -23 -59t-55 -20t-48 16t-38 64q-57 123 -235 122q-102 0 -167 -40t-65 -107q0 -68 65 -109t255 -81q190 -39 280 -117q34 -30 60 -82q26 -50 26 -99zM811 1454q0 -10 -35 -51l-82 -105
q-59 -78 -86 -95t-86 -17t-86 19t-84 93l-86 109q-31 43 -30 49q0 16 32 17q74 1 89 -3t25 -13t46 -52l94 -119l92 119q29 35 38 45q8 10 24 16t68 6t59 -4q8 -4 8 -14z" />
    <glyph glyph-name="Ydieresis" unicode="&#x178;" horiz-adv-x="1259" 
d="M49 1403q0 33 26 61q25 28 65 27q40 1 60 -19t62 -90l367 -579l377 586q43 68 61 85t54 17t63 -25q26 -26 26 -60t-51 -112l-438 -665v-492q0 -109 -29 -133q-28 -29 -68 -29t-70 27t-30 135v492l-422 655q-53 86 -53 119zM557 1694q0 -39 -29 -68q-30 -29 -68 -29
t-67 29t-28 68q1 40 29 68t67 28t67 -28t29 -68zM895 1694q0 -39 -28 -68q-29 -29 -69 -29t-68 29t-28 68q0 40 28 68t69 28t69 -28t27 -68z" />
    <glyph glyph-name="Zcaron" unicode="&#x17d;" horiz-adv-x="1280" 
d="M1141 158q104 0 104 -80q0 -57 -40 -67q-40 -11 -93 -11h-907q-109 0 -137 20q-43 33 -43 72t13 62t58 77l858 1078h-721q-41 0 -63 2t-44 20q-24 18 -24 51q0 62 44 75q31 9 87 9h822q105 0 131 -44q14 -24 14 -64t-55 -109l-871 -1091h867zM860 1855q52 0 60 -4t8 -14
t-35 -51l-82 -105q-59 -78 -86 -95t-86 -17t-86 19t-84 93l-86 109q-31 43 -31 49q0 16 54 16t68 -3q16 -3 26 -12t45 -52l94 -119l92 119q29 35 38 45t25 16q14 6 66 6z" />
    <glyph glyph-name="zcaron" unicode="&#x17e;" horiz-adv-x="1044" 
d="M128 0q-103 0 -103 78q0 41 51 98l526 588q94 104 121 158h-490q-141 0 -162 29q-11 15 -11 44t20 45t40 18t56 3h621q129 0 151 -35q12 -18 12 -44t-12 -44t-55 -70l-623 -729h629q85 0 103 -17t18 -50t-22 -50q-22 -18 -42 -20t-231 -2h-597zM811 1454q0 -10 -35 -51
l-82 -105q-59 -78 -86 -95t-86 -17t-86 19t-84 93l-86 109q-31 43 -30 49q0 16 32 17q74 1 89 -3t25 -13t46 -52l94 -119l92 119q29 35 38 45q8 10 24 16t68 6t59 -4q8 -4 8 -14z" />
    <glyph glyph-name="florin" unicode="&#x192;" horiz-adv-x="1130" 
d="M786 748q34 0 50 -2t33 -17q17 -14 17 -47t-16 -50q-16 -16 -33 -20t-55 -4h-112l-142 -805q-23 -133 -81 -196t-178 -63t-175 18q-37 14 -37 52q-1 38 19 69t49 30q8 0 37 -6q28 -6 64 -6q77 0 99 40t35 114l129 753h-88q-33 0 -49 2t-34 16t-17 48q0 33 16 50
q15 17 33 20t56 4h106l74 421q27 167 93 233t184 65t175 -29q35 -14 35 -42t-9 -57t-22 -41t-38 -12l-101 12q-69 0 -95 -32t-44 -127l-70 -391h92z" />
    <glyph glyph-name="circumflex" unicode="&#x2c6;" horiz-adv-x="681" 
d="M127 1200q-58 0 -66 4t-8 14t35 52l82 104q59 78 86 95t86 17t86 -18q27 -20 84 -94l86 -108q31 -37 31 -51q1 -15 -53 -15q-76 -1 -91 12q-14 12 -49 56l-94 118l-92 -118q-35 -44 -50 -56t-73 -12z" />
    <glyph glyph-name="caron" unicode="&#x2c7;" horiz-adv-x="681" 
d="M629 1454q0 -10 -35 -51l-82 -105q-59 -78 -86 -95t-86 -17t-86 19t-84 93l-86 109q-31 43 -31 49q0 16 33 17q74 1 89 -3t25 -13t46 -52l94 -119l92 119q29 35 38 45q8 10 24 16t68 6t59 -4q8 -4 8 -14z" />
    <glyph glyph-name="breve" unicode="&#x2d8;" horiz-adv-x="681" 
d="M348 1319q102 0 132 45t40 90t53 45q23 0 39 -16t17 -39q0 -72 -72 -154t-212 -82t-216 81t-76 155q1 18 17 36t41 19q25 0 35 -15t22 -52q33 -113 180 -113z" />
    <glyph glyph-name="dotaccent" unicode="&#x2d9;" horiz-adv-x="681" 
d="M438 1311q0 -39 -28 -68t-68 -29q-39 0 -68 28t-28 69q0 41 28 69t68 27t68 -29t28 -67z" />
    <glyph glyph-name="ring" unicode="&#x2da;" horiz-adv-x="681" 
d="M449 1343q0 45 -32 77t-77 32t-76 -32t-31 -77t32 -75t76 -31q44 1 76 31t32 75zM530 1343q0 -78 -55 -133t-134 -55t-134 55t-55 134q0 78 56 134t134 56t133 -56t55 -135z" />
    <glyph glyph-name="ogonek" unicode="&#x2db;" horiz-adv-x="681" 
d="M270 23q20 -1 36 -15t18 -30q0 -16 -8 -52t-7 -82q0 -46 38 -92t110 -45l116 17q19 0 33 -16t15 -36q-1 -40 -57 -64q-80 -34 -172 -34q-93 0 -152 65q-60 65 -60 137t23 175q18 72 67 72z" />
    <glyph glyph-name="tilde" unicode="&#x2dc;" horiz-adv-x="681" 
d="M91 1219q-19 0 -37 17q-17 17 -17 61q0 45 39 91q38 46 106 46t156 -41q112 -45 152 -45t59 45q18 47 45 47q18 0 34 -18t17 -57q0 -38 -36 -88t-111 -50q-41 0 -160 43q-102 43 -141 43t-55 -29q-5 -10 -15 -33q-17 -32 -36 -32z" />
    <glyph glyph-name="hungarumlaut" unicode="&#x2dd;" horiz-adv-x="681" 
d="M674 1470h49q61 0 61 -15t-80 -103t-126 -126q-46 -40 -72 -40t-39 12q-12 12 -12 26t20 52l51 100q36 70 56 82t92 12zM338 1470h49q61 0 61 -15t-80 -103t-126 -126q-46 -40 -72 -40t-39 12q-12 12 -12 26t20 52l51 100q36 70 56 82t92 12z" />
    <glyph glyph-name="mu" unicode="&#x3bc;" horiz-adv-x="1130" 
d="M307 -326q0 -104 -86 -104q-33 0 -61 24q-25 25 -25 160v1184q0 82 20 115q21 33 63 33t71 -25q25 -25 24 -123v-395q-1 -149 17 -217t59 -113q68 -74 170 -74q141 0 213 119q39 69 42 199q1 49 1 153v328q0 96 27 122q28 26 72 26t65 -39q14 -23 14 -107v-823
q0 -109 -37 -130q-18 -11 -49 -11t-49 12q-37 26 -37 137q-55 -107 -154 -137t-196 -2t-164 137v-449z" />
    <glyph glyph-name="endash" unicode="&#x2013;" horiz-adv-x="1024" 
d="M-12 578h1048v-132h-1048v132z" />
    <glyph glyph-name="emdash" unicode="&#x2014;" horiz-adv-x="2048" 
d="M-12 578h2072v-132h-2072v132z" />
    <glyph glyph-name="quoteleft" unicode="&#x2018;" horiz-adv-x="491" 
d="M371 1137q0 -47 -35 -81t-89 -34t-87 45t-33 143t55 191q55 92 117 92q19 0 33 -16t14 -37t-46 -66t-48 -123q53 -3 86 -35t33 -79z" />
    <glyph glyph-name="quoteright" unicode="&#x2019;" horiz-adv-x="491" 
d="M127 1375q0 48 35 82t89 34t87 -45q33 -46 33 -144q1 -98 -55 -190t-117 -92q-18 0 -33 16q-14 16 -14 37t46 66t48 123q-53 2 -86 34t-33 79z" />
    <glyph glyph-name="quotesinglbase" unicode="&#x201a;" horiz-adv-x="491" 
d="M127 89q0 48 35 82t89 34t87 -45q33 -46 33 -144q1 -98 -55 -190t-117 -92q-18 0 -33 16q-14 16 -14 37t46 65t48 123q-53 2 -86 34t-33 80z" />
    <glyph glyph-name="quotedblleft" unicode="&#x201c;" horiz-adv-x="854" 
d="M239 1020q-54 0 -87 45t-33 143t55 191q55 92 117 92q19 0 33 -16t14 -37t-46 -66t-48 -123q53 -2 86 -34q32 -31 32 -79t-34 -82t-89 -34zM620 1020q-54 0 -88 45q-32 45 -32 143t55 191q55 92 117 92q18 0 32 -16t15 -37q0 -21 -46 -66t-48 -123q53 -2 86 -34
q33 -31 33 -79t-36 -82q-34 -34 -88 -34z" />
    <glyph glyph-name="quotedblright" unicode="&#x201d;" horiz-adv-x="854" 
d="M617 1491q53 0 87 -45q34 -46 34 -144t-56 -190q-55 -92 -117 -92q-18 0 -33 16q-14 16 -14 37t46 66t48 123q-53 2 -86 34q-32 32 -32 79q0 48 34 82q35 34 89 34zM236 1491q54 0 88 -45q34 -46 32 -144q0 -98 -55 -190t-117 -92q-18 0 -32 16t-14 37t45 66
q46 45 48 123q-53 2 -86 34t-33 79q0 48 35 82t89 34z" />
    <glyph glyph-name="quotedblbase" unicode="&#x201e;" horiz-adv-x="854" 
d="M238 205q52 0 86 -45q34 -46 32 -144q0 -98 -54 -190t-116 -92q-20 0 -34 16t-14 37t46 67q47 46 49 121q-53 2 -86 34t-33 80t36 82t88 34zM617 205q53 0 87 -45q34 -46 34 -144t-56 -190q-55 -92 -117 -92q-18 0 -33 16q-14 16 -14 37t46 65t48 123q-53 2 -86 34
q-32 32 -32 80t34 82q35 34 89 34z" />
    <glyph glyph-name="dagger" unicode="&#x2020;" 
d="M492 870h-308q-39 0 -59 2t-42 20t-22 52q0 35 22 52q22 18 42 20t59 2h308v313q0 92 24 118t59 26q34 1 52 -11q37 -24 37 -133v-313h305q39 0 59 -2t42 -20t22 -52q0 -35 -22 -52q-22 -18 -42 -20t-59 -2h-305v-1108q0 -94 -27 -118t-59 -25q-63 0 -74 44
q-12 44 -12 99v1108z" />
    <glyph glyph-name="daggerdbl" unicode="&#x2021;" 
d="M492 29h-306q-39 0 -59 2t-43 19t-23 48q0 56 43 70q31 8 82 8h306v742h-308q-37 0 -57 2t-43 19t-23 52t22 52t42 19t59 3h308v266q0 94 22 117q33 27 64 27q31 1 49 -11q37 -24 37 -133v-266h305q39 0 59 -2q20 -1 42 -19t22 -53t-22 -52t-42 -19t-59 -2h-305v-742h303
q98 0 114 -31q11 -16 11 -47t-22 -48t-44 -19t-59 -2h-303v-267q0 -94 -25 -118t-61 -25q-36 0 -62 25q-25 25 -24 118v267z" />
    <glyph glyph-name="bullet" unicode="&#x2022;" horiz-adv-x="724" 
d="M109 718q0 105 74 180q75 75 179 75t180 -75t74 -180q0 -105 -74 -179t-180 -74q-104 0 -179 74q-74 74 -74 179z" />
    <glyph glyph-name="ellipsis" unicode="&#x2026;" horiz-adv-x="2048" 
d="M1708 201q47 0 80 -33t33 -80t-34 -80t-80 -33t-79 33t-33 80t33 80t80 33zM1024 201q47 0 80 -33t33 -80t-34 -80t-80 -33t-79 33t-33 80t33 80t80 33zM340 201q47 0 80 -33t33 -80t-34 -80t-80 -33t-79 33t-33 80t33 80t80 33z" />
    <glyph glyph-name="perthousand" unicode="&#x2030;" horiz-adv-x="2177" 
d="M1667 369q0 -143 37 -214t130 -71t128 73t35 218t-38 212t-128 67t-127 -72q-37 -70 -37 -213zM965 369q1 -143 37 -214t129 -71t129 73q34 73 34 218t-38 212t-128 67t-127 -71q-36 -71 -36 -214zM1536 369q0 381 295 381q161 0 229 -104t68 -261q0 -201 -64 -291
q-29 -41 -89 -74t-144 -32q-295 0 -295 381zM834 369q0 381 294 381q162 0 230 -104t68 -284q0 -179 -64 -268q-29 -41 -89 -74t-145 -32q-294 0 -294 381zM180 1090q0 -143 37 -214t130 -71t128 73t35 218t-38 212q-38 66 -128 66t-127 -70t-37 -214zM49 1090
q0 381 295 380q162 0 230 -104t67 -283q0 -179 -63 -268q-30 -41 -90 -74t-144 -32q-295 0 -295 381zM1233 1489q17 0 32 -16t15 -38t-39 -75l-926 -1368q-31 -45 -57 -45t-43 16q-34 34 6 84l930 1374q41 57 57 66q8 2 25 2z" />
    <glyph glyph-name="guilsinglleft" unicode="&#x2039;" horiz-adv-x="724" 
d="M549 114q1 -22 -19 -40t-53 -18t-76 67l-202 319q-37 58 -37 76t37 76l204 324q41 63 74 63t52 -18q40 -38 -9 -111l-201 -334l205 -338q25 -44 25 -66z" />
    <glyph glyph-name="guilsinglright" unicode="&#x203a;" horiz-adv-x="724" 
d="M176 923q0 22 20 40t52 18q33 0 74 -63l204 -324q37 -56 37 -74t-37 -78l-202 -319q-43 -68 -84 -68q-25 1 -44 19q-20 18 -20 40t25 66l205 338l-201 334q-29 49 -29 71z" />
    <glyph glyph-name="fraction" unicode="&#x2044;" horiz-adv-x="342" 
d="M666 1489q16 0 31 -16t15 -38t-38 -75l-926 -1368q-32 -45 -58 -45t-42 16q-34 34 6 84l930 1374q41 57 57 66q9 2 25 2z" />
    <glyph glyph-name="trademark" unicode="&#x2122;" horiz-adv-x="2048" 
d="M983 651v815h201l205 -651l198 651h197v-815h-125v684l-209 -684h-123l-219 695v-695h-125zM489 651v695h-264v120h666v-120h-266v-695h-136z" />
    <glyph glyph-name="minus" unicode="&#x2212;" horiz-adv-x="1193" 
d="M1083 639h-970v168h970v-168z" />
    <glyph glyph-name="fi" unicode="&#xfb01;" horiz-adv-x="1087" 
d="M934 940v-819q0 -59 -8 -88q-14 -57 -79 -57t-78 45q-13 46 -13 100v819q0 94 22 119q31 27 65 27q65 -1 78 -48q13 -46 13 -98zM678 1413q0 -37 -18 -56t-44 -19q-27 0 -92 10q-98 0 -127 -48t-28 -155v-84h112q106 0 107 -64q0 -68 -107 -67h-112v-809q0 -96 -26 -121
q-25 -25 -63 -25t-64 24t-26 122v809h-96q-96 0 -96 65t100 66h92v100q0 162 48 225q78 104 243 105q88 0 152 -23q45 -18 45 -55zM942 1362q0 -41 -29 -71q-29 -29 -69 -29t-71 30q-30 30 -30 70q0 41 30 70q30 28 71 28q42 0 70 -28t28 -70z" />
    <glyph glyph-name="fl" unicode="&#xfb02;" horiz-adv-x="1087" 
d="M678 1405q0 -29 -18 -48t-44 -19q-28 0 -94 10q-96 0 -125 -48t-28 -155v-84h110q109 0 109 -66t-109 -65h-110v-809q0 -96 -26 -121q-27 -25 -65 -25t-63 25t-25 121v809h-96q-98 0 -98 65t102 66h92v100q0 160 46 225q72 104 257 104t185 -85zM936 1343v-1222
q0 -94 -23 -119q-31 -27 -61 -27q-76 0 -88 66q-6 34 -6 80v1222q0 96 24 119q25 29 63 29t68 -27q23 -25 23 -121z" />
  </font>
</defs>
</svg>
