<?xml version="1.0" standalone="no"?>
<!DOCTYPE svg PUBLIC "-//W3C//DTD SVG 1.1//EN" "http://www.w3.org/Graphics/SVG/1.1/DTD/svg11.dtd" >
<svg xmlns="http://www.w3.org/2000/svg">
<metadata></metadata>
<defs>
<font id="digifaceregular" horiz-adv-x="1014" >
<font-face units-per-em="2048" ascent="1638" descent="-410" />
<missing-glyph horiz-adv-x="594" />
<glyph horiz-adv-x="0" />
<glyph unicode="&#xd;" horiz-adv-x="594" />
<glyph unicode=" "  horiz-adv-x="594" />
<glyph unicode="&#x09;" horiz-adv-x="594" />
<glyph unicode="&#xa0;" horiz-adv-x="594" />
<glyph unicode="!" horiz-adv-x="348" d="M88 0v318h176v-318h-176zM88 568v730l176 176v-1040z" />
<glyph unicode="&#x22;" horiz-adv-x="585" d="M102 1014l42 460h128l-40 -460h-130zM316 1014l40 460h130l-42 -460h-128z" />
<glyph unicode="#" horiz-adv-x="1194" d="M102 469l21 92h235l74 353h-236l19 92h237l90 436h93l-90 -436h221l90 436h92l-90 -436h236l-21 -92h-235l-74 -353h236l-21 -92h-235l-92 -436h-93l93 436h-222l-92 -436h-92l92 436h-236zM450 561h222l74 353h-222z" />
<glyph unicode="$" d="M88 760v508l88 88l88 -88v-406zM102 0l193 176h432l88 -84l-86 -92h-107l-110 96l-100 -96h-310zM129 738l166 96h428l166 -96l-166 -82h-428zM213 1388l84 86h115l100 -100l104 100h228l-70 -176h-477zM424 -22l88 71l90 -73v-148l-88 -74l-90 84v140zM426 1508v134 l86 88l90 -82v-140l-92 -84zM752 207v419l176 89v-508l-88 -88z" />
<glyph unicode="%" horiz-adv-x="1859" d="M45 922v348l92 86l91 -88v-346l-91 -88zM164 803l92 94h350l88 -94l-88 -80h-352zM166 1382l88 92h354l86 -92l-88 -84h-352zM381 0l399 656h205l-397 -656h-207zM637 922v348l86 88l90 -86v-348l-90 -90zM912 876l362 598h206l-470 -776zM1048 213v346l92 88l91 -88 v-348l-91 -88zM1168 92l90 84h350l90 -84l-88 -92h-354zM1168 672l90 84h352l88 -82l-90 -96h-350zM1640 213v346l84 90l92 -88v-348l-90 -88z" />
<glyph unicode="&#x26;" horiz-adv-x="1175" d="M88 207v508l176 -89v-419l-88 -88zM88 760v508l88 88l88 -88v-406zM205 90l90 86h428l90 -86l-90 -90h-428zM205 1384l90 90h428l90 -90l-90 -86h-428zM400 740l149 94h178l90 -96l-90 -82h-151zM756 207v417l88 82l90 -84v-417l-92 -84zM758 862v186l88 92l90 -92v-188 l-92 -96zM874 735l94 99h84l170 -96l-147 -82h-111z" />
<glyph unicode="'" horiz-adv-x="372" d="M102 1014l42 460h128l-40 -460h-130z" />
<glyph unicode="(" horiz-adv-x="549" d="M88 207v508l176 -89v-419l-88 -88zM88 760v508l88 88l88 -88v-406zM205 90l90 86h96l131 -176h-227zM205 1384l90 90h227l-131 -176h-96z" />
<glyph unicode=")" horiz-adv-x="549" d="M28 0l134 176h96l90 -86l-90 -90h-230zM28 1474h230l90 -90l-90 -86h-96zM286 207v405l177 103v-508l-88 -88zM286 848v420l89 88l88 -88v-508z" />
<glyph unicode="*" horiz-adv-x="819" d="M45 895l13 113l249 145l80 -59v-98l-239 -144zM324 1198v266l90 68l90 -70v-268l-90 -66zM434 994v104l84 49l246 -135l14 -107l-90 -53z" />
<glyph unicode="+" horiz-adv-x="1016" d="M86 649l82 177h221l93 -86l-95 -91h-301zM416 858v219l178 80v-301l-86 -90zM418 320v298l90 90l86 -90v-218zM545 738l86 88h301l-80 -177h-228z" />
<glyph unicode="," horiz-adv-x="293" d="M-28 -192l96 510h182l-96 -510h-182z" />
<glyph unicode="-" horiz-adv-x="700" d="M45 442l119 176h494l-120 -176h-493z" />
<glyph unicode="." horiz-adv-x="264" d="M45 0v318h176v-318h-176z" />
<glyph unicode="/" horiz-adv-x="1188" d="M45 0l397 656h205l-395 -656h-207zM574 876l362 598h209l-471 -776z" />
<glyph unicode="0" d="M88 207v508l176 -89v-419l-88 -88zM88 760v508l88 88l88 -88v-406zM205 90l90 86h428l90 -86l-90 -90h-428zM205 1384l90 90h428l90 -90l-90 -86h-428zM752 207v419l176 89v-508l-88 -88zM752 862v406l88 88l88 -88v-508z" />
<glyph unicode="1" d="M420 176v450l176 89v-715zM420 862v436l176 176v-714z" />
<glyph unicode="2" d="M88 207v508l176 -89v-419l-88 -88zM88 1298l207 176h428l90 -90l-90 -86h-635zM129 738l166 96h428l166 -96l-166 -82h-428zM205 90l90 86h465l168 -176h-633zM752 862v406l88 88l88 -88v-508z" />
<glyph unicode="3" d="M51 0l170 176h428l91 -86l-91 -90h-598zM51 1474h598l91 -90l-91 -86h-428zM56 738l165 96h428l166 -96l-166 -82h-428zM678 207v419l176 89v-508l-88 -88zM678 862v406l88 88l88 -88v-508z" />
<glyph unicode="4" d="M88 760v714l176 -176v-436zM129 738l166 96h428l166 -96l-166 -82h-428zM752 176v450l176 89v-715zM752 862v436l176 176v-714z" />
<glyph unicode="5" d="M88 0l170 176h465l90 -86l-90 -90h-635zM88 760v508l88 88l88 -88v-406zM129 738l166 96h428l166 -96l-166 -82h-428zM205 1384l90 90h596l-168 -176h-428zM752 207v419l176 89v-508l-88 -88z" />
<glyph unicode="6" d="M88 207v508l176 -89v-419l-88 -88zM88 760v508l88 88l88 -88v-406zM129 738l166 96h428l166 -96l-166 -82h-428zM205 90l90 86h428l90 -86l-90 -90h-428zM205 1384l90 90h596l-168 -176h-428zM752 207v419l176 89v-508l-88 -88z" />
<glyph unicode="7" d="M0 1474h782l-178 -176h-428zM635 176v450l176 89v-715zM635 862v406l176 178v-686z" />
<glyph unicode="8" d="M88 207v508l176 -89v-419l-88 -88zM88 760v508l88 88l88 -88v-406zM129 738l166 96h428l166 -96l-166 -82h-428zM205 90l90 86h428l90 -86l-90 -90h-428zM205 1384l90 90h428l90 -90l-90 -86h-428zM752 207v419l176 89v-508l-88 -88zM752 862v406l88 88l88 -88v-508z" />
<glyph unicode="9" d="M88 760v508l88 88l88 -88v-420zM125 0l170 176h428l90 -86l-90 -90h-598zM129 738l166 96h428l166 -96l-166 -82h-428zM205 1384l90 90h428l90 -90l-90 -86h-428zM752 207v405l176 103v-508l-88 -88zM752 848v420l88 88l88 -88v-508z" />
<glyph unicode=":" horiz-adv-x="278" d="M60 0v318h176v-318h-176zM60 656v302h176v-302h-176z" />
<glyph unicode=";" horiz-adv-x="293" d="M-28 -192l96 510h182l-96 -510h-182zM66 656v302h176v-302h-176z" />
<glyph unicode="&#x3c;" horiz-adv-x="1065" d="M102 738l862 486v-144l-620 -342l620 -342v-146z" />
<glyph unicode="=" d="M88 510l86 178h754l-86 -178h-754zM88 792l86 176h754l-86 -176h-754z" />
<glyph unicode="&#x3e;" horiz-adv-x="1065" d="M102 250v146l621 342l-621 342v144l862 -486z" />
<glyph unicode="?" horiz-adv-x="856" d="M45 1384l90 90h428l91 -90l-91 -86h-428zM223 0v318h179v-318h-179zM226 416v389l176 -170v-219h-176zM260 834h303l166 -92l-166 -86h-125zM592 862v406l88 88l90 -88v-508z" />
<glyph unicode="@" horiz-adv-x="1583" d="M119 740q-1 322 247 548q234 213 518 213q256 0 420 -174q162 -177 162 -447q0 -216 -100 -390q-103 -174 -234 -193q-10 -2 -32 -2q-80 0 -132 51q-44 44 -44 104q0 10 2 21q-22 -75 -84 -113t-136 -38q-104 0 -170 92q-74 102 -73 288q0 209 127 363q114 139 240 139 q64 0 114 -32t68 -90l20 120h98l-92 -444q-16 -72 -22 -107q-12 -61 -12 -98q0 -55 24 -107q33 -66 88 -65q12 0 29 6q80 27 145 141q86 144 86 346q0 242 -145 390q-148 146 -377 145q-240 -1 -424 -189q-194 -198 -194 -478q0 -260 180 -470q180 -208 414 -208 q152 0 303 77.5t243 200.5l46 -64q-123 -154 -271 -227q-149 -75 -321 -75q-302 0 -506 218t-205 548zM578 639q0 -129 32 -185q32 -54 96 -54h19q53 0 88 30q49 45 99 176q8 31 40 197q4 26 14 69q4 18 7 46q0 26 2 42q1 96 -47 136q-34 28 -98 28q-80 -6 -162 -149 q-90 -156 -90 -336z" />
<glyph unicode="A" d="M88 0v715l176 -89v-450zM88 760v686l176 -178v-406zM116 1474h783l-176 -176h-428zM129 738l166 96h428l166 -96l-166 -82h-428zM752 176v450l176 89v-715zM752 862v406l176 178v-686z" />
<glyph unicode="B" d="M88 28v687l176 -89v-419zM88 760v686l176 -178v-406zM116 0l179 176h428l90 -86l-90 -90h-607zM116 1474h607l90 -90l-90 -86h-428zM129 738l166 96h428l166 -96l-166 -82h-428zM752 207v419l176 89v-508l-88 -88zM752 862v406l88 88l88 -88v-508z" />
<glyph unicode="C" horiz-adv-x="911" d="M88 207v508l176 -103v-405l-88 -88zM88 760v508l88 88l88 -88v-420zM205 90l90 86h428l176 -176h-604zM205 1384l90 90h604l-176 -176h-428z" />
<glyph unicode="D" d="M88 28v687l176 -89v-419zM88 760v686l176 -178v-406zM116 0l179 176h428l90 -86l-90 -90h-607zM116 1474h607l90 -90l-90 -86h-428zM752 207v419l176 89v-508l-88 -88zM752 862v406l88 88l88 -88v-508z" />
<glyph unicode="E" horiz-adv-x="911" d="M88 28v687l176 -89v-419zM88 760v686l176 -178v-406zM116 0l179 176h428l176 -176h-783zM116 1474h783l-176 -176h-428zM129 738l166 96h428l166 -96l-166 -82h-428z" />
<glyph unicode="F" horiz-adv-x="897" d="M88 0v715l176 -89v-450zM88 760v686l176 -178v-406zM116 1474h783l-176 -176h-428zM129 738l166 96h428l166 -96l-166 -82h-428z" />
<glyph unicode="G" d="M88 207v508l176 -89v-419l-88 -88zM88 760v508l88 88l88 -88v-406zM205 90l90 86h428l90 -86l-90 -90h-428zM205 1384l90 90h596l-168 -176h-428zM393 738l166 96h164l166 -96l-166 -82h-164zM752 207v419l176 89v-508l-88 -88z" />
<glyph unicode="H" d="M88 0v715l176 -89v-450zM88 760v714l176 -176v-436zM129 738l166 96h428l166 -96l-166 -82h-428zM752 176v450l176 89v-715zM752 862v436l176 176v-714z" />
<glyph unicode="I" horiz-adv-x="348" d="M88 176v450l176 89v-715zM88 862v436l176 176v-714z" />
<glyph unicode="J" d="M88 28v687l176 -89v-419zM116 0l179 176h428l176 -176h-783zM752 207v419l176 89v-687zM752 862v436l176 176v-714z" />
<glyph unicode="K" d="M88 0v715l176 -89v-450zM88 760v714l176 -176v-436zM129 738l166 96h428l166 -96l-166 -82h-428zM301 868v128l497 478h130v-120l-502 -486h-125zM752 176v450l176 89v-715z" />
<glyph unicode="L" horiz-adv-x="983" d="M88 28v687l176 -89v-419zM88 760v714l176 -176v-436zM116 0l179 176h428l176 -176h-783zM752 207v419l176 89v-687z" />
<glyph unicode="M" horiz-adv-x="1679" d="M88 0v715l176 -89v-450zM88 760v686l176 -178v-406zM116 1474h1446l-178 -176h-428l-116 115l-117 -115h-432zM752 148v487l88 80l88 -80v-487l-88 -148zM752 815v457l88 90l88 -94v-453l-88 -67zM1415 176v450l177 89v-715zM1415 862v406l177 176v-684z" />
<glyph unicode="N" d="M88 0v715l176 -89v-450zM88 760v686l176 -178v-406zM116 1474h783l-176 -176h-428zM752 176v450l176 89v-715zM752 862v406l176 178v-686z" />
<glyph unicode="O" d="M88 207v508l176 -89v-419l-88 -88zM88 760v508l88 88l88 -88v-406zM205 90l90 86h428l90 -86l-90 -90h-428zM205 1384l90 90h428l90 -90l-90 -86h-428zM752 207v419l176 89v-508l-88 -88zM752 862v406l88 88l88 -88v-508z" />
<glyph unicode="P" d="M88 0v715l176 -89v-450zM88 760v686l176 -178v-406zM116 1474h607l90 -90l-90 -86h-428zM129 738l166 96h428l166 -96l-166 -82h-428zM752 862v406l88 88l88 -88v-508z" />
<glyph unicode="Q" horiz-adv-x="1018" d="M88 207v508l176 -89v-419l-88 -88zM88 760v508l88 88l88 -88v-406zM205 1384l90 90h428l90 -90l-90 -86h-428zM207 96l88 80h125l182 -176h-307zM475 176h244l213 -200v-238zM752 207v419l176 89v-508l-88 -88zM752 862v406l88 88l88 -88v-508z" />
<glyph unicode="R" horiz-adv-x="1018" d="M88 28v687l176 -89v-419zM88 760v686l176 -178v-406zM116 1474h607l90 -90l-90 -86h-428zM129 738l166 96h428l166 -96l-166 -82h-428zM536 626h199l322 -628l-307 207zM752 862v406l88 88l88 -88v-508z" />
<glyph unicode="S" d="M88 0l192 176h443l90 -86l-90 -90h-635zM88 760v508l88 88l88 -88v-406zM129 738l166 96h428l166 -96l-166 -82h-428zM205 1384l90 90h633l-190 -176h-443zM752 207v419l176 89v-508l-88 -88z" />
<glyph unicode="T" horiz-adv-x="839" d="M-14 1474h870l-141 -176h-191l-100 103l-106 -103h-193zM330 96v528l92 95l88 -95v-528l-90 -96zM332 828v434l90 96l88 -96v-434l-88 -86z" />
<glyph unicode="U" d="M88 207v508l176 -89v-419l-88 -88zM88 760v714l176 -170v-442zM205 90l90 86h428l90 -86l-90 -90h-428zM752 207v419l176 89v-508l-88 -88zM752 862v442l176 170v-714z" />
<glyph unicode="V" horiz-adv-x="1018" d="M88 735l232 -61l168 -306v-370zM88 760v686l176 -178v-406zM532 0v368l168 306l232 59zM752 862v406l176 178v-686z" />
<glyph unicode="W" horiz-adv-x="1679" d="M88 203v518l176 -111v-407l-88 -89zM88 760v714l178 -176v-450zM207 84l88 92h428l117 -118l118 118h430l90 -88l-88 -88h-1097zM752 207v453l88 67l90 -67v-457l-88 -91zM752 840v487l88 147l90 -147v-487l-90 -80zM1415 848v450l179 176v-714zM1417 203v409l177 109 v-518l-84 -87z" />
<glyph unicode="X" horiz-adv-x="893" d="M45 0v150l291 567h92v-209l-258 -508h-125zM45 1336v138h127l256 -512v-204h-92zM469 508v209h92l289 -571v-146h-127zM469 758v204l258 512h123v-145l-289 -571h-92z" />
<glyph unicode="Y" d="M88 760v714l176 -176v-436zM129 738l166 96h428l166 -96l-166 -82h-428zM422 102v514h180v-514l-94 -102zM752 862v436l176 176v-714z" />
<glyph unicode="Z" horiz-adv-x="864" d="M14 0l302 676l208 41l-317 -717h-193zM47 1474h573l-75 -176h-322zM242 0l86 176h311l178 -176h-575zM422 934l238 540h192l-316 -726z" />
<glyph unicode="[" horiz-adv-x="542" d="M88 28v687l176 -89v-419zM88 760v686l176 -178v-406zM116 0l179 176h59l176 -176h-414zM116 1474h414l-176 -176h-59z" />
<glyph unicode="\" horiz-adv-x="590" d="M102 1474h130l258 -1474h-130z" />
<glyph unicode="]" horiz-adv-x="542" d="M14 0l176 176h60l178 -176h-414zM14 1474h414l-178 -176h-60zM280 207v405l176 103v-687zM280 848v420l176 178v-686z" />
<glyph unicode="^" horiz-adv-x="1177" d="M102 356l488 862l490 -862h-148l-342 621l-340 -621h-148z" />
<glyph unicode="_" horiz-adv-x="940" d="M102 0h738v-56h-738v56z" />
<glyph unicode="`" horiz-adv-x="323" d="M0 1036h192l134 -294h-193z" />
<glyph unicode="a" d="M88 0v715l176 -89v-450zM88 760v686l176 -178v-406zM116 1474h783l-176 -176h-428zM129 738l166 96h428l166 -96l-166 -82h-428zM752 176v450l176 89v-715zM752 862v406l176 178v-686z" />
<glyph unicode="b" d="M88 28v687l176 -89v-419zM88 760v686l176 -178v-406zM116 0l179 176h428l90 -86l-90 -90h-607zM116 1474h607l90 -90l-90 -86h-428zM129 738l166 96h428l166 -96l-166 -82h-428zM752 207v419l176 89v-508l-88 -88zM752 862v406l88 88l88 -88v-508z" />
<glyph unicode="c" horiz-adv-x="911" d="M88 207v508l176 -103v-405l-88 -88zM88 760v508l88 88l88 -88v-420zM205 90l90 86h428l176 -176h-604zM205 1384l90 90h604l-176 -176h-428z" />
<glyph unicode="d" d="M88 28v687l176 -89v-419zM88 760v686l176 -178v-406zM116 0l179 176h428l90 -86l-90 -90h-607zM116 1474h607l90 -90l-90 -86h-428zM752 207v419l176 89v-508l-88 -88zM752 862v406l88 88l88 -88v-508z" />
<glyph unicode="e" horiz-adv-x="911" d="M88 28v687l176 -89v-419zM88 760v686l176 -178v-406zM116 0l179 176h428l176 -176h-783zM116 1474h783l-176 -176h-428zM129 738l166 96h428l166 -96l-166 -82h-428z" />
<glyph unicode="f" horiz-adv-x="897" d="M88 0v715l176 -89v-450zM88 760v686l176 -178v-406zM116 1474h783l-176 -176h-428zM129 738l166 96h428l166 -96l-166 -82h-428z" />
<glyph unicode="g" d="M88 207v508l176 -89v-419l-88 -88zM88 760v508l88 88l88 -88v-406zM205 90l90 86h428l90 -86l-90 -90h-428zM205 1384l90 90h596l-168 -176h-428zM393 738l166 96h164l166 -96l-166 -82h-164zM752 207v419l176 89v-508l-88 -88z" />
<glyph unicode="h" d="M88 0v715l176 -89v-450zM88 760v714l176 -176v-436zM129 738l166 96h428l166 -96l-166 -82h-428zM752 176v450l176 89v-715zM752 862v436l176 176v-714z" />
<glyph unicode="i" horiz-adv-x="348" d="M88 176v450l176 89v-715zM88 862v436l176 176v-714z" />
<glyph unicode="j" d="M88 28v687l176 -89v-419zM116 0l179 176h428l176 -176h-783zM752 207v419l176 89v-687zM752 862v436l176 176v-714z" />
<glyph unicode="k" d="M88 0v715l176 -89v-450zM88 760v714l176 -176v-436zM129 738l166 96h428l166 -96l-166 -82h-428zM301 868v128l497 478h130v-120l-502 -486h-125zM752 176v450l176 89v-715z" />
<glyph unicode="l" horiz-adv-x="983" d="M88 28v687l176 -89v-419zM88 760v714l176 -176v-436zM116 0l179 176h428l176 -176h-783zM752 207v419l176 89v-687z" />
<glyph unicode="m" horiz-adv-x="1679" d="M88 0v715l176 -89v-450zM88 760v686l176 -178v-406zM116 1474h1446l-178 -176h-428l-116 115l-117 -115h-432zM752 148v487l88 80l88 -80v-487l-88 -148zM752 815v457l88 90l88 -94v-453l-88 -67zM1415 176v450l177 89v-715zM1415 862v406l177 176v-684z" />
<glyph unicode="n" d="M88 0v715l176 -89v-450zM88 760v686l176 -178v-406zM116 1474h783l-176 -176h-428zM752 176v450l176 89v-715zM752 862v406l176 178v-686z" />
<glyph unicode="o" d="M88 207v508l176 -89v-419l-88 -88zM88 760v508l88 88l88 -88v-406zM205 90l90 86h428l90 -86l-90 -90h-428zM205 1384l90 90h428l90 -90l-90 -86h-428zM752 207v419l176 89v-508l-88 -88zM752 862v406l88 88l88 -88v-508z" />
<glyph unicode="p" d="M88 0v715l176 -89v-450zM88 760v686l176 -178v-406zM116 1474h607l90 -90l-90 -86h-428zM129 738l166 96h428l166 -96l-166 -82h-428zM752 862v406l88 88l88 -88v-508z" />
<glyph unicode="q" horiz-adv-x="1018" d="M88 207v508l176 -89v-419l-88 -88zM88 760v508l88 88l88 -88v-406zM205 1384l90 90h428l90 -90l-90 -86h-428zM207 96l88 80h125l182 -176h-307zM475 176h244l213 -200v-238zM752 207v419l176 89v-508l-88 -88zM752 862v406l88 88l88 -88v-508z" />
<glyph unicode="r" horiz-adv-x="1018" d="M88 28v687l176 -89v-419zM88 760v686l176 -178v-406zM116 1474h607l90 -90l-90 -86h-428zM129 738l166 96h428l166 -96l-166 -82h-428zM536 626h199l322 -628l-307 207zM752 862v406l88 88l88 -88v-508z" />
<glyph unicode="s" d="M88 0l192 176h443l90 -86l-90 -90h-635zM88 760v508l88 88l88 -88v-406zM129 738l166 96h428l166 -96l-166 -82h-428zM205 1384l90 90h633l-190 -176h-443zM752 207v419l176 89v-508l-88 -88z" />
<glyph unicode="t" horiz-adv-x="839" d="M-14 1474h870l-141 -176h-191l-100 103l-106 -103h-193zM330 96v528l92 95l88 -95v-528l-90 -96zM332 828v434l90 96l88 -96v-434l-88 -86z" />
<glyph unicode="u" d="M88 207v508l176 -89v-419l-88 -88zM88 760v714l176 -170v-442zM205 90l90 86h428l90 -86l-90 -90h-428zM752 207v419l176 89v-508l-88 -88zM752 862v442l176 170v-714z" />
<glyph unicode="v" horiz-adv-x="1018" d="M88 735l232 -61l168 -306v-370zM88 760v686l176 -178v-406zM532 0v368l168 306l232 59zM752 862v406l176 178v-686z" />
<glyph unicode="w" horiz-adv-x="1679" d="M88 203v518l176 -111v-407l-88 -89zM88 760v714l178 -176v-450zM207 84l88 92h428l117 -118l118 118h430l90 -88l-88 -88h-1097zM752 207v453l88 67l90 -67v-457l-88 -91zM752 840v487l88 147l90 -147v-487l-90 -80zM1415 848v450l179 176v-714zM1417 203v409l177 109 v-518l-84 -87z" />
<glyph unicode="x" horiz-adv-x="893" d="M45 0v150l291 567h92v-209l-258 -508h-125zM45 1336v138h127l256 -512v-204h-92zM469 508v209h92l289 -571v-146h-127zM469 758v204l258 512h123v-145l-289 -571h-92z" />
<glyph unicode="y" d="M88 760v714l176 -176v-436zM129 738l166 96h428l166 -96l-166 -82h-428zM422 102v514h180v-514l-94 -102zM752 862v436l176 176v-714z" />
<glyph unicode="z" horiz-adv-x="864" d="M14 0l302 676l208 41l-317 -717h-193zM47 1474h573l-75 -176h-322zM242 0l86 176h311l178 -176h-575zM422 934l238 540h192l-316 -726z" />
<glyph unicode="{" horiz-adv-x="620" d="M102 738q54 0 92 42q36 40 36 102v687q0 135 159 135h131v-76h-22q-72 0 -96.5 -24.5t-24.5 -100.5v-606q0 -64 -39 -109q-38 -44 -98 -50q60 -6 98 -52q39 -44 39 -108v-606q0 -76 22.5 -101t98.5 -25h22v-76h-131q-159 0 -159 136v686q0 98 -80 133q-10 6 -23 8 q-11 3 -25 5z" />
<glyph unicode="|" horiz-adv-x="332" d="M102 0v1474h130v-1474h-130z" />
<glyph unicode="}" horiz-adv-x="620" d="M102 -154h23q74 0 98 25q23 23 23 101v606q0 64 38 108q39 46 101 52q-30 4 -53 14q-86 43 -86 145v606q0 77 -23 101q-22 24 -98 24h-23v76h134q78 0 118 -35q38 -34 39 -100v-687q0 -96 80 -132q11 -6 23 -8q10 -2 24 -4q-32 -4 -47 -13q-80 -37 -80 -133v-686 q1 -136 -157 -136h-134v76z" />
<glyph unicode="~" horiz-adv-x="938" d="M102 598v35q0 107 50 165q48 58 134 58q60 0 122 -26l157 -66l25 -10q42 -12 66 -12q32 0 50 22q16 20 27 74l2 18h103v-32q0 -108 -49 -166t-135 -58q-60 0 -122 26l-157 66l-27 8q-42 12 -66 12q-60 0 -75 -94l-2 -20h-103z" />
<glyph unicode="&#xa1;" horiz-adv-x="348" d="M88 0v1040l176 -132v-732zM88 1157v317h176v-317h-176z" />
<glyph unicode="&#xa2;" horiz-adv-x="950" d="M88 207v508l176 -103v-405l-88 -88zM88 760v508l88 88l88 -88v-420zM209 86l88 90h432l176 -176h-305l-104 116l-105 -116h-96zM213 1382l86 92h101l100 -108l108 108h300l-177 -176h-434zM406 -28l90 88l90 -90v-142l-88 -117l-92 113v148zM414 1508v147l86 96l92 -103 v-140l-94 -97z" />
<glyph unicode="&#xa3;" horiz-adv-x="1093" d="M-45 735l92 99h153l101 -101l-96 -77h-162zM236 62v554l94 82l86 -82v-407zM240 850v418l90 92l88 -92v-422l-92 -82zM242 0l202 176h428l178 -176h-808zM356 733l94 101h244l88 -101l-88 -77h-248zM356 1384l88 90h606l-178 -176h-428z" />
<glyph unicode="&#xa4;" horiz-adv-x="932" d="M102 438l132 130q-60 78 -60 172t58 170l-128 122l27 35l17 17l14 14l131 -127q78 57 176 57q96 0 172 -57l127 129q34 -25 64 -66l-130 -122q56 -78 56 -172t-58 -175l130 -129l-15 -16l-14 -14l-35 -31l-127 129q-76 -58 -172 -58q-98 0 -172 60l-133 -129 q-16 13 -29 27q-15 14 -31 34zM268 738q0 -80 60 -138q58 -60 139 -60q82 0 137 58q60 60 60 140t-58 138q-59 58 -139 58q-77 0 -137 -58q-62 -60 -62 -138z" />
<glyph unicode="&#xa5;" horiz-adv-x="1040" d="M45 520l49 66h287v-123h-293zM47 318l39 65h295v-121h-297zM92 760v714l176 -176v-436zM131 738l166 96h428l166 -96l-166 -82h-428zM426 102v514h180v-514l-94 -102zM666 264v123h290l42 -63l-44 -60h-288zM666 465v121h296l36 -68l-42 -53h-290zM756 862v436l176 176 v-714z" />
<glyph unicode="&#xa6;" horiz-adv-x="348" d="M88 176v450l176 89v-715zM88 862v436l176 176v-714z" />
<glyph unicode="&#xa7;" horiz-adv-x="1001" d="M88 58l92 86l90 -88v-306l-90 -88l-92 88v308zM88 307v405l92 89l90 -89v-407l-90 -88zM207 176l107 104h378l104 -104l-73 -70h-443zM207 -370l92 96h407l90 -96l-88 -78h-411zM209 838l73 82h443l71 -82l-100 -96h-382zM209 1382l88 92h411l88 -92l-90 -84h-409z M740 307v405l84 89l92 -86v-408l-90 -88zM740 960v310l84 88l92 -86v-312l-90 -88z" />
<glyph unicode="&#xa8;" horiz-adv-x="502" d="M0 1558v267h176v-267h-176zM328 1558v267h176v-267h-176z" />
<glyph unicode="&#xa9;" horiz-adv-x="1763" d="M110 744q0 316 224 538q222 224 538 224t539 -224q223 -222 223 -538t-223 -539t-539 -223t-539 223t-223 539zM196 744q0 -280 200 -478q196 -198 476 -198t480 198q196 198 196 478t-196 478q-198 198 -480 198q-280 0 -476 -198q-200 -198 -200 -478zM570 372v326 l110 -65v-261l-56 -56zM570 727v323l54 58l56 -58v-268zM643 297l57 57h275l111 -114h-386zM643 1126l57 58h386l-111 -113h-275z" />
<glyph unicode="&#xaa;" horiz-adv-x="905" d="M102 1140q0 34 6 72q26 132 118 210q88 76 204 75q30 0 60 -6q122 -26 180 -131l10 -16l6 -15v145h119v-667h-119v155l-6 -16q-31 -70 -100.5 -113t-153.5 -43q-62 0 -123 25q-161 70 -195 254q-6 35 -6 71zM125 594v110h680v-110h-680zM226 1143l6 -47q18 -102 98 -158 q60 -41 126 -41q70 0 132 43q34 24 61 66q25 40 33 86q6 24 6 51q0 24 -6 53q-24 125 -131 174q-43 20 -95 20q-84 0 -147 -52q-63 -56 -79 -150z" />
<glyph unicode="&#xab;" horiz-adv-x="813" d="M45 452h191l206 -452h-192zM45 502l207 456h194l-210 -456h-191zM370 452h191l207 -452h-192zM370 502l208 456h192l-209 -456h-191z" />
<glyph unicode="&#xac;" horiz-adv-x="2457" d="M80 -170v1566h2300v-1566h-2300zM127 -88v-35h317v35h-34q-40 0 -52 4q-32 12 -32 80l2 328h72q36 -2 73 -2l11 50l-5 5h-151v73v52q0 66 18 102q16 37 72 37q34 -1 59 -19l23 -110h59q56 164 117 320q45 116 133 317q19 -53 119 -315q76 -200 110 -322h62 q30 126 110 406q94 328 123 370q14 8 59 8v37h-243v-37q27 0 65 -4q38 -6 38 -22q0 -52 -78 -316q-40 -134 -82 -266l-238 652h-28l-250 -646q-33 137 -66 282q-34 146 -58 269q-6 11 -6 17v4q0 20 31 26q31 4 45 4h25v37h-293v-37q54 0 68 -12q12 -14 24 -74 q20 -88 45 -180q57 -215 65 -305q-47 1 -118 -65q-74 -68 -96 -120q-8 -20 -10 -42q-4 -22 -4 -62v-61l-82 -41v-20l82 8l2 -314q0 -66 -17 -80q-18 -16 -86 -16zM440 150q0 -121 70 -203t188 -82q131 0 215.5 84t84.5 215q0 114 -74 186t-191 72q-125 0 -209 -74t-84 -198z M553 188q0 80 39 140q38 60 114 59q98 0 146 -92q37 -73 37 -181q0 -84 -33 -140q-41 -70 -121 -70q-94 0 -143 100q-39 78 -39 184zM973 -88v-35h295l-2 35q-62 0 -80 18q-20 16 -20 64q0 12 2 49q2 35 2 59v58q0 94 20 131q32 57 129 57q79 0 109 -47q24 -39 24 -127v-110 v-25q0 -90 -8 -162h198v35q-60 0 -76 10t-16 48q2 40 2 67v189q0 196 -190 196q-52 0 -102 -31q-50 -29 -88 -77q2 36 2 54q0 33 -10 54q-48 -20 -95 -33q-47 -12 -96 -12v-35q23 2 35 2q26 0 44 -6q16 -8 17 -29v-352q0 -22 -10 -35q-10 -12 -43 -12q-29 2 -43 2z M1310 1090q0 -178 238 -201q236 -22 236 -154q0 -86 -66 -131t-156 -45q-53 1 -106 17q-72 22 -86 59l-2 98h-39v-67v-29q0 -41 -6 -82q104 -43 217 -43q56 0 104 12q10 -82 11 -147q-39 -22 -93 -39v-24h93v-322q0 -127 131 -127q16 0 36 4q22 4 38 8l55 70l-17 23 q-26 -32 -65 -32t-59 29q-22 29 -23 109v26v222q15 0 53 2q34 2 52 2q30 0 59 -6l12 55h-176q0 49 2 100q3 51 9 95q58 48 86 90q36 56 36 118q0 180 -235.5 201t-235.5 151q0 78 55.5 121t137.5 43q40 0 90 -14q52 -16 78 -39q10 -21 10 -69v-42h36q0 62 5 88q2 26 14 76 q-108 44 -227 44q-127 0 -209 -60q-93 -68 -93 -190zM1858 522h327v37h-33q-43 0 -59.5 10.5t-16.5 54.5v512v42q-2 20 -2 38q0 49 21 66q18 14 90 14v37h-327v-37q76 0 92 -14t16 -76v-49v-529q0 -44 -18 -56q-20 -12 -62 -13h-28v-37zM1927 254q0 -108 160 -140 q157 -30 157 -104q0 -52 -36 -78q-36 -28 -90 -28q-86 0 -117 30.5t-31 114.5h-32q0 -21 -4 -75q-4 -56 -5 -62q-1 -20 47 -33q45 -14 121 -14q96 0 162 45q78 54 78 146q0 102 -160 134q-159 32 -159 103q0 43 32 69q31 24 76 25q32 -1 64 -15q30 -16 54 -44q6 -28 9 -35 q2 -12 2 -37l33 -2q0 35 6 78q6 40 8 64q-86 26 -164 26q-90 0 -146 -37q-66 -45 -65 -131z" />
<glyph unicode="&#xad;" horiz-adv-x="610" d="M0 450l119 176h493l-118 -176h-494z" />
<glyph unicode="&#xae;" horiz-adv-x="1763" d="M110 744q0 316 224 538q222 224 538 224t539 -224q223 -222 223 -538t-223 -539t-539 -223t-539 223t-223 539zM196 744q0 -280 200 -478q196 -198 476 -198t480 198q196 198 196 478t-196 478q-198 198 -480 198q-280 0 -476 -198q-200 -198 -200 -478zM594 282v441 l112 -57v-268zM594 752v438l112 -115v-258zM612 1208h388l59 -57l-59 -55h-273zM620 738l107 60h273l106 -60l-106 -54h-273zM880 666h128l206 -402l-196 132zM1018 817v258l57 57l55 -57v-323z" />
<glyph unicode="&#xaf;" horiz-adv-x="610" d="M12 1626l119 176h493l-118 -176h-494z" />
<glyph unicode="&#xb0;" horiz-adv-x="747" d="M102 1231q0 112 80 192t193 80q115 1 195 -77q78 -80 77 -195q1 -115 -77 -193q-80 -80 -195 -80q-113 0 -193 80t-80 193zM190 1231q0 -78 54 -131q54 -54 131 -54q78 0 131 53.5t53 131.5t-53.5 131t-130.5 53t-131 -53q-54 -54 -54 -131z" />
<glyph unicode="&#xb1;" horiz-adv-x="1122" d="M90 39v139h946v-139h-946zM90 538v140h404v250h139v-250h403v-140h-403v-249h-139v249h-404z" />
<glyph unicode="&#xb2;" horiz-adv-x="506" d="M45 1149v254l88 -45v-209l-45 -45zM45 1694l103 88h214l46 -46l-46 -42h-317zM66 1413l82 49h214l82 -49l-82 -41h-214zM102 1090l46 42h233l84 -88h-317zM377 1476v204l43 42l45 -42v-254z" />
<glyph unicode="&#xb3;" horiz-adv-x="506" d="M51 1044l84 88h215l46 -42l-46 -46h-299zM51 1782h299l46 -46l-46 -42h-215zM53 1413l82 49h215l82 -49l-82 -41h-215zM364 1149v209l88 45v-254l-44 -45zM364 1476v204l44 42l44 -42v-254z" />
<glyph unicode="&#xb4;" horiz-adv-x="323" d="M0 744l133 294h193l-136 -294h-190z" />
<glyph unicode="&#xb6;" horiz-adv-x="1081" d="M96 760v508l88 88l88 -88v-406zM135 738l166 96h203l166 -96l-166 -82h-203zM211 1384l90 90h381l-178 -176h-203zM534 176v450l176 89v-715zM534 862v406l176 178v-686zM760 0v715l176 -89v-450zM760 760v686l176 -178v-406z" />
<glyph unicode="&#xb7;" horiz-adv-x="264" d="M45 584v317h176v-317h-176z" />
<glyph unicode="&#xb8;" horiz-adv-x="377" d="M80 -200l112 149h187l-111 -149h-188z" />
<glyph unicode="&#xb9;" horiz-adv-x="506" d="M211 1145v225l88 45v-358zM211 1489v217l88 88v-356z" />
<glyph unicode="&#xba;" horiz-adv-x="907" d="M102 1147l6 69q26 130 124 212q96 80 218 80q72 0 146 -32q170 -72 205 -260q6 -35 6 -69q0 -37 -6 -72q-23 -110 -95 -184q-74 -75 -180 -97q-32 -8 -72 -8h-34q-24 6 -37 8q-106 22 -178 97q-75 74 -97 184zM114 594v110h682v-110h-682zM223 1147q1 -31 5 -45 q12 -80 58 -131q48 -52 120 -68q24 -6 48 -6q94 -1 164 71q68 70 68 179q0 30 -4 47q-14 88 -80 146q-66 54 -148 54q-52 0 -94 -20q-138 -64 -137 -227z" />
<glyph unicode="&#xbb;" horiz-adv-x="813" d="M45 0l211 456h188l-204 -456h-195zM47 958h195l204 -452h-190zM370 0l212 456h188l-205 -456h-195zM372 958h196l202 -452h-188z" />
<glyph unicode="&#xbc;" horiz-adv-x="1276" d="M172 0l236 656h122l-235 -656h-123zM211 1145v225l88 45v-358zM211 1489v217l88 88v-356zM486 876l214 598h124l-279 -776zM788 400v356l88 -88v-218zM809 387l82 49h215l82 -49l-82 -41h-215zM1120 106v226l88 45v-359zM1120 450v218l88 88v-356z" />
<glyph unicode="&#xbd;" horiz-adv-x="1153" d="M110 0l236 656h123l-235 -656h-124zM211 1145v225l88 45v-358zM211 1489v217l88 88v-356zM424 876l215 598h123l-278 -776zM654 116v254l88 -44v-210l-46 -44zM654 662l102 88h215l45 -46l-45 -42h-317zM674 381l82 49h215l81 -49l-81 -41h-215zM710 58l46 42h233l84 -88 h-317zM985 444v203l43 43l45 -43v-254z" />
<glyph unicode="&#xbe;" horiz-adv-x="1276" d="M51 1044l84 88h215l46 -42l-46 -46h-299zM51 1782h299l46 -46l-46 -42h-215zM53 1413l82 49h215l82 -49l-82 -41h-215zM213 0l235 656h124l-236 -656h-123zM364 1149v209l88 45v-254l-44 -45zM364 1476v204l44 42l44 -42v-254zM526 876l216 598h122l-278 -776zM788 400 v356l88 -88v-218zM809 387l82 49h215l82 -49l-82 -41h-215zM1120 106v226l88 45v-359zM1120 450v218l88 88v-356z" />
<glyph unicode="&#xbf;" horiz-adv-x="856" d="M88 207v508l176 -103v-405l-88 -88zM129 733l166 86h123l178 -178h-303zM205 90l90 86h428l90 -86l-90 -90h-428zM454 840v219h179v-389zM456 1157v317h177v-317h-177z" />
<glyph unicode="&#xc0;" d="M88 0v715l176 -89v-450zM88 760v686l176 -178v-406zM116 1474h783l-176 -176h-428zM129 738l166 96h428l166 -96l-166 -82h-428zM346 1839h192l134 -294h-193zM752 176v450l176 89v-715zM752 862v406l176 178v-686z" />
<glyph unicode="&#xc1;" d="M88 0v715l176 -89v-450zM88 760v686l176 -178v-406zM116 1474h783l-176 -176h-428zM129 738l166 96h428l166 -96l-166 -82h-428zM342 1545l133 294h193l-136 -294h-190zM752 176v450l176 89v-715zM752 862v406l176 178v-686z" />
<glyph unicode="&#xc2;" d="M88 0v715l176 -89v-450zM88 760v686l176 -178v-406zM108 1581l322 325l48 -204l-126 -121h-244zM116 1474h783l-176 -176h-428zM129 738l166 96h428l166 -96l-166 -82h-428zM524 1702l55 202l332 -323h-261zM752 176v450l176 89v-715zM752 862v406l176 178v-686z" />
<glyph unicode="&#xc3;" d="M88 0v715l176 -89v-450zM88 760v686l176 -178v-406zM116 1474h783l-176 -176h-428zM129 738l166 96h428l166 -96l-166 -82h-428zM180 1649l72 235l118 -221l-20 -63zM296 1907l298 -93l112 -214l-286 88zM630 1844l21 63l172 -47l-73 -236zM752 176v450l176 89v-715z M752 862v406l176 178v-686z" />
<glyph unicode="&#xc4;" d="M88 0v715l176 -89v-450zM88 760v686l176 -178v-406zM116 1474h783l-176 -176h-428zM129 738l166 96h428l166 -96l-166 -82h-428zM246 1572v267h176v-267h-176zM574 1572v267h176v-267h-176zM752 176v450l176 89v-715zM752 862v406l176 178v-686z" />
<glyph unicode="&#xc5;" d="M88 0v715l176 -89v-450zM88 760v686l176 -178v-406zM116 1474h783l-176 -176h-428zM129 738l166 96h428l166 -96l-166 -82h-428zM252 1690v164l80 76l74 -74v-170l-74 -72zM354 1586l90 88h146l88 -88l-62 -58h-200zM354 1952l78 80h170l76 -80l-74 -70h-174zM633 1686 v172l69 74l80 -76v-166l-80 -76zM752 176v450l176 89v-715zM752 862v406l176 178v-686z" />
<glyph unicode="&#xc6;" horiz-adv-x="1622" d="M88 0v717l178 -93v-450zM88 762v684l180 -178v-404zM121 1474h1458l-176 -176h-441l-112 113l-123 -113h-430zM129 740l168 94h430l90 -88l-92 -90h-430zM754 866v406l92 90l86 -90v-408l-86 -90zM756 14v612l90 89l86 -89v-436zM794 0l179 176h432l174 -176h-785z M882 746l86 88h418l164 -94l-170 -84h-418z" />
<glyph unicode="&#xc7;" horiz-adv-x="942" d="M88 207v508l176 -103v-405l-88 -88zM88 760v508l88 88l88 -88v-420zM205 90l90 86h428l176 -176h-604zM205 1384l90 90h604l-176 -176h-428zM314 -200l118 149h188l-118 -149h-188z" />
<glyph unicode="&#xc8;" horiz-adv-x="911" d="M88 28v687l176 -89v-419zM88 760v686l176 -178v-406zM116 0l179 176h428l176 -176h-783zM116 1474h783l-176 -176h-428zM129 738l166 96h428l166 -96l-166 -82h-428zM332 1839h192l134 -294h-193z" />
<glyph unicode="&#xc9;" horiz-adv-x="911" d="M88 28v687l176 -89v-419zM88 760v686l176 -178v-406zM116 0l179 176h428l176 -176h-783zM116 1474h783l-176 -176h-428zM129 738l166 96h428l166 -96l-166 -82h-428zM330 1547l133 294h193l-136 -294h-190z" />
<glyph unicode="&#xca;" horiz-adv-x="911" d="M88 28v687l176 -89v-419zM88 760v686l176 -178v-406zM98 1581l322 325l48 -204l-126 -121h-244zM116 0l179 176h428l176 -176h-783zM116 1474h783l-176 -176h-428zM129 738l166 96h428l166 -96l-166 -82h-428zM514 1702l55 202l332 -323h-261z" />
<glyph unicode="&#xcb;" horiz-adv-x="911" d="M88 28v687l176 -89v-419zM88 760v686l176 -178v-406zM116 0l179 176h428l176 -176h-783zM116 1474h783l-176 -176h-428zM129 738l166 96h428l166 -96l-166 -82h-428zM262 1572v267h176v-267h-176zM590 1572v267h176v-267h-176z" />
<glyph unicode="&#xcc;" horiz-adv-x="348" d="M10 1839h192l134 -294h-193zM88 176v450l176 89v-715zM88 862v436l176 176v-714z" />
<glyph unicode="&#xcd;" horiz-adv-x="348" d="M10 1545l133 294h193l-136 -294h-190zM88 176v450l176 89v-715zM88 862v436l176 176v-714z" />
<glyph unicode="&#xce;" horiz-adv-x="348" d="M-200 1577l322 325l48 -204l-126 -121h-244zM88 176v450l176 89v-715zM88 862v436l176 176v-714zM216 1698l55 202l332 -323h-261z" />
<glyph unicode="&#xcf;" horiz-adv-x="348" d="M-76 1576v267h176v-267h-176zM88 176v450l176 89v-715zM88 862v436l176 176v-714zM252 1576v267h176v-267h-176z" />
<glyph unicode="&#xd0;" horiz-adv-x="1227" d="M-14 649l86 177h200l-86 -177h-200zM314 28v687l176 -89v-419zM314 760v686l176 -178v-406zM342 0l178 176h428l90 -86l-90 -90h-606zM342 1474h606l90 -90l-90 -86h-428zM977 207v419l176 89v-508l-88 -88zM977 862v406l88 88l88 -88v-508z" />
<glyph unicode="&#xd1;" d="M88 0v715l176 -89v-450zM88 760v686l176 -178v-406zM116 1474h783l-176 -176h-428zM192 1637l72 235l118 -221l-20 -63zM308 1895l298 -93l112 -214l-286 88zM642 1832l21 63l172 -47l-73 -236zM752 176v450l176 89v-715zM752 862v406l176 178v-686z" />
<glyph unicode="&#xd2;" d="M88 207v508l176 -89v-419l-88 -88zM88 760v508l88 88l88 -88v-406zM205 90l90 86h428l90 -86l-90 -90h-428zM205 1384l90 90h428l90 -90l-90 -86h-428zM330 1834h192l134 -294h-193zM752 207v419l176 89v-508l-88 -88zM752 862v406l88 88l88 -88v-508z" />
<glyph unicode="&#xd3;" d="M88 207v508l176 -89v-419l-88 -88zM88 760v508l88 88l88 -88v-406zM205 90l90 86h428l90 -86l-90 -90h-428zM205 1384l90 90h428l90 -90l-90 -86h-428zM346 1545l133 294h193l-136 -294h-190zM752 207v419l176 89v-508l-88 -88zM752 862v406l88 88l88 -88v-508z" />
<glyph unicode="&#xd4;" d="M88 207v508l176 -89v-419l-88 -88zM88 760v508l88 88l88 -88v-406zM112 1583l322 325l48 -204l-126 -121h-244zM205 90l90 86h428l90 -86l-90 -90h-428zM205 1384l90 90h428l90 -90l-90 -86h-428zM528 1704l55 202l332 -323h-261zM752 207v419l176 89v-508l-88 -88z M752 862v406l88 88l88 -88v-508z" />
<glyph unicode="&#xd5;" d="M88 207v508l176 -89v-419l-88 -88zM88 760v508l88 88l88 -88v-406zM182 1627l72 235l118 -221l-20 -63zM205 90l90 86h428l90 -86l-90 -90h-428zM205 1384l90 90h428l90 -90l-90 -86h-428zM298 1885l298 -93l112 -214l-286 88zM632 1822l21 63l172 -47l-73 -236zM752 207 v419l176 89v-508l-88 -88zM752 862v406l88 88l88 -88v-508z" />
<glyph unicode="&#xd6;" d="M88 207v508l176 -89v-419l-88 -88zM88 760v508l88 88l88 -88v-406zM205 90l90 86h428l90 -86l-90 -90h-428zM205 1384l90 90h428l90 -90l-90 -86h-428zM252 1574v267h176v-267h-176zM580 1574v267h176v-267h-176zM752 207v419l176 89v-508l-88 -88zM752 862v406l88 88 l88 -88v-508z" />
<glyph unicode="&#xd7;" horiz-adv-x="1016" d="M203 914l67 182l214 -214l4 -122h-132zM205 561l155 156l128 4l-4 -129l-214 -213zM528 592v127l124 -4l155 -154l-67 -182zM532 764v125l214 211l67 -180l-161 -160z" />
<glyph unicode="&#xd8;" horiz-adv-x="1024" d="M88 0v150l766 1324h86v-145l-762 -1329h-90zM90 230v482l180 -84v-90zM90 760v508l88 88l88 -88v-406zM213 1384l88 90h434l45 -52l-70 -124h-409zM250 51l78 125l403 -2l84 -86l-86 -88h-430zM754 207v419l176 89v-508l-88 -88zM760 862v74l180 305v-479z" />
<glyph unicode="&#xd9;" d="M88 207v508l176 -89v-419l-88 -88zM88 760v714l176 -170v-442zM205 90l90 86h428l90 -86l-90 -90h-428zM340 1841h192l134 -294h-193zM752 207v419l176 89v-508l-88 -88zM752 862v442l176 170v-714z" />
<glyph unicode="&#xda;" d="M88 207v508l176 -89v-419l-88 -88zM88 760v714l176 -170v-442zM205 90l90 86h428l90 -86l-90 -90h-428zM352 1545l133 294h193l-136 -294h-190zM752 207v419l176 89v-508l-88 -88zM752 862v442l176 170v-714z" />
<glyph unicode="&#xdb;" d="M88 207v508l176 -89v-419l-88 -88zM88 760v714l176 -170v-442zM102 1575l322 325l48 -204l-126 -121h-244zM205 90l90 86h428l90 -86l-90 -90h-428zM518 1696l55 202l332 -323h-261zM752 207v419l176 89v-508l-88 -88zM752 862v442l176 170v-714z" />
<glyph unicode="&#xdc;" d="M88 207v508l176 -89v-419l-88 -88zM88 760v714l176 -170v-442zM205 90l90 86h428l90 -86l-90 -90h-428zM246 1574v267h176v-267h-176zM574 1574v267h176v-267h-176zM752 207v419l176 89v-508l-88 -88zM752 862v442l176 170v-714z" />
<glyph unicode="&#xdd;" d="M88 760v714l176 -176v-436zM129 738l166 96h428l166 -96l-166 -82h-428zM338 1545l133 294h193l-136 -294h-190zM422 102v514h180v-514l-94 -102zM752 862v436l176 176v-714z" />
<glyph unicode="&#xe0;" d="M88 0v715l176 -89v-450zM88 760v686l176 -178v-406zM116 1474h783l-176 -176h-428zM129 738l166 96h428l166 -96l-166 -82h-428zM346 1839h192l134 -294h-193zM752 176v450l176 89v-715zM752 862v406l176 178v-686z" />
<glyph unicode="&#xe1;" d="M88 0v715l176 -89v-450zM88 760v686l176 -178v-406zM116 1474h783l-176 -176h-428zM129 738l166 96h428l166 -96l-166 -82h-428zM342 1545l133 294h193l-136 -294h-190zM752 176v450l176 89v-715zM752 862v406l176 178v-686z" />
<glyph unicode="&#xe2;" d="M88 0v715l176 -89v-450zM88 760v686l176 -178v-406zM108 1581l322 325l48 -204l-126 -121h-244zM116 1474h783l-176 -176h-428zM129 738l166 96h428l166 -96l-166 -82h-428zM524 1702l55 202l332 -323h-261zM752 176v450l176 89v-715zM752 862v406l176 178v-686z" />
<glyph unicode="&#xe3;" d="M88 0v715l176 -89v-450zM88 760v686l176 -178v-406zM116 1474h783l-176 -176h-428zM129 738l166 96h428l166 -96l-166 -82h-428zM180 1649l72 235l118 -221l-20 -63zM296 1907l298 -93l112 -214l-286 88zM630 1844l21 63l172 -47l-73 -236zM752 176v450l176 89v-715z M752 862v406l176 178v-686z" />
<glyph unicode="&#xe4;" d="M88 0v715l176 -89v-450zM88 760v686l176 -178v-406zM116 1474h783l-176 -176h-428zM129 738l166 96h428l166 -96l-166 -82h-428zM246 1572v267h176v-267h-176zM574 1572v267h176v-267h-176zM752 176v450l176 89v-715zM752 862v406l176 178v-686z" />
<glyph unicode="&#xe5;" d="M88 0v715l176 -89v-450zM88 760v686l176 -178v-406zM116 1474h783l-176 -176h-428zM129 738l166 96h428l166 -96l-166 -82h-428zM252 1690v164l80 76l74 -74v-170l-74 -72zM354 1586l90 88h146l88 -88l-62 -58h-200zM354 1952l78 80h170l76 -80l-74 -70h-174zM633 1686 v172l69 74l80 -76v-166l-80 -76zM752 176v450l176 89v-715zM752 862v406l176 178v-686z" />
<glyph unicode="&#xe6;" horiz-adv-x="1622" d="M88 0v717l178 -93v-450zM88 762v684l180 -178v-404zM121 1474h1458l-176 -176h-441l-112 113l-123 -113h-430zM129 740l168 94h430l90 -88l-92 -90h-430zM754 866v406l92 90l86 -90v-408l-86 -90zM756 14v612l90 89l86 -89v-436zM794 0l179 176h432l174 -176h-785z M882 746l86 88h418l164 -94l-170 -84h-418z" />
<glyph unicode="&#xe7;" horiz-adv-x="942" d="M88 207v508l176 -103v-405l-88 -88zM88 760v508l88 88l88 -88v-420zM205 90l90 86h428l176 -176h-604zM205 1384l90 90h604l-176 -176h-428zM314 -200l118 149h188l-118 -149h-188z" />
<glyph unicode="&#xe8;" horiz-adv-x="911" d="M88 28v687l176 -89v-419zM88 760v686l176 -178v-406zM116 0l179 176h428l176 -176h-783zM116 1474h783l-176 -176h-428zM129 738l166 96h428l166 -96l-166 -82h-428zM332 1839h192l134 -294h-193z" />
<glyph unicode="&#xe9;" horiz-adv-x="911" d="M88 28v687l176 -89v-419zM88 760v686l176 -178v-406zM116 0l179 176h428l176 -176h-783zM116 1474h783l-176 -176h-428zM129 738l166 96h428l166 -96l-166 -82h-428zM330 1547l133 294h193l-136 -294h-190z" />
<glyph unicode="&#xea;" horiz-adv-x="911" d="M88 28v687l176 -89v-419zM88 760v686l176 -178v-406zM98 1581l322 325l48 -204l-126 -121h-244zM116 0l179 176h428l176 -176h-783zM116 1474h783l-176 -176h-428zM129 738l166 96h428l166 -96l-166 -82h-428zM514 1702l55 202l332 -323h-261z" />
<glyph unicode="&#xeb;" horiz-adv-x="911" d="M88 28v687l176 -89v-419zM88 760v686l176 -178v-406zM116 0l179 176h428l176 -176h-783zM116 1474h783l-176 -176h-428zM129 738l166 96h428l166 -96l-166 -82h-428zM262 1572v267h176v-267h-176zM590 1572v267h176v-267h-176z" />
<glyph unicode="&#xec;" horiz-adv-x="348" d="M10 1839h192l134 -294h-193zM88 176v450l176 89v-715zM88 862v436l176 176v-714z" />
<glyph unicode="&#xed;" horiz-adv-x="348" d="M10 1545l133 294h193l-136 -294h-190zM88 176v450l176 89v-715zM88 862v436l176 176v-714z" />
<glyph unicode="&#xee;" horiz-adv-x="348" d="M-200 1577l322 325l48 -204l-126 -121h-244zM88 176v450l176 89v-715zM88 862v436l176 176v-714zM216 1698l55 202l332 -323h-261z" />
<glyph unicode="&#xef;" horiz-adv-x="348" d="M-76 1576v267h176v-267h-176zM88 176v450l176 89v-715zM88 862v436l176 176v-714zM252 1576v267h176v-267h-176z" />
<glyph unicode="&#xf0;" horiz-adv-x="1227" d="M-14 649l86 177h200l-86 -177h-200zM314 28v687l176 -89v-419zM314 760v686l176 -178v-406zM342 0l178 176h428l90 -86l-90 -90h-606zM342 1474h606l90 -90l-90 -86h-428zM977 207v419l176 89v-508l-88 -88zM977 862v406l88 88l88 -88v-508z" />
<glyph unicode="&#xf1;" d="M88 0v715l176 -89v-450zM88 760v686l176 -178v-406zM116 1474h783l-176 -176h-428zM192 1637l72 235l118 -221l-20 -63zM308 1895l298 -93l112 -214l-286 88zM642 1832l21 63l172 -47l-73 -236zM752 176v450l176 89v-715zM752 862v406l176 178v-686z" />
<glyph unicode="&#xf2;" d="M88 207v508l176 -89v-419l-88 -88zM88 760v508l88 88l88 -88v-406zM205 90l90 86h428l90 -86l-90 -90h-428zM205 1384l90 90h428l90 -90l-90 -86h-428zM330 1834h192l134 -294h-193zM752 207v419l176 89v-508l-88 -88zM752 862v406l88 88l88 -88v-508z" />
<glyph unicode="&#xf3;" d="M88 207v508l176 -89v-419l-88 -88zM88 760v508l88 88l88 -88v-406zM205 90l90 86h428l90 -86l-90 -90h-428zM205 1384l90 90h428l90 -90l-90 -86h-428zM346 1545l133 294h193l-136 -294h-190zM752 207v419l176 89v-508l-88 -88zM752 862v406l88 88l88 -88v-508z" />
<glyph unicode="&#xf4;" d="M88 207v508l176 -89v-419l-88 -88zM88 760v508l88 88l88 -88v-406zM112 1583l322 325l48 -204l-126 -121h-244zM205 90l90 86h428l90 -86l-90 -90h-428zM205 1384l90 90h428l90 -90l-90 -86h-428zM528 1704l55 202l332 -323h-261zM752 207v419l176 89v-508l-88 -88z M752 862v406l88 88l88 -88v-508z" />
<glyph unicode="&#xf5;" d="M88 207v508l176 -89v-419l-88 -88zM88 760v508l88 88l88 -88v-406zM182 1627l72 235l118 -221l-20 -63zM205 90l90 86h428l90 -86l-90 -90h-428zM205 1384l90 90h428l90 -90l-90 -86h-428zM298 1885l298 -93l112 -214l-286 88zM632 1822l21 63l172 -47l-73 -236zM752 207 v419l176 89v-508l-88 -88zM752 862v406l88 88l88 -88v-508z" />
<glyph unicode="&#xf6;" d="M88 207v508l176 -89v-419l-88 -88zM88 760v508l88 88l88 -88v-406zM205 90l90 86h428l90 -86l-90 -90h-428zM205 1384l90 90h428l90 -90l-90 -86h-428zM252 1574v267h176v-267h-176zM580 1574v267h176v-267h-176zM752 207v419l176 89v-508l-88 -88zM752 862v406l88 88 l88 -88v-508z" />
<glyph unicode="&#xf7;" horiz-adv-x="700" d="M45 442l119 176h494l-120 -176h-493zM268 43v317h176v-317h-176zM268 698v304h176v-304h-176z" />
<glyph unicode="&#xf8;" horiz-adv-x="1024" d="M88 0v150l766 1324h86v-145l-762 -1329h-90zM90 230v482l180 -84v-90zM90 760v508l88 88l88 -88v-406zM213 1384l88 90h434l45 -52l-70 -124h-409zM250 51l78 125l403 -2l84 -86l-86 -88h-430zM754 207v419l176 89v-508l-88 -88zM760 862v74l180 305v-479z" />
<glyph unicode="&#xf9;" d="M88 207v508l176 -89v-419l-88 -88zM88 760v714l176 -170v-442zM205 90l90 86h428l90 -86l-90 -90h-428zM340 1841h192l134 -294h-193zM752 207v419l176 89v-508l-88 -88zM752 862v442l176 170v-714z" />
<glyph unicode="&#xfa;" d="M88 207v508l176 -89v-419l-88 -88zM88 760v714l176 -170v-442zM205 90l90 86h428l90 -86l-90 -90h-428zM352 1545l133 294h193l-136 -294h-190zM752 207v419l176 89v-508l-88 -88zM752 862v442l176 170v-714z" />
<glyph unicode="&#xfb;" d="M88 207v508l176 -89v-419l-88 -88zM88 760v714l176 -170v-442zM102 1575l322 325l48 -204l-126 -121h-244zM205 90l90 86h428l90 -86l-90 -90h-428zM518 1696l55 202l332 -323h-261zM752 207v419l176 89v-508l-88 -88zM752 862v442l176 170v-714z" />
<glyph unicode="&#xfc;" d="M88 207v508l176 -89v-419l-88 -88zM88 760v714l176 -170v-442zM205 90l90 86h428l90 -86l-90 -90h-428zM246 1574v267h176v-267h-176zM574 1574v267h176v-267h-176zM752 207v419l176 89v-508l-88 -88zM752 862v442l176 170v-714z" />
<glyph unicode="&#xfd;" d="M88 760v714l176 -176v-436zM129 738l166 96h428l166 -96l-166 -82h-428zM338 1545l133 294h193l-136 -294h-190zM422 102v514h180v-514l-94 -102zM752 862v436l176 176v-714z" />
<glyph unicode="&#xff;" d="M88 760v714l176 -176v-436zM129 738l166 96h428l166 -96l-166 -82h-428zM244 1576v267h176v-267h-176zM422 102v514h180v-514l-94 -102zM572 1576v267h176v-267h-176zM752 862v436l176 176v-714z" />
<glyph unicode="&#x152;" horiz-adv-x="1628" d="M88 176v547l180 -95v-452l-90 -80zM88 766v510l90 82l90 -84v-404zM205 74l111 102h407l121 -127l127 127h438l174 -176h-1290zM209 1390l92 84h1284l-178 -176h-449l-106 119l-125 -119h-428zM752 190v443l96 90l82 -92v-443l-84 -88zM754 866v406l92 90l86 -90v-408 l-86 -90zM882 746l86 88h418l164 -94l-170 -84h-418z" />
<glyph unicode="&#x153;" horiz-adv-x="1628" d="M88 176v547l180 -95v-452l-90 -80zM88 766v510l90 82l90 -84v-404zM205 74l111 102h407l121 -127l127 127h438l174 -176h-1290zM209 1390l92 84h1284l-178 -176h-449l-106 119l-125 -119h-428zM752 190v443l96 90l82 -92v-443l-84 -88zM754 866v406l92 90l86 -90v-408 l-86 -90zM882 746l86 88h418l164 -94l-170 -84h-418z" />
<glyph unicode="&#x178;" d="M88 760v714l176 -176v-436zM129 738l166 96h428l166 -96l-166 -82h-428zM244 1576v267h176v-267h-176zM422 102v514h180v-514l-94 -102zM572 1576v267h176v-267h-176zM752 862v436l176 176v-714z" />
<glyph unicode="&#x2c6;" horiz-adv-x="798" d="M0 1495l322 325l48 -204l-126 -121h-244zM416 1616l55 202l332 -323h-261z" />
<glyph unicode="&#x2dc;" horiz-adv-x="641" d="M0 1569l72 235l118 -221l-20 -63zM116 1827l298 -93l112 -214l-286 88zM450 1764l21 63l172 -47l-73 -236z" />
<glyph unicode="&#x2000;" horiz-adv-x="1016" />
<glyph unicode="&#x2001;" horiz-adv-x="2032" />
<glyph unicode="&#x2002;" horiz-adv-x="1016" />
<glyph unicode="&#x2003;" horiz-adv-x="2032" />
<glyph unicode="&#x2004;" horiz-adv-x="677" />
<glyph unicode="&#x2005;" horiz-adv-x="508" />
<glyph unicode="&#x2006;" horiz-adv-x="338" />
<glyph unicode="&#x2007;" horiz-adv-x="338" />
<glyph unicode="&#x2008;" horiz-adv-x="254" />
<glyph unicode="&#x2009;" horiz-adv-x="406" />
<glyph unicode="&#x200a;" horiz-adv-x="112" />
<glyph unicode="&#x2010;" horiz-adv-x="700" d="M45 442l119 176h494l-120 -176h-493z" />
<glyph unicode="&#x2011;" horiz-adv-x="700" d="M45 442l119 176h494l-120 -176h-493z" />
<glyph unicode="&#x2012;" horiz-adv-x="700" d="M45 442l119 176h494l-120 -176h-493z" />
<glyph unicode="&#x2013;" d="M88 649l86 177h754l-86 -177h-754z" />
<glyph unicode="&#x2014;" horiz-adv-x="1812" d="M88 649l86 177h754l-86 -177h-754zM928 649l86 177h754l-86 -177h-754z" />
<glyph unicode="&#x2018;" horiz-adv-x="368" d="M45 966l97 508h182l-96 -508h-183z" />
<glyph unicode="&#x2019;" horiz-adv-x="368" d="M45 966l97 508h182l-96 -508h-183z" />
<glyph unicode="&#x201a;" horiz-adv-x="293" d="M-28 -192l96 510h182l-96 -510h-182z" />
<glyph unicode="&#x201c;" horiz-adv-x="676" d="M45 966l97 508h182l-96 -508h-183zM354 966l96 508h183l-97 -508h-182z" />
<glyph unicode="&#x201d;" horiz-adv-x="676" d="M45 966l97 508h182l-96 -508h-183zM354 966l96 508h183l-97 -508h-182z" />
<glyph unicode="&#x201e;" horiz-adv-x="602" d="M-28 -192l96 510h182l-96 -510h-182zM280 -192l97 510h182l-96 -510h-183z" />
<glyph unicode="&#x2022;" horiz-adv-x="747" d="M102 738q0 112 80 192t193 80q115 0 195 -78q78 -80 77 -194q1 -115 -77 -193q-80 -80 -195 -80t-193 80q-80 79 -80 193z" />
<glyph unicode="&#x2026;" horiz-adv-x="1169" d="M84 92q0 48 32 80q30 31 78 31q46 0 80 -31q30 -32 31 -80q-1 -48 -31 -78q-34 -32 -80 -32q-48 0 -78 32q-32 30 -32 78zM475 92q0 48 33 80q30 31 78 31t80 -31q30 -32 30 -80t-30 -78q-32 -32 -80 -32q-47 0 -78 32q-33 30 -33 78zM866 92q0 48 33 80q31 31 78 31 q45 0 77 -31q34 -30 34 -80q0 -46 -34 -78q-32 -32 -77 -32q-47 0 -78 32q-33 30 -33 78z" />
<glyph unicode="&#x202f;" horiz-adv-x="406" />
<glyph unicode="&#x2039;" horiz-adv-x="491" d="M45 452h191l206 -452h-192zM45 502l207 456h194l-210 -456h-191z" />
<glyph unicode="&#x203a;" horiz-adv-x="491" d="M45 0l211 456h188l-204 -456h-195zM47 958h195l204 -452h-190z" />
<glyph unicode="&#x205f;" horiz-adv-x="508" />
<glyph unicode="&#x2122;" horiz-adv-x="1499" d="M102 1378v96h443v-96h-168v-640h-109v640h-166zM520 738l146 759h42l220 -489l12 -29l6 -17q4 -12 8 -30q4 -20 4 -43q6 57 31 119l221 489h44l145 -759h-109l-76 438l-4 24l-2 12q-2 20 -2 33q0 12 4 37l-18 -68l-10 -24l-2 -10l-205 -461h-31l-204 461l-5 12l-8 22 l-19 68q4 -32 4 -45q-2 -17 -2 -25l-2 -12l-4 -24l-76 -438h-108z" />
<glyph unicode="&#x25fc;" horiz-adv-x="1475" d="M0 0v1475h1475v-1475h-1475z" />
</font>
</defs>
</svg>
